<svg width="2458" height="1481" viewBox="0 0 2458 1481" fill="none" xmlns="http://www.w3.org/2000/svg">
<g clip-path="url(#clip0_541_9624)">
<path d="M1590.68 617H1494.6C1487.09 617 1481 623.09 1481 630.603V726.678C1481 734.191 1487.09 740.281 1494.6 740.281H1590.68C1598.19 740.281 1604.28 734.191 1604.28 726.678V630.603C1604.28 623.09 1598.19 617 1590.68 617Z" stroke="#595959" stroke-width="1.27532"/>
<path d="M1713.96 617H1617.88C1610.37 617 1604.28 623.09 1604.28 630.603V726.678C1604.28 734.191 1610.37 740.281 1617.88 740.281H1713.96C1721.47 740.281 1727.56 734.191 1727.56 726.678V630.603C1727.56 623.09 1721.47 617 1713.96 617Z" stroke="#595959" stroke-width="1.27532"/>
<path d="M1837.24 617H1741.17C1733.65 617 1727.56 623.09 1727.56 630.603V726.678C1727.56 734.191 1733.65 740.281 1741.17 740.281H1837.24C1844.75 740.281 1850.84 734.191 1850.84 726.678V630.603C1850.84 623.09 1844.75 617 1837.24 617Z" stroke="#595959" stroke-width="1.27532"/>
<path d="M1960.52 617H1864.45C1856.93 617 1850.84 623.09 1850.84 630.603V726.678C1850.84 734.191 1856.93 740.281 1864.45 740.281H1960.52C1968.03 740.281 1974.12 734.191 1974.12 726.678V630.603C1974.12 623.09 1968.03 617 1960.52 617Z" stroke="#595959" stroke-width="1.27532"/>
<path d="M2083.79 617H1987.72C1980.21 617 1974.12 623.09 1974.12 630.603V726.678C1974.12 734.191 1980.21 740.281 1987.72 740.281H2083.79C2091.31 740.281 2097.4 734.191 2097.4 726.678V630.603C2097.4 623.09 2091.31 617 2083.79 617Z" stroke="#595959" stroke-width="1.27532"/>
<path d="M2207.08 617H2111.01C2103.5 617 2097.41 623.09 2097.41 630.603V726.678C2097.41 734.191 2103.5 740.281 2111.01 740.281H2207.08C2214.6 740.281 2220.69 734.191 2220.69 726.678V630.603C2220.69 623.09 2214.6 617 2207.08 617Z" stroke="#595959" stroke-width="1.27532"/>
<path d="M1590.68 740.281H1494.6C1487.09 740.281 1481 746.372 1481 753.885V849.959C1481 857.472 1487.09 863.562 1494.6 863.562H1590.68C1598.19 863.562 1604.28 857.472 1604.28 849.959V753.885C1604.28 746.372 1598.19 740.281 1590.68 740.281Z" stroke="#595959" stroke-width="1.27532"/>
<path d="M1713.96 740.281H1617.88C1610.37 740.281 1604.28 746.372 1604.28 753.885V849.959C1604.28 857.472 1610.37 863.562 1617.88 863.562H1713.96C1721.47 863.562 1727.56 857.472 1727.56 849.959V753.885C1727.56 746.372 1721.47 740.281 1713.96 740.281Z" stroke="#595959" stroke-width="1.27532"/>
<path d="M1837.24 740.281H1741.17C1733.65 740.281 1727.56 746.372 1727.56 753.885V849.959C1727.56 857.472 1733.65 863.562 1741.17 863.562H1837.24C1844.75 863.562 1850.84 857.472 1850.84 849.959V753.885C1850.84 746.372 1844.75 740.281 1837.24 740.281Z" stroke="#595959" stroke-width="1.27532"/>
<path d="M1960.52 740.281H1864.45C1856.93 740.281 1850.84 746.372 1850.84 753.885V849.959C1850.84 857.472 1856.93 863.562 1864.45 863.562H1960.52C1968.03 863.562 1974.12 857.472 1974.12 849.959V753.885C1974.12 746.372 1968.03 740.281 1960.52 740.281Z" stroke="#595959" stroke-width="1.27532"/>
<path d="M2083.79 740.281H1987.72C1980.21 740.281 1974.12 746.372 1974.12 753.885V849.959C1974.12 857.472 1980.21 863.562 1987.72 863.562H2083.79C2091.31 863.562 2097.4 857.472 2097.4 849.959V753.885C2097.4 746.372 2091.31 740.281 2083.79 740.281Z" stroke="#595959" stroke-width="1.27532"/>
<path d="M2207.08 740.281H2111.01C2103.5 740.281 2097.41 746.372 2097.41 753.885V849.959C2097.41 857.472 2103.5 863.562 2111.01 863.562H2207.08C2214.6 863.562 2220.69 857.472 2220.69 849.959V753.885C2220.69 746.372 2214.6 740.281 2207.08 740.281Z" stroke="#595959" stroke-width="1.27532"/>
<path d="M1590.68 863.562H1494.6C1487.09 863.562 1481 869.653 1481 877.166V973.24C1481 980.753 1487.09 986.844 1494.6 986.844H1590.68C1598.19 986.844 1604.28 980.753 1604.28 973.24V877.166C1604.28 869.653 1598.19 863.562 1590.68 863.562Z" stroke="#595959" stroke-width="1.27532"/>
<path d="M1713.96 863.562H1617.88C1610.37 863.562 1604.28 869.653 1604.28 877.166V973.24C1604.28 980.753 1610.37 986.844 1617.88 986.844H1713.96C1721.47 986.844 1727.56 980.753 1727.56 973.24V877.166C1727.56 869.653 1721.47 863.562 1713.96 863.562Z" stroke="#595959" stroke-width="1.27532"/>
<path d="M1837.24 863.562H1741.17C1733.65 863.562 1727.56 869.653 1727.56 877.166V973.24C1727.56 980.753 1733.65 986.844 1741.17 986.844H1837.24C1844.75 986.844 1850.84 980.753 1850.84 973.24V877.166C1850.84 869.653 1844.75 863.562 1837.24 863.562Z" stroke="#595959" stroke-width="1.27532"/>
<path d="M1960.52 863.562H1864.45C1856.93 863.562 1850.84 869.653 1850.84 877.166V973.24C1850.84 980.753 1856.93 986.844 1864.45 986.844H1960.52C1968.03 986.844 1974.12 980.753 1974.12 973.24V877.166C1974.12 869.653 1968.03 863.562 1960.52 863.562Z" stroke="#595959" stroke-width="1.27532"/>
<path d="M2083.79 863.562H1987.72C1980.21 863.562 1974.12 869.653 1974.12 877.166V973.24C1974.12 980.753 1980.21 986.844 1987.72 986.844H2083.79C2091.31 986.844 2097.4 980.753 2097.4 973.24V877.166C2097.4 869.653 2091.31 863.562 2083.79 863.562Z" stroke="#595959" stroke-width="1.27532"/>
<path d="M2207.08 863.562H2111.01C2103.5 863.562 2097.41 869.653 2097.41 877.166V973.24C2097.41 980.753 2103.5 986.844 2111.01 986.844H2207.08C2214.6 986.844 2220.69 980.753 2220.69 973.24V877.166C2220.69 869.653 2214.6 863.562 2207.08 863.562Z" stroke="#595959" stroke-width="1.27532"/>
<path d="M1590.68 986.844H1494.6C1487.09 986.844 1481 992.934 1481 1000.45V1096.52C1481 1104.03 1487.09 1110.12 1494.6 1110.12H1590.68C1598.19 1110.12 1604.28 1104.03 1604.28 1096.52V1000.45C1604.28 992.934 1598.19 986.844 1590.68 986.844Z" stroke="#595959" stroke-width="1.27532"/>
<path d="M1713.96 986.844H1617.88C1610.37 986.844 1604.28 992.934 1604.28 1000.45V1096.52C1604.28 1104.03 1610.37 1110.12 1617.88 1110.12H1713.96C1721.47 1110.12 1727.56 1104.03 1727.56 1096.52V1000.45C1727.56 992.934 1721.47 986.844 1713.96 986.844Z" stroke="#595959" stroke-width="1.27532"/>
<path d="M1837.24 986.844H1741.17C1733.65 986.844 1727.56 992.934 1727.56 1000.45V1096.52C1727.56 1104.03 1733.65 1110.12 1741.17 1110.12H1837.24C1844.75 1110.12 1850.84 1104.03 1850.84 1096.52V1000.45C1850.84 992.934 1844.75 986.844 1837.24 986.844Z" stroke="#595959" stroke-width="1.27532"/>
<path d="M1960.52 986.844H1864.45C1856.93 986.844 1850.84 992.934 1850.84 1000.45V1096.52C1850.84 1104.03 1856.93 1110.12 1864.45 1110.12H1960.52C1968.03 1110.12 1974.12 1104.03 1974.12 1096.52V1000.45C1974.12 992.934 1968.03 986.844 1960.52 986.844Z" stroke="#595959" stroke-width="1.27532"/>
<path d="M2083.79 986.844H1987.72C1980.21 986.844 1974.12 992.934 1974.12 1000.45V1096.52C1974.12 1104.03 1980.21 1110.12 1987.72 1110.12H2083.79C2091.31 1110.12 2097.4 1104.03 2097.4 1096.52V1000.45C2097.4 992.934 2091.31 986.844 2083.79 986.844Z" stroke="#595959" stroke-width="1.27532"/>
<path d="M2207.08 986.844H2111.01C2103.5 986.844 2097.41 992.934 2097.41 1000.45V1096.52C2097.41 1104.03 2103.5 1110.12 2111.01 1110.12H2207.08C2214.6 1110.12 2220.69 1104.03 2220.69 1096.52V1000.45C2220.69 992.934 2214.6 986.844 2207.08 986.844Z" stroke="#595959" stroke-width="1.27532"/>
<path d="M1590.68 1110.12H1494.6C1487.09 1110.12 1481 1116.21 1481 1123.72V1219.8C1481 1227.31 1487.09 1233.4 1494.6 1233.4H1590.68C1598.19 1233.4 1604.28 1227.31 1604.28 1219.8V1123.72C1604.28 1116.21 1598.19 1110.12 1590.68 1110.12Z" stroke="#595959" stroke-width="1.27532"/>
<path d="M1713.96 1110.12H1617.88C1610.37 1110.12 1604.28 1116.21 1604.28 1123.72V1219.8C1604.28 1227.31 1610.37 1233.4 1617.88 1233.4H1713.96C1721.47 1233.4 1727.56 1227.31 1727.56 1219.8V1123.72C1727.56 1116.21 1721.47 1110.12 1713.96 1110.12Z" stroke="#595959" stroke-width="1.27532"/>
<path d="M1837.24 1110.12H1741.17C1733.65 1110.12 1727.56 1116.21 1727.56 1123.72V1219.8C1727.56 1227.31 1733.65 1233.4 1741.17 1233.4H1837.24C1844.75 1233.4 1850.84 1227.31 1850.84 1219.8V1123.72C1850.84 1116.21 1844.75 1110.12 1837.24 1110.12Z" stroke="#595959" stroke-width="1.27532"/>
<path d="M1960.52 1110.12H1864.45C1856.93 1110.12 1850.84 1116.21 1850.84 1123.72V1219.8C1850.84 1227.31 1856.93 1233.4 1864.45 1233.4H1960.52C1968.03 1233.4 1974.12 1227.31 1974.12 1219.8V1123.72C1974.12 1116.21 1968.03 1110.12 1960.52 1110.12Z" stroke="#595959" stroke-width="1.27532"/>
<path d="M2083.79 1110.12H1987.72C1980.21 1110.12 1974.12 1116.21 1974.12 1123.72V1219.8C1974.12 1227.31 1980.21 1233.4 1987.72 1233.4H2083.79C2091.31 1233.4 2097.4 1227.31 2097.4 1219.8V1123.72C2097.4 1116.21 2091.31 1110.12 2083.79 1110.12Z" stroke="#595959" stroke-width="1.27532"/>
<path d="M2207.08 1110.12H2111.01C2103.5 1110.12 2097.41 1116.21 2097.41 1123.72V1219.8C2097.41 1227.31 2103.5 1233.4 2111.01 1233.4H2207.08C2214.6 1233.4 2220.69 1227.31 2220.69 1219.8V1123.72C2220.69 1116.21 2214.6 1110.12 2207.08 1110.12Z" stroke="#595959" stroke-width="1.27532"/>
<path d="M1974.13 627.203V726.678C1974.13 734.191 1980.22 740.282 1987.73 740.282H2083.8C2091.32 740.282 2097.41 746.372 2097.41 753.885V849.96C2097.41 857.473 2103.5 863.563 2111.01 863.563H2207.08C2214.6 863.563 2220.69 869.654 2220.69 877.166V973.241C2220.69 980.754 2226.78 986.844 2234.29 986.844H2330.37C2337.88 986.844 2343.97 992.935 2343.97 1000.45V1096.52C2343.97 1104.04 2350.06 1110.13 2357.57 1110.13H2457.05M1850.84 627.203V726.678C1850.84 734.191 1856.93 740.282 1864.45 740.282H1960.52C1968.03 740.282 1974.13 746.372 1974.13 753.885V849.96C1974.13 857.473 1980.22 863.563 1987.73 863.563H2083.8C2091.32 863.563 2097.41 869.654 2097.41 877.166V973.241C2097.41 980.754 2091.32 986.844 2083.8 986.844H1987.73C1980.22 986.844 1974.13 980.754 1974.13 973.241V875.466L1974.01 874.663C1973.09 868.501 1967.86 863.9 1961.64 863.781L1950.32 863.563H1864.45C1856.93 863.563 1850.84 869.654 1850.84 877.166V973.241C1850.84 980.754 1856.93 986.844 1864.45 986.844H1961.37L1964.6 987.06C1969.96 987.417 1974.13 991.868 1974.13 997.24V1007.67M1974.13 997.047V1096.52C1974.13 1104.04 1980.22 1110.13 1987.73 1110.13H2083.8C2091.32 1110.13 2097.41 1116.22 2097.41 1123.73V1219.8C2097.41 1227.32 2103.5 1233.41 2111.01 1233.41H2207.08C2214.6 1233.41 2220.69 1239.5 2220.69 1247.01V1343.08C2220.69 1350.6 2226.78 1356.69 2234.29 1356.69H2330.37C2337.88 1356.69 2343.97 1362.78 2343.97 1370.29V1466.37C2343.97 1473.88 2350.06 1479.97 2357.57 1479.97H2457.05" stroke="url(#paint0_linear_541_9624)" stroke-opacity="0.8" stroke-width="1.27532"/>
<path d="M1590.68 1H1494.6C1487.09 1 1481 7.09045 1481 14.6034V110.678C1481 118.191 1487.09 124.281 1494.6 124.281H1590.68C1598.19 124.281 1604.28 118.191 1604.28 110.678V14.6034C1604.28 7.09045 1598.19 1 1590.68 1Z" stroke="#595959" stroke-width="1.27532"/>
<path d="M1713.96 1H1617.88C1610.37 1 1604.28 7.09045 1604.28 14.6034V110.678C1604.28 118.191 1610.37 124.281 1617.88 124.281H1713.96C1721.47 124.281 1727.56 118.191 1727.56 110.678V14.6034C1727.56 7.09045 1721.47 1 1713.96 1Z" stroke="#595959" stroke-width="1.27532"/>
<path d="M1837.24 1H1741.17C1733.65 1 1727.56 7.09045 1727.56 14.6034V110.678C1727.56 118.191 1733.65 124.281 1741.17 124.281H1837.24C1844.75 124.281 1850.84 118.191 1850.84 110.678V14.6034C1850.84 7.09045 1844.75 1 1837.24 1Z" stroke="#595959" stroke-width="1.27532"/>
<path d="M1960.52 1H1864.45C1856.93 1 1850.84 7.09045 1850.84 14.6034V110.678C1850.84 118.191 1856.93 124.281 1864.45 124.281H1960.52C1968.03 124.281 1974.12 118.191 1974.12 110.678V14.6034C1974.12 7.09045 1968.03 1 1960.52 1Z" stroke="#595959" stroke-width="1.27532"/>
<path d="M2083.79 1H1987.72C1980.21 1 1974.12 7.09045 1974.12 14.6034V110.678C1974.12 118.191 1980.21 124.281 1987.72 124.281H2083.79C2091.31 124.281 2097.4 118.191 2097.4 110.678V14.6034C2097.4 7.09045 2091.31 1 2083.79 1Z" stroke="#595959" stroke-width="1.27532"/>
<path d="M2207.08 1H2111.01C2103.5 1 2097.41 7.09045 2097.41 14.6034V110.678C2097.41 118.191 2103.5 124.281 2111.01 124.281H2207.08C2214.6 124.281 2220.69 118.191 2220.69 110.678V14.6034C2220.69 7.09045 2214.6 1 2207.08 1Z" stroke="#595959" stroke-width="1.27532"/>
<path d="M1590.68 124.281H1494.6C1487.09 124.281 1481 130.372 1481 137.885V233.959C1481 241.472 1487.09 247.562 1494.6 247.562H1590.68C1598.19 247.562 1604.28 241.472 1604.28 233.959V137.885C1604.28 130.372 1598.19 124.281 1590.68 124.281Z" stroke="#595959" stroke-width="1.27532"/>
<path d="M1713.96 124.281H1617.88C1610.37 124.281 1604.28 130.372 1604.28 137.885V233.959C1604.28 241.472 1610.37 247.562 1617.88 247.562H1713.96C1721.47 247.562 1727.56 241.472 1727.56 233.959V137.885C1727.56 130.372 1721.47 124.281 1713.96 124.281Z" stroke="#595959" stroke-width="1.27532"/>
<path d="M1837.24 124.281H1741.17C1733.65 124.281 1727.56 130.372 1727.56 137.885V233.959C1727.56 241.472 1733.65 247.562 1741.17 247.562H1837.24C1844.75 247.562 1850.84 241.472 1850.84 233.959V137.885C1850.84 130.372 1844.75 124.281 1837.24 124.281Z" stroke="#595959" stroke-width="1.27532"/>
<path d="M1960.52 124.281H1864.45C1856.93 124.281 1850.84 130.372 1850.84 137.885V233.959C1850.84 241.472 1856.93 247.562 1864.45 247.562H1960.52C1968.03 247.562 1974.12 241.472 1974.12 233.959V137.885C1974.12 130.372 1968.03 124.281 1960.52 124.281Z" stroke="#595959" stroke-width="1.27532"/>
<path d="M2083.79 124.281H1987.72C1980.21 124.281 1974.12 130.372 1974.12 137.885V233.959C1974.12 241.472 1980.21 247.562 1987.72 247.562H2083.79C2091.31 247.562 2097.4 241.472 2097.4 233.959V137.885C2097.4 130.372 2091.31 124.281 2083.79 124.281Z" stroke="#595959" stroke-width="1.27532"/>
<path d="M2207.08 124.281H2111.01C2103.5 124.281 2097.41 130.372 2097.41 137.885V233.959C2097.41 241.472 2103.5 247.562 2111.01 247.562H2207.08C2214.6 247.562 2220.69 241.472 2220.69 233.959V137.885C2220.69 130.372 2214.6 124.281 2207.08 124.281Z" stroke="#595959" stroke-width="1.27532"/>
<path d="M1590.68 247.562H1494.6C1487.09 247.562 1481 253.653 1481 261.166V357.24C1481 364.753 1487.09 370.843 1494.6 370.843H1590.68C1598.19 370.843 1604.28 364.753 1604.28 357.24V261.166C1604.28 253.653 1598.19 247.562 1590.68 247.562Z" stroke="#595959" stroke-width="1.27532"/>
<path d="M1713.96 247.562H1617.88C1610.37 247.562 1604.28 253.653 1604.28 261.166V357.24C1604.28 364.753 1610.37 370.843 1617.88 370.843H1713.96C1721.47 370.843 1727.56 364.753 1727.56 357.24V261.166C1727.56 253.653 1721.47 247.562 1713.96 247.562Z" stroke="#595959" stroke-width="1.27532"/>
<path d="M1837.24 247.562H1741.17C1733.65 247.562 1727.56 253.653 1727.56 261.166V357.24C1727.56 364.753 1733.65 370.843 1741.17 370.843H1837.24C1844.75 370.843 1850.84 364.753 1850.84 357.24V261.166C1850.84 253.653 1844.75 247.562 1837.24 247.562Z" stroke="#595959" stroke-width="1.27532"/>
<path d="M1960.52 247.562H1864.45C1856.93 247.562 1850.84 253.653 1850.84 261.166V357.24C1850.84 364.753 1856.93 370.843 1864.45 370.843H1960.52C1968.03 370.843 1974.12 364.753 1974.12 357.24V261.166C1974.12 253.653 1968.03 247.562 1960.52 247.562Z" stroke="#595959" stroke-width="1.27532"/>
<path d="M2083.79 247.562H1987.72C1980.21 247.562 1974.12 253.653 1974.12 261.166V357.24C1974.12 364.753 1980.21 370.843 1987.72 370.843H2083.79C2091.31 370.843 2097.4 364.753 2097.4 357.24V261.166C2097.4 253.653 2091.31 247.562 2083.79 247.562Z" stroke="#595959" stroke-width="1.27532"/>
<path d="M2207.08 247.562H2111.01C2103.5 247.562 2097.41 253.653 2097.41 261.166V357.24C2097.41 364.753 2103.5 370.843 2111.01 370.843H2207.08C2214.6 370.843 2220.69 364.753 2220.69 357.24V261.166C2220.69 253.653 2214.6 247.562 2207.08 247.562Z" stroke="#595959" stroke-width="1.27532"/>
<path d="M1590.68 370.844H1494.6C1487.09 370.844 1481 376.934 1481 384.447V480.521C1481 488.034 1487.09 494.125 1494.6 494.125H1590.68C1598.19 494.125 1604.28 488.034 1604.28 480.521V384.447C1604.28 376.934 1598.19 370.844 1590.68 370.844Z" stroke="#595959" stroke-width="1.27532"/>
<path d="M1713.96 370.844H1617.88C1610.37 370.844 1604.28 376.934 1604.28 384.447V480.521C1604.28 488.034 1610.37 494.125 1617.88 494.125H1713.96C1721.47 494.125 1727.56 488.034 1727.56 480.521V384.447C1727.56 376.934 1721.47 370.844 1713.96 370.844Z" stroke="#595959" stroke-width="1.27532"/>
<path d="M1837.24 370.844H1741.17C1733.65 370.844 1727.56 376.934 1727.56 384.447V480.521C1727.56 488.034 1733.65 494.125 1741.17 494.125H1837.24C1844.75 494.125 1850.84 488.034 1850.84 480.521V384.447C1850.84 376.934 1844.75 370.844 1837.24 370.844Z" stroke="#595959" stroke-width="1.27532"/>
<path d="M1960.52 370.844H1864.45C1856.93 370.844 1850.84 376.934 1850.84 384.447V480.521C1850.84 488.034 1856.93 494.125 1864.45 494.125H1960.52C1968.03 494.125 1974.12 488.034 1974.12 480.521V384.447C1974.12 376.934 1968.03 370.844 1960.52 370.844Z" stroke="#595959" stroke-width="1.27532"/>
<path d="M2083.79 370.844H1987.72C1980.21 370.844 1974.12 376.934 1974.12 384.447V480.521C1974.12 488.034 1980.21 494.125 1987.72 494.125H2083.79C2091.31 494.125 2097.4 488.034 2097.4 480.521V384.447C2097.4 376.934 2091.31 370.844 2083.79 370.844Z" stroke="#595959" stroke-width="1.27532"/>
<path d="M2207.08 370.844H2111.01C2103.5 370.844 2097.41 376.934 2097.41 384.447V480.521C2097.41 488.034 2103.5 494.125 2111.01 494.125H2207.08C2214.6 494.125 2220.69 488.034 2220.69 480.521V384.447C2220.69 376.934 2214.6 370.844 2207.08 370.844Z" stroke="#595959" stroke-width="1.27532"/>
<path d="M1590.68 494.125H1494.6C1487.09 494.125 1481 500.215 1481 507.728V603.803C1481 611.316 1487.09 617.406 1494.6 617.406H1590.68C1598.19 617.406 1604.28 611.316 1604.28 603.803V507.728C1604.28 500.215 1598.19 494.125 1590.68 494.125Z" stroke="#595959" stroke-width="1.27532"/>
<path d="M1713.96 494.125H1617.88C1610.37 494.125 1604.28 500.215 1604.28 507.728V603.803C1604.28 611.316 1610.37 617.406 1617.88 617.406H1713.96C1721.47 617.406 1727.56 611.316 1727.56 603.803V507.728C1727.56 500.215 1721.47 494.125 1713.96 494.125Z" stroke="#595959" stroke-width="1.27532"/>
<path d="M1837.24 494.125H1741.17C1733.65 494.125 1727.56 500.215 1727.56 507.728V603.803C1727.56 611.316 1733.65 617.406 1741.17 617.406H1837.24C1844.75 617.406 1850.84 611.316 1850.84 603.803V507.728C1850.84 500.215 1844.75 494.125 1837.24 494.125Z" stroke="#595959" stroke-width="1.27532"/>
<path d="M1960.52 494.125H1864.45C1856.93 494.125 1850.84 500.215 1850.84 507.728V603.803C1850.84 611.316 1856.93 617.406 1864.45 617.406H1960.52C1968.03 617.406 1974.12 611.316 1974.12 603.803V507.728C1974.12 500.215 1968.03 494.125 1960.52 494.125Z" stroke="#595959" stroke-width="1.27532"/>
<path d="M2083.79 494.125H1987.72C1980.21 494.125 1974.12 500.215 1974.12 507.728V603.803C1974.12 611.316 1980.21 617.406 1987.72 617.406H2083.79C2091.31 617.406 2097.4 611.316 2097.4 603.803V507.728C2097.4 500.215 2091.31 494.125 2083.79 494.125Z" stroke="#595959" stroke-width="1.27532"/>
<path d="M2207.08 494.125H2111.01C2103.5 494.125 2097.41 500.215 2097.41 507.728V603.803C2097.41 611.316 2103.5 617.406 2111.01 617.406H2207.08C2214.6 617.406 2220.69 611.316 2220.69 603.803V507.728C2220.69 500.215 2214.6 494.125 2207.08 494.125Z" stroke="#595959" stroke-width="1.27532"/>
<path d="M850.678 617H754.603C747.09 617 741 623.09 741 630.603V726.678C741 734.191 747.09 740.281 754.603 740.281H850.678C858.191 740.281 864.281 734.191 864.281 726.678V630.603C864.281 623.09 858.191 617 850.678 617Z" stroke="#595959" stroke-width="1.27532"/>
<path d="M973.959 617H877.885C870.372 617 864.281 623.09 864.281 630.603V726.678C864.281 734.191 870.372 740.281 877.885 740.281H973.959C981.472 740.281 987.562 734.191 987.562 726.678V630.603C987.562 623.09 981.472 617 973.959 617Z" stroke="#595959" stroke-width="1.27532"/>
<path d="M1097.24 617H1001.17C993.653 617 987.562 623.09 987.562 630.603V726.678C987.562 734.191 993.653 740.281 1001.17 740.281H1097.24C1104.75 740.281 1110.84 734.191 1110.84 726.678V630.603C1110.84 623.09 1104.75 617 1097.24 617Z" stroke="#595959" stroke-width="1.27532"/>
<path d="M1220.52 617H1124.45C1116.93 617 1110.84 623.09 1110.84 630.603V726.678C1110.84 734.191 1116.93 740.281 1124.45 740.281H1220.52C1228.03 740.281 1234.12 734.191 1234.12 726.678V630.603C1234.12 623.09 1228.03 617 1220.52 617Z" stroke="#595959" stroke-width="1.27532"/>
<path d="M1343.79 617H1247.72C1240.21 617 1234.12 623.09 1234.12 630.603V726.678C1234.12 734.191 1240.21 740.281 1247.72 740.281H1343.79C1351.31 740.281 1357.4 734.191 1357.4 726.678V630.603C1357.4 623.09 1351.31 617 1343.79 617Z" stroke="#595959" stroke-width="1.27532"/>
<path d="M1467.08 617H1371.01C1363.5 617 1357.41 623.09 1357.41 630.603V726.678C1357.41 734.191 1363.5 740.281 1371.01 740.281H1467.08C1474.6 740.281 1480.69 734.191 1480.69 726.678V630.603C1480.69 623.09 1474.6 617 1467.08 617Z" stroke="#595959" stroke-width="1.27532"/>
<path d="M850.678 740.281H754.603C747.09 740.281 741 746.372 741 753.885V849.959C741 857.472 747.09 863.562 754.603 863.562H850.678C858.191 863.562 864.281 857.472 864.281 849.959V753.885C864.281 746.372 858.191 740.281 850.678 740.281Z" stroke="#595959" stroke-width="1.27532"/>
<path d="M973.959 740.281H877.885C870.372 740.281 864.281 746.372 864.281 753.885V849.959C864.281 857.472 870.372 863.562 877.885 863.562H973.959C981.472 863.562 987.562 857.472 987.562 849.959V753.885C987.562 746.372 981.472 740.281 973.959 740.281Z" stroke="#595959" stroke-width="1.27532"/>
<path d="M1097.24 740.281H1001.17C993.653 740.281 987.562 746.372 987.562 753.885V849.959C987.562 857.472 993.653 863.562 1001.17 863.562H1097.24C1104.75 863.562 1110.84 857.472 1110.84 849.959V753.885C1110.84 746.372 1104.75 740.281 1097.24 740.281Z" stroke="#595959" stroke-width="1.27532"/>
<path d="M1220.52 740.281H1124.45C1116.93 740.281 1110.84 746.372 1110.84 753.885V849.959C1110.84 857.472 1116.93 863.562 1124.45 863.562H1220.52C1228.03 863.562 1234.12 857.472 1234.12 849.959V753.885C1234.12 746.372 1228.03 740.281 1220.52 740.281Z" stroke="#595959" stroke-width="1.27532"/>
<path d="M1343.79 740.281H1247.72C1240.21 740.281 1234.12 746.372 1234.12 753.885V849.959C1234.12 857.472 1240.21 863.562 1247.72 863.562H1343.79C1351.31 863.562 1357.4 857.472 1357.4 849.959V753.885C1357.4 746.372 1351.31 740.281 1343.79 740.281Z" stroke="#595959" stroke-width="1.27532"/>
<path d="M1467.08 740.281H1371.01C1363.5 740.281 1357.41 746.372 1357.41 753.885V849.959C1357.41 857.472 1363.5 863.562 1371.01 863.562H1467.08C1474.6 863.562 1480.69 857.472 1480.69 849.959V753.885C1480.69 746.372 1474.6 740.281 1467.08 740.281Z" stroke="#595959" stroke-width="1.27532"/>
<path d="M850.678 863.562H754.603C747.09 863.562 741 869.653 741 877.166V973.24C741 980.753 747.09 986.844 754.603 986.844H850.678C858.191 986.844 864.281 980.753 864.281 973.24V877.166C864.281 869.653 858.191 863.562 850.678 863.562Z" stroke="#595959" stroke-width="1.27532"/>
<path d="M973.959 863.562H877.885C870.372 863.562 864.281 869.653 864.281 877.166V973.24C864.281 980.753 870.372 986.844 877.885 986.844H973.959C981.472 986.844 987.562 980.753 987.562 973.24V877.166C987.562 869.653 981.472 863.562 973.959 863.562Z" stroke="#595959" stroke-width="1.27532"/>
<path d="M1097.24 863.562H1001.17C993.653 863.562 987.562 869.653 987.562 877.166V973.24C987.562 980.753 993.653 986.844 1001.17 986.844H1097.24C1104.75 986.844 1110.84 980.753 1110.84 973.24V877.166C1110.84 869.653 1104.75 863.562 1097.24 863.562Z" stroke="#595959" stroke-width="1.27532"/>
<path d="M1220.52 863.562H1124.45C1116.93 863.562 1110.84 869.653 1110.84 877.166V973.24C1110.84 980.753 1116.93 986.844 1124.45 986.844H1220.52C1228.03 986.844 1234.12 980.753 1234.12 973.24V877.166C1234.12 869.653 1228.03 863.562 1220.52 863.562Z" stroke="#595959" stroke-width="1.27532"/>
<path d="M1343.79 863.562H1247.72C1240.21 863.562 1234.12 869.653 1234.12 877.166V973.24C1234.12 980.753 1240.21 986.844 1247.72 986.844H1343.79C1351.31 986.844 1357.4 980.753 1357.4 973.24V877.166C1357.4 869.653 1351.31 863.562 1343.79 863.562Z" stroke="#595959" stroke-width="1.27532"/>
<path d="M1467.08 863.562H1371.01C1363.5 863.562 1357.41 869.653 1357.41 877.166V973.24C1357.41 980.753 1363.5 986.844 1371.01 986.844H1467.08C1474.6 986.844 1480.69 980.753 1480.69 973.24V877.166C1480.69 869.653 1474.6 863.562 1467.08 863.562Z" stroke="#595959" stroke-width="1.27532"/>
<path d="M850.678 986.844H754.603C747.09 986.844 741 992.934 741 1000.45V1096.52C741 1104.03 747.09 1110.12 754.603 1110.12H850.678C858.191 1110.12 864.281 1104.03 864.281 1096.52V1000.45C864.281 992.934 858.191 986.844 850.678 986.844Z" stroke="#595959" stroke-width="1.27532"/>
<path d="M973.959 986.844H877.885C870.372 986.844 864.281 992.934 864.281 1000.45V1096.52C864.281 1104.03 870.372 1110.12 877.885 1110.12H973.959C981.472 1110.12 987.562 1104.03 987.562 1096.52V1000.45C987.562 992.934 981.472 986.844 973.959 986.844Z" stroke="#595959" stroke-width="1.27532"/>
<path d="M1097.24 986.844H1001.17C993.653 986.844 987.562 992.934 987.562 1000.45V1096.52C987.562 1104.03 993.653 1110.12 1001.17 1110.12H1097.24C1104.75 1110.12 1110.84 1104.03 1110.84 1096.52V1000.45C1110.84 992.934 1104.75 986.844 1097.24 986.844Z" stroke="#595959" stroke-width="1.27532"/>
<path d="M1220.52 986.844H1124.45C1116.93 986.844 1110.84 992.934 1110.84 1000.45V1096.52C1110.84 1104.03 1116.93 1110.12 1124.45 1110.12H1220.52C1228.03 1110.12 1234.12 1104.03 1234.12 1096.52V1000.45C1234.12 992.934 1228.03 986.844 1220.52 986.844Z" stroke="#595959" stroke-width="1.27532"/>
<path d="M1343.79 986.844H1247.72C1240.21 986.844 1234.12 992.934 1234.12 1000.45V1096.52C1234.12 1104.03 1240.21 1110.12 1247.72 1110.12H1343.79C1351.31 1110.12 1357.4 1104.03 1357.4 1096.52V1000.45C1357.4 992.934 1351.31 986.844 1343.79 986.844Z" stroke="#595959" stroke-width="1.27532"/>
<path d="M1467.08 986.844H1371.01C1363.5 986.844 1357.41 992.934 1357.41 1000.45V1096.52C1357.41 1104.03 1363.5 1110.12 1371.01 1110.12H1467.08C1474.6 1110.12 1480.69 1104.03 1480.69 1096.52V1000.45C1480.69 992.934 1474.6 986.844 1467.08 986.844Z" stroke="#595959" stroke-width="1.27532"/>
<path d="M850.678 1110.12H754.603C747.09 1110.12 741 1116.21 741 1123.72V1219.8C741 1227.31 747.09 1233.4 754.603 1233.4H850.678C858.191 1233.4 864.281 1227.31 864.281 1219.8V1123.72C864.281 1116.21 858.191 1110.12 850.678 1110.12Z" stroke="#595959" stroke-width="1.27532"/>
<path d="M973.959 1110.12H877.885C870.372 1110.12 864.281 1116.21 864.281 1123.72V1219.8C864.281 1227.31 870.372 1233.4 877.885 1233.4H973.959C981.472 1233.4 987.562 1227.31 987.562 1219.8V1123.72C987.562 1116.21 981.472 1110.12 973.959 1110.12Z" stroke="#595959" stroke-width="1.27532"/>
<path d="M1097.24 1110.12H1001.17C993.653 1110.12 987.562 1116.21 987.562 1123.72V1219.8C987.562 1227.31 993.653 1233.4 1001.17 1233.4H1097.24C1104.75 1233.4 1110.84 1227.31 1110.84 1219.8V1123.72C1110.84 1116.21 1104.75 1110.12 1097.24 1110.12Z" stroke="#595959" stroke-width="1.27532"/>
<path d="M1220.52 1110.12H1124.45C1116.93 1110.12 1110.84 1116.21 1110.84 1123.72V1219.8C1110.84 1227.31 1116.93 1233.4 1124.45 1233.4H1220.52C1228.03 1233.4 1234.12 1227.31 1234.12 1219.8V1123.72C1234.12 1116.21 1228.03 1110.12 1220.52 1110.12Z" stroke="#595959" stroke-width="1.27532"/>
<path d="M1343.79 1110.12H1247.72C1240.21 1110.12 1234.12 1116.21 1234.12 1123.72V1219.8C1234.12 1227.31 1240.21 1233.4 1247.72 1233.4H1343.79C1351.31 1233.4 1357.4 1227.31 1357.4 1219.8V1123.72C1357.4 1116.21 1351.31 1110.12 1343.79 1110.12Z" stroke="#595959" stroke-width="1.27532"/>
<path d="M1467.08 1110.12H1371.01C1363.5 1110.12 1357.41 1116.21 1357.41 1123.72V1219.8C1357.41 1227.31 1363.5 1233.4 1371.01 1233.4H1467.08C1474.6 1233.4 1480.69 1227.31 1480.69 1219.8V1123.72C1480.69 1116.21 1474.6 1110.12 1467.08 1110.12Z" stroke="#595959" stroke-width="1.27532"/>
<path d="M850.678 1H754.603C747.09 1 741 7.09045 741 14.6034V110.678C741 118.191 747.09 124.281 754.603 124.281H850.678C858.191 124.281 864.281 118.191 864.281 110.678V14.6034C864.281 7.09045 858.191 1 850.678 1Z" stroke="#595959" stroke-width="1.27532"/>
<path d="M973.959 1H877.885C870.372 1 864.281 7.09045 864.281 14.6034V110.678C864.281 118.191 870.372 124.281 877.885 124.281H973.959C981.472 124.281 987.562 118.191 987.562 110.678V14.6034C987.562 7.09045 981.472 1 973.959 1Z" stroke="#595959" stroke-width="1.27532"/>
<path d="M1097.24 1H1001.17C993.653 1 987.562 7.09045 987.562 14.6034V110.678C987.562 118.191 993.653 124.281 1001.17 124.281H1097.24C1104.75 124.281 1110.84 118.191 1110.84 110.678V14.6034C1110.84 7.09045 1104.75 1 1097.24 1Z" stroke="#595959" stroke-width="1.27532"/>
<path d="M1220.52 1H1124.45C1116.93 1 1110.84 7.09045 1110.84 14.6034V110.678C1110.84 118.191 1116.93 124.281 1124.45 124.281H1220.52C1228.03 124.281 1234.12 118.191 1234.12 110.678V14.6034C1234.12 7.09045 1228.03 1 1220.52 1Z" stroke="#595959" stroke-width="1.27532"/>
<path d="M1343.79 1H1247.72C1240.21 1 1234.12 7.09045 1234.12 14.6034V110.678C1234.12 118.191 1240.21 124.281 1247.72 124.281H1343.79C1351.31 124.281 1357.4 118.191 1357.4 110.678V14.6034C1357.4 7.09045 1351.31 1 1343.79 1Z" stroke="#595959" stroke-width="1.27532"/>
<path d="M1467.08 1H1371.01C1363.5 1 1357.41 7.09045 1357.41 14.6034V110.678C1357.41 118.191 1363.5 124.281 1371.01 124.281H1467.08C1474.6 124.281 1480.69 118.191 1480.69 110.678V14.6034C1480.69 7.09045 1474.6 1 1467.08 1Z" stroke="#595959" stroke-width="1.27532"/>
<path d="M850.678 124.281H754.603C747.09 124.281 741 130.372 741 137.885V233.959C741 241.472 747.09 247.562 754.603 247.562H850.678C858.191 247.562 864.281 241.472 864.281 233.959V137.885C864.281 130.372 858.191 124.281 850.678 124.281Z" stroke="#595959" stroke-width="1.27532"/>
<path d="M973.959 124.281H877.885C870.372 124.281 864.281 130.372 864.281 137.885V233.959C864.281 241.472 870.372 247.562 877.885 247.562H973.959C981.472 247.562 987.562 241.472 987.562 233.959V137.885C987.562 130.372 981.472 124.281 973.959 124.281Z" stroke="#595959" stroke-width="1.27532"/>
<path d="M1097.24 124.281H1001.17C993.653 124.281 987.562 130.372 987.562 137.885V233.959C987.562 241.472 993.653 247.562 1001.17 247.562H1097.24C1104.75 247.562 1110.84 241.472 1110.84 233.959V137.885C1110.84 130.372 1104.75 124.281 1097.24 124.281Z" stroke="#595959" stroke-width="1.27532"/>
<path d="M1220.52 124.281H1124.45C1116.93 124.281 1110.84 130.372 1110.84 137.885V233.959C1110.84 241.472 1116.93 247.562 1124.45 247.562H1220.52C1228.03 247.562 1234.12 241.472 1234.12 233.959V137.885C1234.12 130.372 1228.03 124.281 1220.52 124.281Z" stroke="#595959" stroke-width="1.27532"/>
<path d="M1343.79 124.281H1247.72C1240.21 124.281 1234.12 130.372 1234.12 137.885V233.959C1234.12 241.472 1240.21 247.562 1247.72 247.562H1343.79C1351.31 247.562 1357.4 241.472 1357.4 233.959V137.885C1357.4 130.372 1351.31 124.281 1343.79 124.281Z" stroke="#595959" stroke-width="1.27532"/>
<path d="M1467.08 124.281H1371.01C1363.5 124.281 1357.41 130.372 1357.41 137.885V233.959C1357.41 241.472 1363.5 247.562 1371.01 247.562H1467.08C1474.6 247.562 1480.69 241.472 1480.69 233.959V137.885C1480.69 130.372 1474.6 124.281 1467.08 124.281Z" stroke="#595959" stroke-width="1.27532"/>
<path d="M850.678 247.562H754.603C747.09 247.562 741 253.653 741 261.166V357.24C741 364.753 747.09 370.843 754.603 370.843H850.678C858.191 370.843 864.281 364.753 864.281 357.24V261.166C864.281 253.653 858.191 247.562 850.678 247.562Z" stroke="#595959" stroke-width="1.27532"/>
<path d="M973.959 247.562H877.885C870.372 247.562 864.281 253.653 864.281 261.166V357.24C864.281 364.753 870.372 370.843 877.885 370.843H973.959C981.472 370.843 987.562 364.753 987.562 357.24V261.166C987.562 253.653 981.472 247.562 973.959 247.562Z" stroke="#595959" stroke-width="1.27532"/>
<path d="M1097.24 247.562H1001.17C993.653 247.562 987.562 253.653 987.562 261.166V357.24C987.562 364.753 993.653 370.843 1001.17 370.843H1097.24C1104.75 370.843 1110.84 364.753 1110.84 357.24V261.166C1110.84 253.653 1104.75 247.562 1097.24 247.562Z" stroke="#595959" stroke-width="1.27532"/>
<path d="M1220.52 247.562H1124.45C1116.93 247.562 1110.84 253.653 1110.84 261.166V357.24C1110.84 364.753 1116.93 370.843 1124.45 370.843H1220.52C1228.03 370.843 1234.12 364.753 1234.12 357.24V261.166C1234.12 253.653 1228.03 247.562 1220.52 247.562Z" stroke="#595959" stroke-width="1.27532"/>
<path d="M1343.79 247.562H1247.72C1240.21 247.562 1234.12 253.653 1234.12 261.166V357.24C1234.12 364.753 1240.21 370.843 1247.72 370.843H1343.79C1351.31 370.843 1357.4 364.753 1357.4 357.24V261.166C1357.4 253.653 1351.31 247.562 1343.79 247.562Z" stroke="#595959" stroke-width="1.27532"/>
<path d="M1467.08 247.562H1371.01C1363.5 247.562 1357.41 253.653 1357.41 261.166V357.24C1357.41 364.753 1363.5 370.843 1371.01 370.843H1467.08C1474.6 370.843 1480.69 364.753 1480.69 357.24V261.166C1480.69 253.653 1474.6 247.562 1467.08 247.562Z" stroke="#595959" stroke-width="1.27532"/>
<path d="M850.678 370.844H754.603C747.09 370.844 741 376.934 741 384.447V480.521C741 488.034 747.09 494.125 754.603 494.125H850.678C858.191 494.125 864.281 488.034 864.281 480.521V384.447C864.281 376.934 858.191 370.844 850.678 370.844Z" stroke="#595959" stroke-width="1.27532"/>
<path d="M973.959 370.844H877.885C870.372 370.844 864.281 376.934 864.281 384.447V480.521C864.281 488.034 870.372 494.125 877.885 494.125H973.959C981.472 494.125 987.562 488.034 987.562 480.521V384.447C987.562 376.934 981.472 370.844 973.959 370.844Z" stroke="#595959" stroke-width="1.27532"/>
<path d="M1097.24 370.844H1001.17C993.653 370.844 987.562 376.934 987.562 384.447V480.521C987.562 488.034 993.653 494.125 1001.17 494.125H1097.24C1104.75 494.125 1110.84 488.034 1110.84 480.521V384.447C1110.84 376.934 1104.75 370.844 1097.24 370.844Z" stroke="#595959" stroke-width="1.27532"/>
<path d="M1220.52 370.844H1124.45C1116.93 370.844 1110.84 376.934 1110.84 384.447V480.521C1110.84 488.034 1116.93 494.125 1124.45 494.125H1220.52C1228.03 494.125 1234.12 488.034 1234.12 480.521V384.447C1234.12 376.934 1228.03 370.844 1220.52 370.844Z" stroke="#595959" stroke-width="1.27532"/>
<path d="M1343.79 370.844H1247.72C1240.21 370.844 1234.12 376.934 1234.12 384.447V480.521C1234.12 488.034 1240.21 494.125 1247.72 494.125H1343.79C1351.31 494.125 1357.4 488.034 1357.4 480.521V384.447C1357.4 376.934 1351.31 370.844 1343.79 370.844Z" stroke="#595959" stroke-width="1.27532"/>
<path d="M1467.08 370.844H1371.01C1363.5 370.844 1357.41 376.934 1357.41 384.447V480.521C1357.41 488.034 1363.5 494.125 1371.01 494.125H1467.08C1474.6 494.125 1480.69 488.034 1480.69 480.521V384.447C1480.69 376.934 1474.6 370.844 1467.08 370.844Z" stroke="#595959" stroke-width="1.27532"/>
<path d="M850.678 494.125H754.603C747.09 494.125 741 500.215 741 507.728V603.803C741 611.316 747.09 617.406 754.603 617.406H850.678C858.191 617.406 864.281 611.316 864.281 603.803V507.728C864.281 500.215 858.191 494.125 850.678 494.125Z" stroke="#595959" stroke-width="1.27532"/>
<path d="M973.959 494.125H877.885C870.372 494.125 864.281 500.215 864.281 507.728V603.803C864.281 611.316 870.372 617.406 877.885 617.406H973.959C981.472 617.406 987.562 611.316 987.562 603.803V507.728C987.562 500.215 981.472 494.125 973.959 494.125Z" stroke="#595959" stroke-width="1.27532"/>
<path d="M1097.24 494.125H1001.17C993.653 494.125 987.562 500.215 987.562 507.728V603.803C987.562 611.316 993.653 617.406 1001.17 617.406H1097.24C1104.75 617.406 1110.84 611.316 1110.84 603.803V507.728C1110.84 500.215 1104.75 494.125 1097.24 494.125Z" stroke="#595959" stroke-width="1.27532"/>
<path d="M1220.52 494.125H1124.45C1116.93 494.125 1110.84 500.215 1110.84 507.728V603.803C1110.84 611.316 1116.93 617.406 1124.45 617.406H1220.52C1228.03 617.406 1234.12 611.316 1234.12 603.803V507.728C1234.12 500.215 1228.03 494.125 1220.52 494.125Z" stroke="#595959" stroke-width="1.27532"/>
<path d="M1343.79 494.125H1247.72C1240.21 494.125 1234.12 500.215 1234.12 507.728V603.803C1234.12 611.316 1240.21 617.406 1247.72 617.406H1343.79C1351.31 617.406 1357.4 611.316 1357.4 603.803V507.728C1357.4 500.215 1351.31 494.125 1343.79 494.125Z" stroke="#595959" stroke-width="1.27532"/>
<path d="M1467.08 494.125H1371.01C1363.5 494.125 1357.41 500.215 1357.41 507.728V603.803C1357.41 611.316 1363.5 617.406 1371.01 617.406H1467.08C1474.6 617.406 1480.69 611.316 1480.69 603.803V507.728C1480.69 500.215 1474.6 494.125 1467.08 494.125Z" stroke="#595959" stroke-width="1.27532"/>
<path d="M110.678 617H14.6034C7.09045 617 1 623.09 1 630.603V726.678C1 734.191 7.09045 740.281 14.6034 740.281H110.678C118.191 740.281 124.281 734.191 124.281 726.678V630.603C124.281 623.09 118.191 617 110.678 617Z" stroke="#595959" stroke-width="1.27532"/>
<path d="M233.959 617H137.885C130.372 617 124.281 623.09 124.281 630.603V726.678C124.281 734.191 130.372 740.281 137.885 740.281H233.959C241.472 740.281 247.562 734.191 247.562 726.678V630.603C247.562 623.09 241.472 617 233.959 617Z" stroke="#595959" stroke-width="1.27532"/>
<path d="M357.24 617H261.166C253.653 617 247.562 623.09 247.562 630.603V726.678C247.562 734.191 253.653 740.281 261.166 740.281H357.24C364.753 740.281 370.843 734.191 370.843 726.678V630.603C370.843 623.09 364.753 617 357.24 617Z" stroke="#595959" stroke-width="1.27532"/>
<path d="M480.521 617H384.447C376.934 617 370.844 623.09 370.844 630.603V726.678C370.844 734.191 376.934 740.281 384.447 740.281H480.521C488.034 740.281 494.125 734.191 494.125 726.678V630.603C494.125 623.09 488.034 617 480.521 617Z" stroke="#595959" stroke-width="1.27532"/>
<path d="M603.803 617H507.728C500.215 617 494.125 623.09 494.125 630.603V726.678C494.125 734.191 500.215 740.281 507.728 740.281H603.803C611.316 740.281 617.406 734.191 617.406 726.678V630.603C617.406 623.09 611.316 617 603.803 617Z" stroke="#595959" stroke-width="1.27532"/>
<path d="M727.084 617H631.01C623.497 617 617.406 623.09 617.406 630.603V726.678C617.406 734.191 623.497 740.281 631.01 740.281H727.084C734.597 740.281 740.687 734.191 740.687 726.678V630.603C740.687 623.09 734.597 617 727.084 617Z" stroke="#595959" stroke-width="1.27532"/>
<path d="M110.678 740.281H14.6034C7.09045 740.281 1 746.372 1 753.885V849.959C1 857.472 7.09045 863.562 14.6034 863.562H110.678C118.191 863.562 124.281 857.472 124.281 849.959V753.885C124.281 746.372 118.191 740.281 110.678 740.281Z" stroke="#595959" stroke-width="1.27532"/>
<path d="M233.959 740.281H137.885C130.372 740.281 124.281 746.372 124.281 753.885V849.959C124.281 857.472 130.372 863.562 137.885 863.562H233.959C241.472 863.562 247.562 857.472 247.562 849.959V753.885C247.562 746.372 241.472 740.281 233.959 740.281Z" stroke="#595959" stroke-width="1.27532"/>
<path d="M357.24 740.281H261.166C253.653 740.281 247.562 746.372 247.562 753.885V849.959C247.562 857.472 253.653 863.562 261.166 863.562H357.24C364.753 863.562 370.843 857.472 370.843 849.959V753.885C370.843 746.372 364.753 740.281 357.24 740.281Z" stroke="#595959" stroke-width="1.27532"/>
<path d="M480.521 740.281H384.447C376.934 740.281 370.844 746.372 370.844 753.885V849.959C370.844 857.472 376.934 863.562 384.447 863.562H480.521C488.034 863.562 494.125 857.472 494.125 849.959V753.885C494.125 746.372 488.034 740.281 480.521 740.281Z" stroke="#595959" stroke-width="1.27532"/>
<path d="M603.803 740.281H507.728C500.215 740.281 494.125 746.372 494.125 753.885V849.959C494.125 857.472 500.215 863.562 507.728 863.562H603.803C611.316 863.562 617.406 857.472 617.406 849.959V753.885C617.406 746.372 611.316 740.281 603.803 740.281Z" stroke="#595959" stroke-width="1.27532"/>
<path d="M727.084 740.281H631.01C623.497 740.281 617.406 746.372 617.406 753.885V849.959C617.406 857.472 623.497 863.562 631.01 863.562H727.084C734.597 863.562 740.687 857.472 740.687 849.959V753.885C740.687 746.372 734.597 740.281 727.084 740.281Z" stroke="#595959" stroke-width="1.27532"/>
<path d="M110.678 863.562H14.6034C7.09045 863.562 1 869.653 1 877.166V973.24C1 980.753 7.09045 986.844 14.6034 986.844H110.678C118.191 986.844 124.281 980.753 124.281 973.24V877.166C124.281 869.653 118.191 863.562 110.678 863.562Z" stroke="#595959" stroke-width="1.27532"/>
<path d="M233.959 863.562H137.885C130.372 863.562 124.281 869.653 124.281 877.166V973.24C124.281 980.753 130.372 986.844 137.885 986.844H233.959C241.472 986.844 247.562 980.753 247.562 973.24V877.166C247.562 869.653 241.472 863.562 233.959 863.562Z" stroke="#595959" stroke-width="1.27532"/>
<path d="M357.24 863.562H261.166C253.653 863.562 247.562 869.653 247.562 877.166V973.24C247.562 980.753 253.653 986.844 261.166 986.844H357.24C364.753 986.844 370.843 980.753 370.843 973.24V877.166C370.843 869.653 364.753 863.562 357.24 863.562Z" stroke="#595959" stroke-width="1.27532"/>
<path d="M480.521 863.562H384.447C376.934 863.562 370.844 869.653 370.844 877.166V973.24C370.844 980.753 376.934 986.844 384.447 986.844H480.521C488.034 986.844 494.125 980.753 494.125 973.24V877.166C494.125 869.653 488.034 863.562 480.521 863.562Z" stroke="#595959" stroke-width="1.27532"/>
<path d="M603.803 863.562H507.728C500.215 863.562 494.125 869.653 494.125 877.166V973.24C494.125 980.753 500.215 986.844 507.728 986.844H603.803C611.316 986.844 617.406 980.753 617.406 973.24V877.166C617.406 869.653 611.316 863.562 603.803 863.562Z" stroke="#595959" stroke-width="1.27532"/>
<path d="M727.084 863.562H631.01C623.497 863.562 617.406 869.653 617.406 877.166V973.24C617.406 980.753 623.497 986.844 631.01 986.844H727.084C734.597 986.844 740.687 980.753 740.687 973.24V877.166C740.687 869.653 734.597 863.562 727.084 863.562Z" stroke="#595959" stroke-width="1.27532"/>
<path d="M110.678 986.844H14.6034C7.09045 986.844 1 992.934 1 1000.45V1096.52C1 1104.03 7.09045 1110.12 14.6034 1110.12H110.678C118.191 1110.12 124.281 1104.03 124.281 1096.52V1000.45C124.281 992.934 118.191 986.844 110.678 986.844Z" stroke="#595959" stroke-width="1.27532"/>
<path d="M233.959 986.844H137.885C130.372 986.844 124.281 992.934 124.281 1000.45V1096.52C124.281 1104.03 130.372 1110.12 137.885 1110.12H233.959C241.472 1110.12 247.562 1104.03 247.562 1096.52V1000.45C247.562 992.934 241.472 986.844 233.959 986.844Z" stroke="#595959" stroke-width="1.27532"/>
<path d="M357.24 986.844H261.166C253.653 986.844 247.562 992.934 247.562 1000.45V1096.52C247.562 1104.03 253.653 1110.12 261.166 1110.12H357.24C364.753 1110.12 370.843 1104.03 370.843 1096.52V1000.45C370.843 992.934 364.753 986.844 357.24 986.844Z" stroke="#595959" stroke-width="1.27532"/>
<path d="M480.521 986.844H384.447C376.934 986.844 370.844 992.934 370.844 1000.45V1096.52C370.844 1104.03 376.934 1110.12 384.447 1110.12H480.521C488.034 1110.12 494.125 1104.03 494.125 1096.52V1000.45C494.125 992.934 488.034 986.844 480.521 986.844Z" stroke="#595959" stroke-width="1.27532"/>
<path d="M603.803 986.844H507.728C500.215 986.844 494.125 992.934 494.125 1000.45V1096.52C494.125 1104.03 500.215 1110.12 507.728 1110.12H603.803C611.316 1110.12 617.406 1104.03 617.406 1096.52V1000.45C617.406 992.934 611.316 986.844 603.803 986.844Z" stroke="#595959" stroke-width="1.27532"/>
<path d="M727.084 986.844H631.01C623.497 986.844 617.406 992.934 617.406 1000.45V1096.52C617.406 1104.03 623.497 1110.12 631.01 1110.12H727.084C734.597 1110.12 740.687 1104.03 740.687 1096.52V1000.45C740.687 992.934 734.597 986.844 727.084 986.844Z" stroke="#595959" stroke-width="1.27532"/>
<path d="M110.678 1110.12H14.6034C7.09045 1110.12 1 1116.21 1 1123.72V1219.8C1 1227.31 7.09045 1233.4 14.6034 1233.4H110.678C118.191 1233.4 124.281 1227.31 124.281 1219.8V1123.72C124.281 1116.21 118.191 1110.12 110.678 1110.12Z" stroke="#595959" stroke-width="1.27532"/>
<path d="M233.959 1110.12H137.885C130.372 1110.12 124.281 1116.21 124.281 1123.72V1219.8C124.281 1227.31 130.372 1233.4 137.885 1233.4H233.959C241.472 1233.4 247.562 1227.31 247.562 1219.8V1123.72C247.562 1116.21 241.472 1110.12 233.959 1110.12Z" stroke="#595959" stroke-width="1.27532"/>
<path d="M357.24 1110.12H261.166C253.653 1110.12 247.562 1116.21 247.562 1123.72V1219.8C247.562 1227.31 253.653 1233.4 261.166 1233.4H357.24C364.753 1233.4 370.843 1227.31 370.843 1219.8V1123.72C370.843 1116.21 364.753 1110.12 357.24 1110.12Z" stroke="#595959" stroke-width="1.27532"/>
<path d="M480.521 1110.12H384.447C376.934 1110.12 370.844 1116.21 370.844 1123.72V1219.8C370.844 1227.31 376.934 1233.4 384.447 1233.4H480.521C488.034 1233.4 494.125 1227.31 494.125 1219.8V1123.72C494.125 1116.21 488.034 1110.12 480.521 1110.12Z" stroke="#595959" stroke-width="1.27532"/>
<path d="M603.803 1110.12H507.728C500.215 1110.12 494.125 1116.21 494.125 1123.72V1219.8C494.125 1227.31 500.215 1233.4 507.728 1233.4H603.803C611.316 1233.4 617.406 1227.31 617.406 1219.8V1123.72C617.406 1116.21 611.316 1110.12 603.803 1110.12Z" stroke="#595959" stroke-width="1.27532"/>
<path d="M727.084 1110.12H631.01C623.497 1110.12 617.406 1116.21 617.406 1123.72V1219.8C617.406 1227.31 623.497 1233.4 631.01 1233.4H727.084C734.597 1233.4 740.687 1227.31 740.687 1219.8V1123.72C740.687 1116.21 734.597 1110.12 727.084 1110.12Z" stroke="#595959" stroke-width="1.27532"/>
<path d="M110.678 1H14.6034C7.09045 1 1 7.09045 1 14.6034V110.678C1 118.191 7.09045 124.281 14.6034 124.281H110.678C118.191 124.281 124.281 118.191 124.281 110.678V14.6034C124.281 7.09045 118.191 1 110.678 1Z" stroke="#595959" stroke-width="1.27532"/>
<path d="M233.959 1H137.885C130.372 1 124.281 7.09045 124.281 14.6034V110.678C124.281 118.191 130.372 124.281 137.885 124.281H233.959C241.472 124.281 247.562 118.191 247.562 110.678V14.6034C247.562 7.09045 241.472 1 233.959 1Z" stroke="#595959" stroke-width="1.27532"/>
<path d="M357.24 1H261.166C253.653 1 247.562 7.09045 247.562 14.6034V110.678C247.562 118.191 253.653 124.281 261.166 124.281H357.24C364.753 124.281 370.843 118.191 370.843 110.678V14.6034C370.843 7.09045 364.753 1 357.24 1Z" stroke="#595959" stroke-width="1.27532"/>
<path d="M480.521 1H384.447C376.934 1 370.844 7.09045 370.844 14.6034V110.678C370.844 118.191 376.934 124.281 384.447 124.281H480.521C488.034 124.281 494.125 118.191 494.125 110.678V14.6034C494.125 7.09045 488.034 1 480.521 1Z" stroke="#595959" stroke-width="1.27532"/>
<path d="M603.803 1H507.728C500.215 1 494.125 7.09045 494.125 14.6034V110.678C494.125 118.191 500.215 124.281 507.728 124.281H603.803C611.316 124.281 617.406 118.191 617.406 110.678V14.6034C617.406 7.09045 611.316 1 603.803 1Z" stroke="#595959" stroke-width="1.27532"/>
<path d="M727.084 1H631.01C623.497 1 617.406 7.09045 617.406 14.6034V110.678C617.406 118.191 623.497 124.281 631.01 124.281H727.084C734.597 124.281 740.687 118.191 740.687 110.678V14.6034C740.687 7.09045 734.597 1 727.084 1Z" stroke="#595959" stroke-width="1.27532"/>
<path d="M110.678 124.281H14.6034C7.09045 124.281 1 130.372 1 137.885V233.959C1 241.472 7.09045 247.562 14.6034 247.562H110.678C118.191 247.562 124.281 241.472 124.281 233.959V137.885C124.281 130.372 118.191 124.281 110.678 124.281Z" stroke="#595959" stroke-width="1.27532"/>
<path d="M233.959 124.281H137.885C130.372 124.281 124.281 130.372 124.281 137.885V233.959C124.281 241.472 130.372 247.562 137.885 247.562H233.959C241.472 247.562 247.562 241.472 247.562 233.959V137.885C247.562 130.372 241.472 124.281 233.959 124.281Z" stroke="#595959" stroke-width="1.27532"/>
<path d="M357.24 124.281H261.166C253.653 124.281 247.562 130.372 247.562 137.885V233.959C247.562 241.472 253.653 247.562 261.166 247.562H357.24C364.753 247.562 370.843 241.472 370.843 233.959V137.885C370.843 130.372 364.753 124.281 357.24 124.281Z" stroke="#595959" stroke-width="1.27532"/>
<path d="M480.521 124.281H384.447C376.934 124.281 370.844 130.372 370.844 137.885V233.959C370.844 241.472 376.934 247.562 384.447 247.562H480.521C488.034 247.562 494.125 241.472 494.125 233.959V137.885C494.125 130.372 488.034 124.281 480.521 124.281Z" stroke="#595959" stroke-width="1.27532"/>
<path d="M603.803 124.281H507.728C500.215 124.281 494.125 130.372 494.125 137.885V233.959C494.125 241.472 500.215 247.562 507.728 247.562H603.803C611.316 247.562 617.406 241.472 617.406 233.959V137.885C617.406 130.372 611.316 124.281 603.803 124.281Z" stroke="#595959" stroke-width="1.27532"/>
<path d="M727.084 124.281H631.01C623.497 124.281 617.406 130.372 617.406 137.885V233.959C617.406 241.472 623.497 247.562 631.01 247.562H727.084C734.597 247.562 740.687 241.472 740.687 233.959V137.885C740.687 130.372 734.597 124.281 727.084 124.281Z" stroke="#595959" stroke-width="1.27532"/>
<path d="M110.678 247.562H14.6034C7.09045 247.562 1 253.653 1 261.166V357.24C1 364.753 7.09045 370.843 14.6034 370.843H110.678C118.191 370.843 124.281 364.753 124.281 357.24V261.166C124.281 253.653 118.191 247.562 110.678 247.562Z" stroke="#595959" stroke-width="1.27532"/>
<path d="M233.959 247.562H137.885C130.372 247.562 124.281 253.653 124.281 261.166V357.24C124.281 364.753 130.372 370.843 137.885 370.843H233.959C241.472 370.843 247.562 364.753 247.562 357.24V261.166C247.562 253.653 241.472 247.562 233.959 247.562Z" stroke="#595959" stroke-width="1.27532"/>
<path d="M357.24 247.562H261.166C253.653 247.562 247.562 253.653 247.562 261.166V357.24C247.562 364.753 253.653 370.843 261.166 370.843H357.24C364.753 370.843 370.843 364.753 370.843 357.24V261.166C370.843 253.653 364.753 247.562 357.24 247.562Z" stroke="#595959" stroke-width="1.27532"/>
<path d="M480.521 247.562H384.447C376.934 247.562 370.844 253.653 370.844 261.166V357.24C370.844 364.753 376.934 370.843 384.447 370.843H480.521C488.034 370.843 494.125 364.753 494.125 357.24V261.166C494.125 253.653 488.034 247.562 480.521 247.562Z" stroke="#595959" stroke-width="1.27532"/>
<path d="M603.803 247.562H507.728C500.215 247.562 494.125 253.653 494.125 261.166V357.24C494.125 364.753 500.215 370.843 507.728 370.843H603.803C611.316 370.843 617.406 364.753 617.406 357.24V261.166C617.406 253.653 611.316 247.562 603.803 247.562Z" stroke="#595959" stroke-width="1.27532"/>
<path d="M727.084 247.562H631.01C623.497 247.562 617.406 253.653 617.406 261.166V357.24C617.406 364.753 623.497 370.843 631.01 370.843H727.084C734.597 370.843 740.687 364.753 740.687 357.24V261.166C740.687 253.653 734.597 247.562 727.084 247.562Z" stroke="#595959" stroke-width="1.27532"/>
<path d="M110.678 370.844H14.6034C7.09045 370.844 1 376.934 1 384.447V480.521C1 488.034 7.09045 494.125 14.6034 494.125H110.678C118.191 494.125 124.281 488.034 124.281 480.521V384.447C124.281 376.934 118.191 370.844 110.678 370.844Z" stroke="#595959" stroke-width="1.27532"/>
<path d="M233.959 370.844H137.885C130.372 370.844 124.281 376.934 124.281 384.447V480.521C124.281 488.034 130.372 494.125 137.885 494.125H233.959C241.472 494.125 247.562 488.034 247.562 480.521V384.447C247.562 376.934 241.472 370.844 233.959 370.844Z" stroke="#595959" stroke-width="1.27532"/>
<path d="M357.24 370.844H261.166C253.653 370.844 247.562 376.934 247.562 384.447V480.521C247.562 488.034 253.653 494.125 261.166 494.125H357.24C364.753 494.125 370.843 488.034 370.843 480.521V384.447C370.843 376.934 364.753 370.844 357.24 370.844Z" stroke="#595959" stroke-width="1.27532"/>
<path d="M480.521 370.844H384.447C376.934 370.844 370.844 376.934 370.844 384.447V480.521C370.844 488.034 376.934 494.125 384.447 494.125H480.521C488.034 494.125 494.125 488.034 494.125 480.521V384.447C494.125 376.934 488.034 370.844 480.521 370.844Z" stroke="#595959" stroke-width="1.27532"/>
<path d="M603.803 370.844H507.728C500.215 370.844 494.125 376.934 494.125 384.447V480.521C494.125 488.034 500.215 494.125 507.728 494.125H603.803C611.316 494.125 617.406 488.034 617.406 480.521V384.447C617.406 376.934 611.316 370.844 603.803 370.844Z" stroke="#595959" stroke-width="1.27532"/>
<path d="M727.084 370.844H631.01C623.497 370.844 617.406 376.934 617.406 384.447V480.521C617.406 488.034 623.497 494.125 631.01 494.125H727.084C734.597 494.125 740.687 488.034 740.687 480.521V384.447C740.687 376.934 734.597 370.844 727.084 370.844Z" stroke="#595959" stroke-width="1.27532"/>
<path d="M110.678 494.125H14.6034C7.09045 494.125 1 500.215 1 507.728V603.803C1 611.316 7.09045 617.406 14.6034 617.406H110.678C118.191 617.406 124.281 611.316 124.281 603.803V507.728C124.281 500.215 118.191 494.125 110.678 494.125Z" stroke="#595959" stroke-width="1.27532"/>
<path d="M233.959 494.125H137.885C130.372 494.125 124.281 500.215 124.281 507.728V603.803C124.281 611.316 130.372 617.406 137.885 617.406H233.959C241.472 617.406 247.562 611.316 247.562 603.803V507.728C247.562 500.215 241.472 494.125 233.959 494.125Z" stroke="#595959" stroke-width="1.27532"/>
<path d="M357.24 494.125H261.166C253.653 494.125 247.562 500.215 247.562 507.728V603.803C247.562 611.316 253.653 617.406 261.166 617.406H357.24C364.753 617.406 370.843 611.316 370.843 603.803V507.728C370.843 500.215 364.753 494.125 357.24 494.125Z" stroke="#595959" stroke-width="1.27532"/>
<path d="M480.521 494.125H384.447C376.934 494.125 370.844 500.215 370.844 507.728V603.803C370.844 611.316 376.934 617.406 384.447 617.406H480.521C488.034 617.406 494.125 611.316 494.125 603.803V507.728C494.125 500.215 488.034 494.125 480.521 494.125Z" stroke="#595959" stroke-width="1.27532"/>
<path d="M603.803 494.125H507.728C500.215 494.125 494.125 500.215 494.125 507.728V603.803C494.125 611.316 500.215 617.406 507.728 617.406H603.803C611.316 617.406 617.406 611.316 617.406 603.803V507.728C617.406 500.215 611.316 494.125 603.803 494.125Z" stroke="#595959" stroke-width="1.27532"/>
<path d="M727.084 494.125H631.01C623.497 494.125 617.406 500.215 617.406 507.728V603.803C617.406 611.316 623.497 617.406 631.01 617.406H727.084C734.597 617.406 740.687 611.316 740.687 603.803V507.728C740.687 500.215 734.597 494.125 727.084 494.125Z" stroke="#595959" stroke-width="1.27532"/>
</g>
<defs>
<linearGradient id="paint0_linear_541_9624" x1="1850.84" y1="627.203" x2="2443.44" y2="1360.51" gradientUnits="userSpaceOnUse">
<stop stop-color="#3170D7"/>
<stop offset="0.9375" stop-color="#78D2F8"/>
</linearGradient>
<clipPath id="clip0_541_9624">
<rect width="2458" height="1481" fill="white"/>
</clipPath>
</defs>
</svg>
