<svg width="1921" height="1305" viewBox="0 0 1921 1305" fill="none" xmlns="http://www.w3.org/2000/svg">
<g clip-path="url(#clip0_907_1451)">
<path d="M1299.68 562H1203.6C1196.09 562 1190 568.09 1190 575.603V671.678C1190 679.191 1196.09 685.281 1203.6 685.281H1299.68C1307.19 685.281 1313.28 679.191 1313.28 671.678V575.603C1313.28 568.09 1307.19 562 1299.68 562Z" stroke="url(#paint0_linear_907_1451)" stroke-width="1.27532"/>
<path d="M1422.96 562H1326.88C1319.37 562 1313.28 568.09 1313.28 575.603V671.678C1313.28 679.191 1319.37 685.281 1326.88 685.281H1422.96C1430.47 685.281 1436.56 679.191 1436.56 671.678V575.603C1436.56 568.09 1430.47 562 1422.96 562Z" stroke="url(#paint1_linear_907_1451)" stroke-width="1.27532"/>
<path d="M1546.24 562H1450.17C1442.65 562 1436.56 568.09 1436.56 575.603V671.678C1436.56 679.191 1442.65 685.281 1450.17 685.281H1546.24C1553.75 685.281 1559.84 679.191 1559.84 671.678V575.603C1559.84 568.09 1553.75 562 1546.24 562Z" stroke="url(#paint2_linear_907_1451)" stroke-width="1.27532"/>
<path d="M1669.52 562H1573.45C1565.93 562 1559.84 568.09 1559.84 575.603V671.678C1559.84 679.191 1565.93 685.281 1573.45 685.281H1669.52C1677.03 685.281 1683.12 679.191 1683.12 671.678V575.603C1683.12 568.09 1677.03 562 1669.52 562Z" stroke="url(#paint3_linear_907_1451)" stroke-width="1.27532"/>
<path d="M1792.79 562H1696.72C1689.21 562 1683.12 568.09 1683.12 575.603V671.678C1683.12 679.191 1689.21 685.281 1696.72 685.281H1792.79C1800.31 685.281 1806.4 679.191 1806.4 671.678V575.603C1806.4 568.09 1800.31 562 1792.79 562Z" stroke="url(#paint4_linear_907_1451)" stroke-width="1.27532"/>
<path d="M1916.08 562H1820.01C1812.5 562 1806.41 568.09 1806.41 575.603V671.678C1806.41 679.191 1812.5 685.281 1820.01 685.281H1916.08C1923.6 685.281 1929.69 679.191 1929.69 671.678V575.603C1929.69 568.09 1923.6 562 1916.08 562Z" stroke="url(#paint5_linear_907_1451)" stroke-width="1.27532"/>
<path d="M1299.68 685.281H1203.6C1196.09 685.281 1190 691.372 1190 698.885V794.959C1190 802.472 1196.09 808.562 1203.6 808.562H1299.68C1307.19 808.562 1313.28 802.472 1313.28 794.959V698.885C1313.28 691.372 1307.19 685.281 1299.68 685.281Z" stroke="url(#paint6_linear_907_1451)" stroke-width="1.27532"/>
<path d="M1422.96 685.281H1326.88C1319.37 685.281 1313.28 691.372 1313.28 698.885V794.959C1313.28 802.472 1319.37 808.562 1326.88 808.562H1422.96C1430.47 808.562 1436.56 802.472 1436.56 794.959V698.885C1436.56 691.372 1430.47 685.281 1422.96 685.281Z" stroke="url(#paint7_linear_907_1451)" stroke-width="1.27532"/>
<path d="M1546.24 685.281H1450.17C1442.65 685.281 1436.56 691.372 1436.56 698.885V794.959C1436.56 802.472 1442.65 808.562 1450.17 808.562H1546.24C1553.75 808.562 1559.84 802.472 1559.84 794.959V698.885C1559.84 691.372 1553.75 685.281 1546.24 685.281Z" stroke="url(#paint8_linear_907_1451)" stroke-width="1.27532"/>
<path d="M1669.52 685.281H1573.45C1565.93 685.281 1559.84 691.372 1559.84 698.885V794.959C1559.84 802.472 1565.93 808.562 1573.45 808.562H1669.52C1677.03 808.562 1683.12 802.472 1683.12 794.959V698.885C1683.12 691.372 1677.03 685.281 1669.52 685.281Z" stroke="url(#paint9_linear_907_1451)" stroke-width="1.27532"/>
<path d="M1792.79 685.281H1696.72C1689.21 685.281 1683.12 691.372 1683.12 698.885V794.959C1683.12 802.472 1689.21 808.562 1696.72 808.562H1792.79C1800.31 808.562 1806.4 802.472 1806.4 794.959V698.885C1806.4 691.372 1800.31 685.281 1792.79 685.281Z" stroke="url(#paint10_linear_907_1451)" stroke-width="1.27532"/>
<path d="M1916.08 685.281H1820.01C1812.5 685.281 1806.41 691.372 1806.41 698.885V794.959C1806.41 802.472 1812.5 808.562 1820.01 808.562H1916.08C1923.6 808.562 1929.69 802.472 1929.69 794.959V698.885C1929.69 691.372 1923.6 685.281 1916.08 685.281Z" stroke="url(#paint11_linear_907_1451)" stroke-width="1.27532"/>
<path d="M1299.68 808.562H1203.6C1196.09 808.562 1190 814.653 1190 822.166V918.24C1190 925.753 1196.09 931.844 1203.6 931.844H1299.68C1307.19 931.844 1313.28 925.753 1313.28 918.24V822.166C1313.28 814.653 1307.19 808.562 1299.68 808.562Z" stroke="url(#paint12_linear_907_1451)" stroke-width="1.27532"/>
<path d="M1422.96 808.562H1326.88C1319.37 808.562 1313.28 814.653 1313.28 822.166V918.24C1313.28 925.753 1319.37 931.844 1326.88 931.844H1422.96C1430.47 931.844 1436.56 925.753 1436.56 918.24V822.166C1436.56 814.653 1430.47 808.562 1422.96 808.562Z" stroke="url(#paint13_linear_907_1451)" stroke-width="1.27532"/>
<path d="M1546.24 808.562H1450.17C1442.65 808.562 1436.56 814.653 1436.56 822.166V918.24C1436.56 925.753 1442.65 931.844 1450.17 931.844H1546.24C1553.75 931.844 1559.84 925.753 1559.84 918.24V822.166C1559.84 814.653 1553.75 808.562 1546.24 808.562Z" stroke="url(#paint14_linear_907_1451)" stroke-width="1.27532"/>
<path d="M1669.52 808.562H1573.45C1565.93 808.562 1559.84 814.653 1559.84 822.166V918.24C1559.84 925.753 1565.93 931.844 1573.45 931.844H1669.52C1677.03 931.844 1683.12 925.753 1683.12 918.24V822.166C1683.12 814.653 1677.03 808.562 1669.52 808.562Z" stroke="#595959" stroke-width="1.27532"/>
<path d="M1792.79 808.562H1696.72C1689.21 808.562 1683.12 814.653 1683.12 822.166V918.24C1683.12 925.753 1689.21 931.844 1696.72 931.844H1792.79C1800.31 931.844 1806.4 925.753 1806.4 918.24V822.166C1806.4 814.653 1800.31 808.562 1792.79 808.562Z" stroke="url(#paint15_linear_907_1451)" stroke-width="1.27532"/>
<path d="M1916.08 808.562H1820.01C1812.5 808.562 1806.41 814.653 1806.41 822.166V918.24C1806.41 925.753 1812.5 931.844 1820.01 931.844H1916.08C1923.6 931.844 1929.69 925.753 1929.69 918.24V822.166C1929.69 814.653 1923.6 808.562 1916.08 808.562Z" stroke="url(#paint16_linear_907_1451)" stroke-width="1.27532"/>
<path d="M1299.68 931.844H1203.6C1196.09 931.844 1190 937.934 1190 945.447V1041.52C1190 1049.03 1196.09 1055.12 1203.6 1055.12H1299.68C1307.19 1055.12 1313.28 1049.03 1313.28 1041.52V945.447C1313.28 937.934 1307.19 931.844 1299.68 931.844Z" stroke="url(#paint17_linear_907_1451)" stroke-width="1.27532"/>
<path d="M1422.96 931.844H1326.88C1319.37 931.844 1313.28 937.934 1313.28 945.447V1041.52C1313.28 1049.03 1319.37 1055.12 1326.88 1055.12H1422.96C1430.47 1055.12 1436.56 1049.03 1436.56 1041.52V945.447C1436.56 937.934 1430.47 931.844 1422.96 931.844Z" stroke="url(#paint18_linear_907_1451)" stroke-width="1.27532"/>
<path d="M1546.24 931.844H1450.17C1442.65 931.844 1436.56 937.934 1436.56 945.447V1041.52C1436.56 1049.03 1442.65 1055.12 1450.17 1055.12H1546.24C1553.75 1055.12 1559.84 1049.03 1559.84 1041.52V945.447C1559.84 937.934 1553.75 931.844 1546.24 931.844Z" stroke="url(#paint19_linear_907_1451)" stroke-width="1.27532"/>
<path d="M1669.52 931.844H1573.45C1565.93 931.844 1559.84 937.934 1559.84 945.447V1041.52C1559.84 1049.03 1565.93 1055.12 1573.45 1055.12H1669.52C1677.03 1055.12 1683.12 1049.03 1683.12 1041.52V945.447C1683.12 937.934 1677.03 931.844 1669.52 931.844Z" stroke="url(#paint20_linear_907_1451)" stroke-width="1.27532"/>
<path d="M1792.79 931.844H1696.72C1689.21 931.844 1683.12 937.934 1683.12 945.447V1041.52C1683.12 1049.03 1689.21 1055.12 1696.72 1055.12H1792.79C1800.31 1055.12 1806.4 1049.03 1806.4 1041.52V945.447C1806.4 937.934 1800.31 931.844 1792.79 931.844Z" stroke="url(#paint21_linear_907_1451)" stroke-width="1.27532"/>
<path d="M1916.08 931.844H1820.01C1812.5 931.844 1806.41 937.934 1806.41 945.447V1041.52C1806.41 1049.03 1812.5 1055.12 1820.01 1055.12H1916.08C1923.6 1055.12 1929.69 1049.03 1929.69 1041.52V945.447C1929.69 937.934 1923.6 931.844 1916.08 931.844Z" stroke="url(#paint22_linear_907_1451)" stroke-width="1.27532"/>
<path d="M1299.68 1055.12H1203.6C1196.09 1055.12 1190 1061.21 1190 1068.72V1164.8C1190 1172.31 1196.09 1178.4 1203.6 1178.4H1299.68C1307.19 1178.4 1313.28 1172.31 1313.28 1164.8V1068.72C1313.28 1061.21 1307.19 1055.12 1299.68 1055.12Z" stroke="url(#paint23_linear_907_1451)" stroke-width="1.27532"/>
<path d="M1422.96 1055.12H1326.88C1319.37 1055.12 1313.28 1061.21 1313.28 1068.72V1164.8C1313.28 1172.31 1319.37 1178.4 1326.88 1178.4H1422.96C1430.47 1178.4 1436.56 1172.31 1436.56 1164.8V1068.72C1436.56 1061.21 1430.47 1055.12 1422.96 1055.12Z" stroke="url(#paint24_linear_907_1451)" stroke-width="1.27532"/>
<path d="M1546.24 1055.12H1450.17C1442.65 1055.12 1436.56 1061.21 1436.56 1068.72V1164.8C1436.56 1172.31 1442.65 1178.4 1450.17 1178.4H1546.24C1553.75 1178.4 1559.84 1172.31 1559.84 1164.8V1068.72C1559.84 1061.21 1553.75 1055.12 1546.24 1055.12Z" stroke="url(#paint25_linear_907_1451)" stroke-width="1.27532"/>
<path d="M1669.52 1055.12H1573.45C1565.93 1055.12 1559.84 1061.21 1559.84 1068.72V1164.8C1559.84 1172.31 1565.93 1178.4 1573.45 1178.4H1669.52C1677.03 1178.4 1683.12 1172.31 1683.12 1164.8V1068.72C1683.12 1061.21 1677.03 1055.12 1669.52 1055.12Z" stroke="url(#paint26_linear_907_1451)" stroke-width="1.27532"/>
<path d="M1792.79 1055.12H1696.72C1689.21 1055.12 1683.12 1061.21 1683.12 1068.72V1164.8C1683.12 1172.31 1689.21 1178.4 1696.72 1178.4H1792.79C1800.31 1178.4 1806.4 1172.31 1806.4 1164.8V1068.72C1806.4 1061.21 1800.31 1055.12 1792.79 1055.12Z" stroke="url(#paint27_linear_907_1451)" stroke-width="1.27532"/>
<path d="M1916.08 1055.12H1820.01C1812.5 1055.12 1806.41 1061.21 1806.41 1068.72V1164.8C1806.41 1172.31 1812.5 1178.4 1820.01 1178.4H1916.08C1923.6 1178.4 1929.69 1172.31 1929.69 1164.8V1068.72C1929.69 1061.21 1923.6 1055.12 1916.08 1055.12Z" stroke="url(#paint28_linear_907_1451)" stroke-width="1.27532"/>
<path d="M1683.13 572.203V671.678C1683.13 679.191 1689.22 685.282 1696.73 685.282H1792.8C1800.32 685.282 1806.41 691.372 1806.41 698.885V794.96C1806.41 802.473 1812.5 808.563 1820.01 808.563H1916.08C1923.6 808.563 1929.69 814.654 1929.69 822.166V918.241C1929.69 925.754 1935.78 931.844 1943.29 931.844H2039.37C2046.88 931.844 2052.97 937.935 2052.97 945.45V1041.52C2052.97 1049.04 2059.06 1055.13 2066.57 1055.13H2166.05M1559.84 572.203V671.678C1559.84 679.191 1565.93 685.282 1573.45 685.282H1669.52C1677.03 685.282 1683.13 691.372 1683.13 698.885V794.96C1683.13 802.473 1689.22 808.563 1696.73 808.563H1792.8C1800.32 808.563 1806.41 814.654 1806.41 822.166V918.241C1806.41 925.754 1800.32 931.844 1792.8 931.844H1696.73C1689.22 931.844 1683.13 925.754 1683.13 918.241V820.466L1683.01 819.663C1682.09 813.501 1676.86 808.9 1670.64 808.781L1659.32 808.563H1573.45C1565.93 808.563 1559.84 814.654 1559.84 822.166V918.241C1559.84 925.754 1565.93 931.844 1573.45 931.844H1670.37L1673.6 932.06C1678.96 932.417 1683.13 936.868 1683.13 942.24V952.67M1683.13 942.047V1041.52C1683.13 1049.04 1689.22 1055.13 1696.73 1055.13H1792.8C1800.32 1055.13 1806.41 1061.22 1806.41 1068.73V1164.8C1806.41 1172.32 1812.5 1178.41 1820.01 1178.41H1916.08C1923.6 1178.41 1929.69 1184.5 1929.69 1192.01V1288.08C1929.69 1295.6 1935.78 1301.69 1943.29 1301.69H2039.37C2046.88 1301.69 2052.97 1307.78 2052.97 1315.29V1411.37C2052.97 1418.88 2059.06 1424.97 2066.57 1424.97H2166.05" stroke="url(#paint29_linear_907_1451)" stroke-opacity="0.8" stroke-width="1.27532"/>
<path d="M1299.68 -54H1203.6C1196.09 -54 1190 -47.9096 1190 -40.3966V55.6776C1190 63.1905 1196.09 69.281 1203.6 69.281H1299.68C1307.19 69.281 1313.28 63.1905 1313.28 55.6776V-40.3966C1313.28 -47.9096 1307.19 -54 1299.68 -54Z" stroke="url(#paint30_linear_907_1451)" stroke-width="1.27532"/>
<path d="M1422.96 -54H1326.88C1319.37 -54 1313.28 -47.9096 1313.28 -40.3966V55.6776C1313.28 63.1905 1319.37 69.281 1326.88 69.281H1422.96C1430.47 69.281 1436.56 63.1905 1436.56 55.6776V-40.3966C1436.56 -47.9096 1430.47 -54 1422.96 -54Z" stroke="url(#paint31_linear_907_1451)" stroke-width="1.27532"/>
<path d="M1546.24 -54H1450.17C1442.65 -54 1436.56 -47.9096 1436.56 -40.3966V55.6776C1436.56 63.1905 1442.65 69.281 1450.17 69.281H1546.24C1553.75 69.281 1559.84 63.1905 1559.84 55.6776V-40.3966C1559.84 -47.9096 1553.75 -54 1546.24 -54Z" stroke="url(#paint32_linear_907_1451)" stroke-width="1.27532"/>
<path d="M1669.52 -54H1573.45C1565.93 -54 1559.84 -47.9096 1559.84 -40.3966V55.6776C1559.84 63.1905 1565.93 69.281 1573.45 69.281H1669.52C1677.03 69.281 1683.12 63.1905 1683.12 55.6776V-40.3966C1683.12 -47.9096 1677.03 -54 1669.52 -54Z" stroke="url(#paint33_linear_907_1451)" stroke-width="1.27532"/>
<path d="M1792.79 -54H1696.72C1689.21 -54 1683.12 -47.9096 1683.12 -40.3966V55.6776C1683.12 63.1905 1689.21 69.281 1696.72 69.281H1792.79C1800.31 69.281 1806.4 63.1905 1806.4 55.6776V-40.3966C1806.4 -47.9096 1800.31 -54 1792.79 -54Z" stroke="url(#paint34_linear_907_1451)" stroke-width="1.27532"/>
<path d="M1916.08 -54H1820.01C1812.5 -54 1806.41 -47.9096 1806.41 -40.3966V55.6776C1806.41 63.1905 1812.5 69.281 1820.01 69.281H1916.08C1923.6 69.281 1929.69 63.1905 1929.69 55.6776V-40.3966C1929.69 -47.9096 1923.6 -54 1916.08 -54Z" stroke="url(#paint35_linear_907_1451)" stroke-width="1.27532"/>
<path d="M1299.68 69.2812H1203.6C1196.09 69.2812 1190 75.3717 1190 82.8847V178.959C1190 186.472 1196.09 192.562 1203.6 192.562H1299.68C1307.19 192.562 1313.28 186.472 1313.28 178.959V82.8847C1313.28 75.3717 1307.19 69.2812 1299.68 69.2812Z" stroke="url(#paint36_linear_907_1451)" stroke-width="1.27532"/>
<path d="M1422.96 69.2812H1326.88C1319.37 69.2812 1313.28 75.3717 1313.28 82.8847V178.959C1313.28 186.472 1319.37 192.562 1326.88 192.562H1422.96C1430.47 192.562 1436.56 186.472 1436.56 178.959V82.8847C1436.56 75.3717 1430.47 69.2812 1422.96 69.2812Z" stroke="url(#paint37_linear_907_1451)" stroke-width="1.27532"/>
<path d="M1546.24 69.2812H1450.17C1442.65 69.2812 1436.56 75.3717 1436.56 82.8847V178.959C1436.56 186.472 1442.65 192.562 1450.17 192.562H1546.24C1553.75 192.562 1559.84 186.472 1559.84 178.959V82.8847C1559.84 75.3717 1553.75 69.2812 1546.24 69.2812Z" stroke="url(#paint38_linear_907_1451)" stroke-width="1.27532"/>
<path d="M1669.52 69.2812H1573.45C1565.93 69.2812 1559.84 75.3717 1559.84 82.8847V178.959C1559.84 186.472 1565.93 192.562 1573.45 192.562H1669.52C1677.03 192.562 1683.12 186.472 1683.12 178.959V82.8847C1683.12 75.3717 1677.03 69.2812 1669.52 69.2812Z" stroke="url(#paint39_linear_907_1451)" stroke-width="1.27532"/>
<path d="M1792.79 69.2812H1696.72C1689.21 69.2812 1683.12 75.3717 1683.12 82.8847V178.959C1683.12 186.472 1689.21 192.562 1696.72 192.562H1792.79C1800.31 192.562 1806.4 186.472 1806.4 178.959V82.8847C1806.4 75.3717 1800.31 69.2812 1792.79 69.2812Z" stroke="url(#paint40_linear_907_1451)" stroke-width="1.27532"/>
<path d="M1916.08 69.2812H1820.01C1812.5 69.2812 1806.41 75.3717 1806.41 82.8847V178.959C1806.41 186.472 1812.5 192.562 1820.01 192.562H1916.08C1923.6 192.562 1929.69 186.472 1929.69 178.959V82.8847C1929.69 75.3717 1923.6 69.2812 1916.08 69.2812Z" stroke="url(#paint41_linear_907_1451)" stroke-width="1.27532"/>
<path d="M1299.68 192.562H1203.6C1196.09 192.562 1190 198.653 1190 206.166V302.24C1190 309.753 1196.09 315.843 1203.6 315.843H1299.68C1307.19 315.843 1313.28 309.753 1313.28 302.24V206.166C1313.28 198.653 1307.19 192.562 1299.68 192.562Z" stroke="url(#paint42_linear_907_1451)" stroke-width="1.27532"/>
<path d="M1422.96 192.562H1326.88C1319.37 192.562 1313.28 198.653 1313.28 206.166V302.24C1313.28 309.753 1319.37 315.843 1326.88 315.843H1422.96C1430.47 315.843 1436.56 309.753 1436.56 302.24V206.166C1436.56 198.653 1430.47 192.562 1422.96 192.562Z" stroke="url(#paint43_linear_907_1451)" stroke-width="1.27532"/>
<path d="M1546.24 192.562H1450.17C1442.65 192.562 1436.56 198.653 1436.56 206.166V302.24C1436.56 309.753 1442.65 315.843 1450.17 315.843H1546.24C1553.75 315.843 1559.84 309.753 1559.84 302.24V206.166C1559.84 198.653 1553.75 192.562 1546.24 192.562Z" stroke="url(#paint44_linear_907_1451)" stroke-width="1.27532"/>
<path d="M1669.52 192.562H1573.45C1565.93 192.562 1559.84 198.653 1559.84 206.166V302.24C1559.84 309.753 1565.93 315.843 1573.45 315.843H1669.52C1677.03 315.843 1683.12 309.753 1683.12 302.24V206.166C1683.12 198.653 1677.03 192.562 1669.52 192.562Z" stroke="url(#paint45_linear_907_1451)" stroke-width="1.27532"/>
<path d="M1792.79 192.562H1696.72C1689.21 192.562 1683.12 198.653 1683.12 206.166V302.24C1683.12 309.753 1689.21 315.843 1696.72 315.843H1792.79C1800.31 315.843 1806.4 309.753 1806.4 302.24V206.166C1806.4 198.653 1800.31 192.562 1792.79 192.562Z" stroke="url(#paint46_linear_907_1451)" stroke-width="1.27532"/>
<path d="M1916.08 192.562H1820.01C1812.5 192.562 1806.41 198.653 1806.41 206.166V302.24C1806.41 309.753 1812.5 315.843 1820.01 315.843H1916.08C1923.6 315.843 1929.69 309.753 1929.69 302.24V206.166C1929.69 198.653 1923.6 192.562 1916.08 192.562Z" stroke="url(#paint47_linear_907_1451)" stroke-width="1.27532"/>
<path d="M1299.68 315.844H1203.6C1196.09 315.844 1190 321.934 1190 329.447V425.521C1190 433.034 1196.09 439.125 1203.6 439.125H1299.68C1307.19 439.125 1313.28 433.034 1313.28 425.521V329.447C1313.28 321.934 1307.19 315.844 1299.68 315.844Z" stroke="url(#paint48_linear_907_1451)" stroke-width="1.27532"/>
<path d="M1422.96 315.844H1326.88C1319.37 315.844 1313.28 321.934 1313.28 329.447V425.521C1313.28 433.034 1319.37 439.125 1326.88 439.125H1422.96C1430.47 439.125 1436.56 433.034 1436.56 425.521V329.447C1436.56 321.934 1430.47 315.844 1422.96 315.844Z" stroke="url(#paint49_linear_907_1451)" stroke-width="1.27532"/>
<path d="M1546.24 315.844H1450.17C1442.65 315.844 1436.56 321.934 1436.56 329.447V425.521C1436.56 433.034 1442.65 439.125 1450.17 439.125H1546.24C1553.75 439.125 1559.84 433.034 1559.84 425.521V329.447C1559.84 321.934 1553.75 315.844 1546.24 315.844Z" stroke="url(#paint50_linear_907_1451)" stroke-width="1.27532"/>
<path d="M1669.52 315.844H1573.45C1565.93 315.844 1559.84 321.934 1559.84 329.447V425.521C1559.84 433.034 1565.93 439.125 1573.45 439.125H1669.52C1677.03 439.125 1683.12 433.034 1683.12 425.521V329.447C1683.12 321.934 1677.03 315.844 1669.52 315.844Z" stroke="url(#paint51_linear_907_1451)" stroke-width="1.27532"/>
<path d="M1792.79 315.844H1696.72C1689.21 315.844 1683.12 321.934 1683.12 329.447V425.521C1683.12 433.034 1689.21 439.125 1696.72 439.125H1792.79C1800.31 439.125 1806.4 433.034 1806.4 425.521V329.447C1806.4 321.934 1800.31 315.844 1792.79 315.844Z" stroke="url(#paint52_linear_907_1451)" stroke-width="1.27532"/>
<path d="M1916.08 315.844H1820.01C1812.5 315.844 1806.41 321.934 1806.41 329.447V425.521C1806.41 433.034 1812.5 439.125 1820.01 439.125H1916.08C1923.6 439.125 1929.69 433.034 1929.69 425.521V329.447C1929.69 321.934 1923.6 315.844 1916.08 315.844Z" stroke="url(#paint53_linear_907_1451)" stroke-width="1.27532"/>
<path d="M1299.68 439.125H1203.6C1196.09 439.125 1190 445.215 1190 452.728V548.803C1190 556.316 1196.09 562.406 1203.6 562.406H1299.68C1307.19 562.406 1313.28 556.316 1313.28 548.803V452.728C1313.28 445.215 1307.19 439.125 1299.68 439.125Z" stroke="url(#paint54_linear_907_1451)" stroke-width="1.27532"/>
<path d="M1422.96 439.125H1326.88C1319.37 439.125 1313.28 445.215 1313.28 452.728V548.803C1313.28 556.316 1319.37 562.406 1326.88 562.406H1422.96C1430.47 562.406 1436.56 556.316 1436.56 548.803V452.728C1436.56 445.215 1430.47 439.125 1422.96 439.125Z" stroke="url(#paint55_linear_907_1451)" stroke-width="1.27532"/>
<path d="M1546.24 439.125H1450.17C1442.65 439.125 1436.56 445.215 1436.56 452.728V548.803C1436.56 556.316 1442.65 562.406 1450.17 562.406H1546.24C1553.75 562.406 1559.84 556.316 1559.84 548.803V452.728C1559.84 445.215 1553.75 439.125 1546.24 439.125Z" stroke="url(#paint56_linear_907_1451)" stroke-width="1.27532"/>
<path d="M1669.52 439.125H1573.45C1565.93 439.125 1559.84 445.215 1559.84 452.728V548.803C1559.84 556.316 1565.93 562.406 1573.45 562.406H1669.52C1677.03 562.406 1683.12 556.316 1683.12 548.803V452.728C1683.12 445.215 1677.03 439.125 1669.52 439.125Z" stroke="url(#paint57_linear_907_1451)" stroke-width="1.27532"/>
<path d="M1792.79 439.125H1696.72C1689.21 439.125 1683.12 445.215 1683.12 452.728V548.803C1683.12 556.316 1689.21 562.406 1696.72 562.406H1792.79C1800.31 562.406 1806.4 556.316 1806.4 548.803V452.728C1806.4 445.215 1800.31 439.125 1792.79 439.125Z" stroke="url(#paint58_linear_907_1451)" stroke-width="1.27532"/>
<path d="M1916.08 439.125H1820.01C1812.5 439.125 1806.41 445.215 1806.41 452.728V548.803C1806.41 556.316 1812.5 562.406 1820.01 562.406H1916.08C1923.6 562.406 1929.69 556.316 1929.69 548.803V452.728C1929.69 445.215 1923.6 439.125 1916.08 439.125Z" stroke="url(#paint59_linear_907_1451)" stroke-width="1.27532"/>
<path d="M559.678 562H463.603C456.09 562 450 568.09 450 575.603V671.678C450 679.191 456.09 685.281 463.603 685.281H559.678C567.191 685.281 573.281 679.191 573.281 671.678V575.603C573.281 568.09 567.191 562 559.678 562Z" stroke="url(#paint60_linear_907_1451)" stroke-width="1.27532"/>
<path d="M682.959 562H586.885C579.372 562 573.281 568.09 573.281 575.603V671.678C573.281 679.191 579.372 685.281 586.885 685.281H682.959C690.472 685.281 696.562 679.191 696.562 671.678V575.603C696.562 568.09 690.472 562 682.959 562Z" stroke="url(#paint61_linear_907_1451)" stroke-width="1.27532"/>
<path d="M806.24 562H710.166C702.653 562 696.562 568.09 696.562 575.603V671.678C696.562 679.191 702.653 685.281 710.166 685.281H806.24C813.753 685.281 819.844 679.191 819.844 671.678V575.603C819.844 568.09 813.753 562 806.24 562Z" stroke="url(#paint62_linear_907_1451)" stroke-width="1.27532"/>
<path d="M929.521 562H833.447C825.934 562 819.844 568.09 819.844 575.603V671.678C819.844 679.191 825.934 685.281 833.447 685.281H929.521C937.034 685.281 943.125 679.191 943.125 671.678V575.603C943.125 568.09 937.034 562 929.521 562Z" stroke="url(#paint63_linear_907_1451)" stroke-width="1.27532"/>
<path d="M1052.79 562H956.721C949.208 562 943.117 568.09 943.117 575.603V671.678C943.117 679.191 949.208 685.281 956.721 685.281H1052.79C1060.31 685.281 1066.4 679.191 1066.4 671.678V575.603C1066.4 568.09 1060.31 562 1052.79 562Z" stroke="url(#paint64_linear_907_1451)" stroke-width="1.27532"/>
<path d="M1176.08 562H1080.01C1072.5 562 1066.41 568.09 1066.41 575.603V671.678C1066.41 679.191 1072.5 685.281 1080.01 685.281H1176.08C1183.6 685.281 1189.69 679.191 1189.69 671.678V575.603C1189.69 568.09 1183.6 562 1176.08 562Z" stroke="url(#paint65_linear_907_1451)" stroke-width="1.27532"/>
<path d="M559.678 685.281H463.603C456.09 685.281 450 691.372 450 698.885V794.959C450 802.472 456.09 808.562 463.603 808.562H559.678C567.191 808.562 573.281 802.472 573.281 794.959V698.885C573.281 691.372 567.191 685.281 559.678 685.281Z" stroke="url(#paint66_linear_907_1451)" stroke-width="1.27532"/>
<path d="M682.959 685.281H586.885C579.372 685.281 573.281 691.372 573.281 698.885V794.959C573.281 802.472 579.372 808.562 586.885 808.562H682.959C690.472 808.562 696.562 802.472 696.562 794.959V698.885C696.562 691.372 690.472 685.281 682.959 685.281Z" stroke="url(#paint67_linear_907_1451)" stroke-width="1.27532"/>
<path d="M806.24 685.281H710.166C702.653 685.281 696.562 691.372 696.562 698.885V794.959C696.562 802.472 702.653 808.562 710.166 808.562H806.24C813.753 808.562 819.844 802.472 819.844 794.959V698.885C819.844 691.372 813.753 685.281 806.24 685.281Z" stroke="url(#paint68_linear_907_1451)" stroke-width="1.27532"/>
<path d="M929.521 685.281H833.447C825.934 685.281 819.844 691.372 819.844 698.885V794.959C819.844 802.472 825.934 808.562 833.447 808.562H929.521C937.034 808.562 943.125 802.472 943.125 794.959V698.885C943.125 691.372 937.034 685.281 929.521 685.281Z" stroke="url(#paint69_linear_907_1451)" stroke-width="1.27532"/>
<path d="M1052.79 685.281H956.721C949.208 685.281 943.117 691.372 943.117 698.885V794.959C943.117 802.472 949.208 808.562 956.721 808.562H1052.79C1060.31 808.562 1066.4 802.472 1066.4 794.959V698.885C1066.4 691.372 1060.31 685.281 1052.79 685.281Z" stroke="url(#paint70_linear_907_1451)" stroke-width="1.27532"/>
<path d="M1176.08 685.281H1080.01C1072.5 685.281 1066.41 691.372 1066.41 698.885V794.959C1066.41 802.472 1072.5 808.562 1080.01 808.562H1176.08C1183.6 808.562 1189.69 802.472 1189.69 794.959V698.885C1189.69 691.372 1183.6 685.281 1176.08 685.281Z" stroke="url(#paint71_linear_907_1451)" stroke-width="1.27532"/>
<path d="M559.678 808.562H463.603C456.09 808.562 450 814.653 450 822.166V918.24C450 925.753 456.09 931.844 463.603 931.844H559.678C567.191 931.844 573.281 925.753 573.281 918.24V822.166C573.281 814.653 567.191 808.562 559.678 808.562Z" stroke="url(#paint72_linear_907_1451)" stroke-width="1.27532"/>
<path d="M682.959 808.562H586.885C579.372 808.562 573.281 814.653 573.281 822.166V918.24C573.281 925.753 579.372 931.844 586.885 931.844H682.959C690.472 931.844 696.562 925.753 696.562 918.24V822.166C696.562 814.653 690.472 808.562 682.959 808.562Z" stroke="url(#paint73_linear_907_1451)" stroke-width="1.27532"/>
<path d="M806.24 808.562H710.166C702.653 808.562 696.562 814.653 696.562 822.166V918.24C696.562 925.753 702.653 931.844 710.166 931.844H806.24C813.753 931.844 819.844 925.753 819.844 918.24V822.166C819.844 814.653 813.753 808.562 806.24 808.562Z" stroke="url(#paint74_linear_907_1451)" stroke-width="1.27532"/>
<path d="M929.521 808.562H833.447C825.934 808.562 819.844 814.653 819.844 822.166V918.24C819.844 925.753 825.934 931.844 833.447 931.844H929.521C937.034 931.844 943.125 925.753 943.125 918.24V822.166C943.125 814.653 937.034 808.562 929.521 808.562Z" stroke="url(#paint75_linear_907_1451)" stroke-width="1.27532"/>
<path d="M1052.79 808.562H956.721C949.208 808.562 943.117 814.653 943.117 822.166V918.24C943.117 925.753 949.208 931.844 956.721 931.844H1052.79C1060.31 931.844 1066.4 925.753 1066.4 918.24V822.166C1066.4 814.653 1060.31 808.562 1052.79 808.562Z" stroke="url(#paint76_linear_907_1451)" stroke-width="1.27532"/>
<path d="M1176.08 808.562H1080.01C1072.5 808.562 1066.41 814.653 1066.41 822.166V918.24C1066.41 925.753 1072.5 931.844 1080.01 931.844H1176.08C1183.6 931.844 1189.69 925.753 1189.69 918.24V822.166C1189.69 814.653 1183.6 808.562 1176.08 808.562Z" stroke="url(#paint77_linear_907_1451)" stroke-width="1.27532"/>
<path d="M559.678 931.844H463.603C456.09 931.844 450 937.934 450 945.447V1041.52C450 1049.03 456.09 1055.12 463.603 1055.12H559.678C567.191 1055.12 573.281 1049.03 573.281 1041.52V945.447C573.281 937.934 567.191 931.844 559.678 931.844Z" stroke="url(#paint78_linear_907_1451)" stroke-width="1.27532"/>
<path d="M682.959 931.844H586.885C579.372 931.844 573.281 937.934 573.281 945.447V1041.52C573.281 1049.03 579.372 1055.12 586.885 1055.12H682.959C690.472 1055.12 696.562 1049.03 696.562 1041.52V945.447C696.562 937.934 690.472 931.844 682.959 931.844Z" stroke="url(#paint79_linear_907_1451)" stroke-width="1.27532"/>
<path d="M806.24 931.844H710.166C702.653 931.844 696.562 937.934 696.562 945.447V1041.52C696.562 1049.03 702.653 1055.12 710.166 1055.12H806.24C813.753 1055.12 819.844 1049.03 819.844 1041.52V945.447C819.844 937.934 813.753 931.844 806.24 931.844Z" stroke="url(#paint80_linear_907_1451)" stroke-width="1.27532"/>
<path d="M929.521 931.844H833.447C825.934 931.844 819.844 937.934 819.844 945.447V1041.52C819.844 1049.03 825.934 1055.12 833.447 1055.12H929.521C937.034 1055.12 943.125 1049.03 943.125 1041.52V945.447C943.125 937.934 937.034 931.844 929.521 931.844Z" stroke="url(#paint81_linear_907_1451)" stroke-width="1.27532"/>
<path d="M1052.79 931.844H956.721C949.208 931.844 943.117 937.934 943.117 945.447V1041.52C943.117 1049.03 949.208 1055.12 956.721 1055.12H1052.79C1060.31 1055.12 1066.4 1049.03 1066.4 1041.52V945.447C1066.4 937.934 1060.31 931.844 1052.79 931.844Z" stroke="url(#paint82_linear_907_1451)" stroke-width="1.27532"/>
<path d="M1176.08 931.844H1080.01C1072.5 931.844 1066.41 937.934 1066.41 945.447V1041.52C1066.41 1049.03 1072.5 1055.12 1080.01 1055.12H1176.08C1183.6 1055.12 1189.69 1049.03 1189.69 1041.52V945.447C1189.69 937.934 1183.6 931.844 1176.08 931.844Z" stroke="url(#paint83_linear_907_1451)" stroke-width="1.27532"/>
<path d="M559.678 1055.12H463.603C456.09 1055.12 450 1061.21 450 1068.72V1164.8C450 1172.31 456.09 1178.4 463.603 1178.4H559.678C567.191 1178.4 573.281 1172.31 573.281 1164.8V1068.72C573.281 1061.21 567.191 1055.12 559.678 1055.12Z" stroke="url(#paint84_linear_907_1451)" stroke-width="1.27532"/>
<path d="M682.959 1055.12H586.885C579.372 1055.12 573.281 1061.21 573.281 1068.72V1164.8C573.281 1172.31 579.372 1178.4 586.885 1178.4H682.959C690.472 1178.4 696.562 1172.31 696.562 1164.8V1068.72C696.562 1061.21 690.472 1055.12 682.959 1055.12Z" stroke="url(#paint85_linear_907_1451)" stroke-width="1.27532"/>
<path d="M806.24 1055.12H710.166C702.653 1055.12 696.562 1061.21 696.562 1068.72V1164.8C696.562 1172.31 702.653 1178.4 710.166 1178.4H806.24C813.753 1178.4 819.844 1172.31 819.844 1164.8V1068.72C819.844 1061.21 813.753 1055.12 806.24 1055.12Z" stroke="url(#paint86_linear_907_1451)" stroke-width="1.27532"/>
<path d="M929.521 1055.12H833.447C825.934 1055.12 819.844 1061.21 819.844 1068.72V1164.8C819.844 1172.31 825.934 1178.4 833.447 1178.4H929.521C937.034 1178.4 943.125 1172.31 943.125 1164.8V1068.72C943.125 1061.21 937.034 1055.12 929.521 1055.12Z" stroke="url(#paint87_linear_907_1451)" stroke-width="1.27532"/>
<path d="M1052.79 1055.12H956.721C949.208 1055.12 943.117 1061.21 943.117 1068.72V1164.8C943.117 1172.31 949.208 1178.4 956.721 1178.4H1052.79C1060.31 1178.4 1066.4 1172.31 1066.4 1164.8V1068.72C1066.4 1061.21 1060.31 1055.12 1052.79 1055.12Z" stroke="url(#paint88_linear_907_1451)" stroke-width="1.27532"/>
<path d="M1176.08 1055.12H1080.01C1072.5 1055.12 1066.41 1061.21 1066.41 1068.72V1164.8C1066.41 1172.31 1072.5 1178.4 1080.01 1178.4H1176.08C1183.6 1178.4 1189.69 1172.31 1189.69 1164.8V1068.72C1189.69 1061.21 1183.6 1055.12 1176.08 1055.12Z" stroke="url(#paint89_linear_907_1451)" stroke-width="1.27532"/>
<path d="M559.678 -54H463.603C456.09 -54 450 -47.9096 450 -40.3966V55.6776C450 63.1905 456.09 69.281 463.603 69.281H559.678C567.191 69.281 573.281 63.1905 573.281 55.6776V-40.3966C573.281 -47.9096 567.191 -54 559.678 -54Z" stroke="url(#paint90_linear_907_1451)" stroke-width="1.27532"/>
<path d="M682.959 -54H586.885C579.372 -54 573.281 -47.9096 573.281 -40.3966V55.6776C573.281 63.1905 579.372 69.281 586.885 69.281H682.959C690.472 69.281 696.562 63.1905 696.562 55.6776V-40.3966C696.562 -47.9096 690.472 -54 682.959 -54Z" stroke="url(#paint91_linear_907_1451)" stroke-width="1.27532"/>
<path d="M806.24 -54H710.166C702.653 -54 696.562 -47.9096 696.562 -40.3966V55.6776C696.562 63.1905 702.653 69.281 710.166 69.281H806.24C813.753 69.281 819.844 63.1905 819.844 55.6776V-40.3966C819.844 -47.9096 813.753 -54 806.24 -54Z" stroke="url(#paint92_linear_907_1451)" stroke-width="1.27532"/>
<path d="M929.521 -54H833.447C825.934 -54 819.844 -47.9096 819.844 -40.3966V55.6776C819.844 63.1905 825.934 69.281 833.447 69.281H929.521C937.034 69.281 943.125 63.1905 943.125 55.6776V-40.3966C943.125 -47.9096 937.034 -54 929.521 -54Z" stroke="url(#paint93_linear_907_1451)" stroke-width="1.27532"/>
<path d="M1052.79 -54H956.721C949.208 -54 943.117 -47.9096 943.117 -40.3966V55.6776C943.117 63.1905 949.208 69.281 956.721 69.281H1052.79C1060.31 69.281 1066.4 63.1905 1066.4 55.6776V-40.3966C1066.4 -47.9096 1060.31 -54 1052.79 -54Z" stroke="url(#paint94_linear_907_1451)" stroke-width="1.27532"/>
<path d="M1176.08 -54H1080.01C1072.5 -54 1066.41 -47.9096 1066.41 -40.3966V55.6776C1066.41 63.1905 1072.5 69.281 1080.01 69.281H1176.08C1183.6 69.281 1189.69 63.1905 1189.69 55.6776V-40.3966C1189.69 -47.9096 1183.6 -54 1176.08 -54Z" stroke="url(#paint95_linear_907_1451)" stroke-width="1.27532"/>
<path d="M559.678 69.2812H463.603C456.09 69.2812 450 75.3717 450 82.8847V178.959C450 186.472 456.09 192.562 463.603 192.562H559.678C567.191 192.562 573.281 186.472 573.281 178.959V82.8847C573.281 75.3717 567.191 69.2812 559.678 69.2812Z" stroke="url(#paint96_linear_907_1451)" stroke-width="1.27532"/>
<path d="M682.959 69.2812H586.885C579.372 69.2812 573.281 75.3717 573.281 82.8847V178.959C573.281 186.472 579.372 192.562 586.885 192.562H682.959C690.472 192.562 696.562 186.472 696.562 178.959V82.8847C696.562 75.3717 690.472 69.2812 682.959 69.2812Z" stroke="url(#paint97_linear_907_1451)" stroke-width="1.27532"/>
<path d="M806.24 69.2812H710.166C702.653 69.2812 696.562 75.3717 696.562 82.8847V178.959C696.562 186.472 702.653 192.562 710.166 192.562H806.24C813.753 192.562 819.844 186.472 819.844 178.959V82.8847C819.844 75.3717 813.753 69.2812 806.24 69.2812Z" stroke="url(#paint98_linear_907_1451)" stroke-width="1.27532"/>
<path d="M929.521 69.2812H833.447C825.934 69.2812 819.844 75.3717 819.844 82.8847V178.959C819.844 186.472 825.934 192.562 833.447 192.562H929.521C937.034 192.562 943.125 186.472 943.125 178.959V82.8847C943.125 75.3717 937.034 69.2812 929.521 69.2812Z" stroke="url(#paint99_linear_907_1451)" stroke-width="1.27532"/>
<path d="M1052.79 69.2812H956.721C949.208 69.2812 943.117 75.3717 943.117 82.8847V178.959C943.117 186.472 949.208 192.562 956.721 192.562H1052.79C1060.31 192.562 1066.4 186.472 1066.4 178.959V82.8847C1066.4 75.3717 1060.31 69.2812 1052.79 69.2812Z" stroke="url(#paint100_linear_907_1451)" stroke-width="1.27532"/>
<path d="M1176.08 69.2812H1080.01C1072.5 69.2812 1066.41 75.3717 1066.41 82.8847V178.959C1066.41 186.472 1072.5 192.562 1080.01 192.562H1176.08C1183.6 192.562 1189.69 186.472 1189.69 178.959V82.8847C1189.69 75.3717 1183.6 69.2812 1176.08 69.2812Z" stroke="url(#paint101_linear_907_1451)" stroke-width="1.27532"/>
<path d="M559.678 192.562H463.603C456.09 192.562 450 198.653 450 206.166V302.24C450 309.753 456.09 315.843 463.603 315.843H559.678C567.191 315.843 573.281 309.753 573.281 302.24V206.166C573.281 198.653 567.191 192.562 559.678 192.562Z" stroke="url(#paint102_linear_907_1451)" stroke-width="1.27532"/>
<path d="M682.959 192.562H586.885C579.372 192.562 573.281 198.653 573.281 206.166V302.24C573.281 309.753 579.372 315.843 586.885 315.843H682.959C690.472 315.843 696.562 309.753 696.562 302.24V206.166C696.562 198.653 690.472 192.562 682.959 192.562Z" stroke="url(#paint103_linear_907_1451)" stroke-width="1.27532"/>
<path d="M806.24 192.562H710.166C702.653 192.562 696.562 198.653 696.562 206.166V302.24C696.562 309.753 702.653 315.843 710.166 315.843H806.24C813.753 315.843 819.844 309.753 819.844 302.24V206.166C819.844 198.653 813.753 192.562 806.24 192.562Z" stroke="url(#paint104_linear_907_1451)" stroke-width="1.27532"/>
<path d="M929.521 192.562H833.447C825.934 192.562 819.844 198.653 819.844 206.166V302.24C819.844 309.753 825.934 315.843 833.447 315.843H929.521C937.034 315.843 943.125 309.753 943.125 302.24V206.166C943.125 198.653 937.034 192.562 929.521 192.562Z" stroke="url(#paint105_linear_907_1451)" stroke-width="1.27532"/>
<path d="M1052.79 192.562H956.721C949.208 192.562 943.117 198.653 943.117 206.166V302.24C943.117 309.753 949.208 315.843 956.721 315.843H1052.79C1060.31 315.843 1066.4 309.753 1066.4 302.24V206.166C1066.4 198.653 1060.31 192.562 1052.79 192.562Z" stroke="url(#paint106_linear_907_1451)" stroke-width="1.27532"/>
<path d="M1176.08 192.562H1080.01C1072.5 192.562 1066.41 198.653 1066.41 206.166V302.24C1066.41 309.753 1072.5 315.843 1080.01 315.843H1176.08C1183.6 315.843 1189.69 309.753 1189.69 302.24V206.166C1189.69 198.653 1183.6 192.562 1176.08 192.562Z" stroke="url(#paint107_linear_907_1451)" stroke-width="1.27532"/>
<path d="M559.678 315.844H463.603C456.09 315.844 450 321.934 450 329.447V425.521C450 433.034 456.09 439.125 463.603 439.125H559.678C567.191 439.125 573.281 433.034 573.281 425.521V329.447C573.281 321.934 567.191 315.844 559.678 315.844Z" stroke="url(#paint108_linear_907_1451)" stroke-width="1.27532"/>
<path d="M682.959 315.844H586.885C579.372 315.844 573.281 321.934 573.281 329.447V425.521C573.281 433.034 579.372 439.125 586.885 439.125H682.959C690.472 439.125 696.562 433.034 696.562 425.521V329.447C696.562 321.934 690.472 315.844 682.959 315.844Z" stroke="url(#paint109_linear_907_1451)" stroke-width="1.27532"/>
<path d="M806.24 315.844H710.166C702.653 315.844 696.562 321.934 696.562 329.447V425.521C696.562 433.034 702.653 439.125 710.166 439.125H806.24C813.753 439.125 819.844 433.034 819.844 425.521V329.447C819.844 321.934 813.753 315.844 806.24 315.844Z" stroke="url(#paint110_linear_907_1451)" stroke-width="1.27532"/>
<path d="M929.521 315.844H833.447C825.934 315.844 819.844 321.934 819.844 329.447V425.521C819.844 433.034 825.934 439.125 833.447 439.125H929.521C937.034 439.125 943.125 433.034 943.125 425.521V329.447C943.125 321.934 937.034 315.844 929.521 315.844Z" stroke="url(#paint111_linear_907_1451)" stroke-width="1.27532"/>
<path d="M1052.79 315.844H956.721C949.208 315.844 943.117 321.934 943.117 329.447V425.521C943.117 433.034 949.208 439.125 956.721 439.125H1052.79C1060.31 439.125 1066.4 433.034 1066.4 425.521V329.447C1066.4 321.934 1060.31 315.844 1052.79 315.844Z" stroke="url(#paint112_linear_907_1451)" stroke-width="1.27532"/>
<path d="M1176.08 315.844H1080.01C1072.5 315.844 1066.41 321.934 1066.41 329.447V425.521C1066.41 433.034 1072.5 439.125 1080.01 439.125H1176.08C1183.6 439.125 1189.69 433.034 1189.69 425.521V329.447C1189.69 321.934 1183.6 315.844 1176.08 315.844Z" stroke="url(#paint113_linear_907_1451)" stroke-width="1.27532"/>
<path d="M559.678 439.125H463.603C456.09 439.125 450 445.215 450 452.728V548.803C450 556.316 456.09 562.406 463.603 562.406H559.678C567.191 562.406 573.281 556.316 573.281 548.803V452.728C573.281 445.215 567.191 439.125 559.678 439.125Z" stroke="url(#paint114_linear_907_1451)" stroke-width="1.27532"/>
<path d="M682.959 439.125H586.885C579.372 439.125 573.281 445.215 573.281 452.728V548.803C573.281 556.316 579.372 562.406 586.885 562.406H682.959C690.472 562.406 696.562 556.316 696.562 548.803V452.728C696.562 445.215 690.472 439.125 682.959 439.125Z" stroke="url(#paint115_linear_907_1451)" stroke-width="1.27532"/>
<path d="M806.24 439.125H710.166C702.653 439.125 696.562 445.215 696.562 452.728V548.803C696.562 556.316 702.653 562.406 710.166 562.406H806.24C813.753 562.406 819.844 556.316 819.844 548.803V452.728C819.844 445.215 813.753 439.125 806.24 439.125Z" stroke="url(#paint116_linear_907_1451)" stroke-width="1.27532"/>
<path d="M929.521 439.125H833.447C825.934 439.125 819.844 445.215 819.844 452.728V548.803C819.844 556.316 825.934 562.406 833.447 562.406H929.521C937.034 562.406 943.125 556.316 943.125 548.803V452.728C943.125 445.215 937.034 439.125 929.521 439.125Z" stroke="url(#paint117_linear_907_1451)" stroke-width="1.27532"/>
<path d="M1052.79 439.125H956.721C949.208 439.125 943.117 445.215 943.117 452.728V548.803C943.117 556.316 949.208 562.406 956.721 562.406H1052.79C1060.31 562.406 1066.4 556.316 1066.4 548.803V452.728C1066.4 445.215 1060.31 439.125 1052.79 439.125Z" stroke="url(#paint118_linear_907_1451)" stroke-width="1.27532"/>
<path d="M1176.08 439.125H1080.01C1072.5 439.125 1066.41 445.215 1066.41 452.728V548.803C1066.41 556.316 1072.5 562.406 1080.01 562.406H1176.08C1183.6 562.406 1189.69 556.316 1189.69 548.803V452.728C1189.69 445.215 1183.6 439.125 1176.08 439.125Z" stroke="url(#paint119_linear_907_1451)" stroke-width="1.27532"/>
<path d="M66.2401 562H-29.8341C-37.347 562 -43.4375 568.09 -43.4375 575.603V671.678C-43.4375 679.191 -37.347 685.281 -29.8341 685.281H66.2401C73.753 685.281 79.8435 679.191 79.8435 671.678V575.603C79.8435 568.09 73.753 562 66.2401 562Z" stroke="url(#paint120_linear_907_1451)" stroke-width="1.27532"/>
<path d="M189.521 562H93.4471C85.9342 562 79.8438 568.09 79.8438 575.603V671.678C79.8438 679.191 85.9342 685.281 93.4471 685.281H189.521C197.034 685.281 203.125 679.191 203.125 671.678V575.603C203.125 568.09 197.034 562 189.521 562Z" stroke="url(#paint121_linear_907_1451)" stroke-width="1.27532"/>
<path d="M312.803 562H216.728C209.215 562 203.125 568.09 203.125 575.603V671.678C203.125 679.191 209.215 685.281 216.728 685.281H312.803C320.316 685.281 326.406 679.191 326.406 671.678V575.603C326.406 568.09 320.316 562 312.803 562Z" stroke="url(#paint122_linear_907_1451)" stroke-width="1.27532"/>
<path d="M436.084 562H340.01C332.497 562 326.406 568.09 326.406 575.603V671.678C326.406 679.191 332.497 685.281 340.01 685.281H436.084C443.597 685.281 449.687 679.191 449.687 671.678V575.603C449.687 568.09 443.597 562 436.084 562Z" stroke="url(#paint123_linear_907_1451)" stroke-width="1.27532"/>
<path d="M66.2401 685.281H-29.8341C-37.347 685.281 -43.4375 691.372 -43.4375 698.885V794.959C-43.4375 802.472 -37.347 808.562 -29.8341 808.562H66.2401C73.753 808.562 79.8435 802.472 79.8435 794.959V698.885C79.8435 691.372 73.753 685.281 66.2401 685.281Z" stroke="url(#paint124_linear_907_1451)" stroke-width="1.27532"/>
<path d="M189.521 685.281H93.4471C85.9342 685.281 79.8438 691.372 79.8438 698.885V794.959C79.8438 802.472 85.9342 808.562 93.4471 808.562H189.521C197.034 808.562 203.125 802.472 203.125 794.959V698.885C203.125 691.372 197.034 685.281 189.521 685.281Z" stroke="url(#paint125_linear_907_1451)" stroke-width="1.27532"/>
<path d="M312.803 685.281H216.728C209.215 685.281 203.125 691.372 203.125 698.885V794.959C203.125 802.472 209.215 808.562 216.728 808.562H312.803C320.316 808.562 326.406 802.472 326.406 794.959V698.885C326.406 691.372 320.316 685.281 312.803 685.281Z" stroke="url(#paint126_linear_907_1451)" stroke-width="1.27532"/>
<path d="M436.084 685.281H340.01C332.497 685.281 326.406 691.372 326.406 698.885V794.959C326.406 802.472 332.497 808.562 340.01 808.562H436.084C443.597 808.562 449.687 802.472 449.687 794.959V698.885C449.687 691.372 443.597 685.281 436.084 685.281Z" stroke="url(#paint127_linear_907_1451)" stroke-width="1.27532"/>
<path d="M66.2401 808.562H-29.8341C-37.347 808.562 -43.4375 814.653 -43.4375 822.166V918.24C-43.4375 925.753 -37.347 931.844 -29.8341 931.844H66.2401C73.753 931.844 79.8435 925.753 79.8435 918.24V822.166C79.8435 814.653 73.753 808.562 66.2401 808.562Z" stroke="url(#paint128_linear_907_1451)" stroke-width="1.27532"/>
<path d="M189.521 808.562H93.4471C85.9342 808.562 79.8438 814.653 79.8438 822.166V918.24C79.8438 925.753 85.9342 931.844 93.4471 931.844H189.521C197.034 931.844 203.125 925.753 203.125 918.24V822.166C203.125 814.653 197.034 808.562 189.521 808.562Z" stroke="url(#paint129_linear_907_1451)" stroke-width="1.27532"/>
<path d="M312.803 808.562H216.728C209.215 808.562 203.125 814.653 203.125 822.166V918.24C203.125 925.753 209.215 931.844 216.728 931.844H312.803C320.316 931.844 326.406 925.753 326.406 918.24V822.166C326.406 814.653 320.316 808.562 312.803 808.562Z" stroke="url(#paint130_linear_907_1451)" stroke-width="1.27532"/>
<path d="M436.084 808.562H340.01C332.497 808.562 326.406 814.653 326.406 822.166V918.24C326.406 925.753 332.497 931.844 340.01 931.844H436.084C443.597 931.844 449.687 925.753 449.687 918.24V822.166C449.687 814.653 443.597 808.562 436.084 808.562Z" stroke="url(#paint131_linear_907_1451)" stroke-width="1.27532"/>
<path d="M66.2401 931.844H-29.8341C-37.347 931.844 -43.4375 937.934 -43.4375 945.447V1041.52C-43.4375 1049.03 -37.347 1055.12 -29.8341 1055.12H66.2401C73.753 1055.12 79.8435 1049.03 79.8435 1041.52V945.447C79.8435 937.934 73.753 931.844 66.2401 931.844Z" stroke="url(#paint132_linear_907_1451)" stroke-width="1.27532"/>
<path d="M189.521 931.844H93.4471C85.9342 931.844 79.8438 937.934 79.8438 945.447V1041.52C79.8438 1049.03 85.9342 1055.12 93.4471 1055.12H189.521C197.034 1055.12 203.125 1049.03 203.125 1041.52V945.447C203.125 937.934 197.034 931.844 189.521 931.844Z" stroke="url(#paint133_linear_907_1451)" stroke-width="1.27532"/>
<path d="M312.803 931.844H216.728C209.215 931.844 203.125 937.934 203.125 945.447V1041.52C203.125 1049.03 209.215 1055.12 216.728 1055.12H312.803C320.316 1055.12 326.406 1049.03 326.406 1041.52V945.447C326.406 937.934 320.316 931.844 312.803 931.844Z" stroke="url(#paint134_linear_907_1451)" stroke-width="1.27532"/>
<path d="M436.084 931.844H340.01C332.497 931.844 326.406 937.934 326.406 945.447V1041.52C326.406 1049.03 332.497 1055.12 340.01 1055.12H436.084C443.597 1055.12 449.687 1049.03 449.687 1041.52V945.447C449.687 937.934 443.597 931.844 436.084 931.844Z" stroke="url(#paint135_linear_907_1451)" stroke-width="1.27532"/>
<path d="M66.2401 1055.12H-29.8341C-37.347 1055.12 -43.4375 1061.21 -43.4375 1068.72V1164.8C-43.4375 1172.31 -37.347 1178.4 -29.8341 1178.4H66.2401C73.753 1178.4 79.8435 1172.31 79.8435 1164.8V1068.72C79.8435 1061.21 73.753 1055.12 66.2401 1055.12Z" stroke="url(#paint136_linear_907_1451)" stroke-width="1.27532"/>
<path d="M189.521 1055.12H93.4471C85.9342 1055.12 79.8438 1061.21 79.8438 1068.72V1164.8C79.8438 1172.31 85.9342 1178.4 93.4471 1178.4H189.521C197.034 1178.4 203.125 1172.31 203.125 1164.8V1068.72C203.125 1061.21 197.034 1055.12 189.521 1055.12Z" stroke="url(#paint137_linear_907_1451)" stroke-width="1.27532"/>
<path d="M312.803 1055.12H216.728C209.215 1055.12 203.125 1061.21 203.125 1068.72V1164.8C203.125 1172.31 209.215 1178.4 216.728 1178.4H312.803C320.316 1178.4 326.406 1172.31 326.406 1164.8V1068.72C326.406 1061.21 320.316 1055.12 312.803 1055.12Z" stroke="url(#paint138_linear_907_1451)"/>
<path d="M436.084 1055.12H340.01C332.497 1055.12 326.406 1061.21 326.406 1068.72V1164.8C326.406 1172.31 332.497 1178.4 340.01 1178.4H436.084C443.597 1178.4 449.687 1172.31 449.687 1164.8V1068.72C449.687 1061.21 443.597 1055.12 436.084 1055.12Z" stroke="url(#paint139_linear_907_1451)" stroke-width="1.27532"/>
<path d="M189.521 -54H93.4471C85.9342 -54 79.8438 -47.9096 79.8438 -40.3966V55.6776C79.8438 63.1905 85.9342 69.281 93.4471 69.281H189.521C197.034 69.281 203.125 63.1905 203.125 55.6776V-40.3966C203.125 -47.9096 197.034 -54 189.521 -54Z" stroke="url(#paint140_linear_907_1451)" stroke-width="1.27532"/>
<path d="M312.803 -54H216.728C209.215 -54 203.125 -47.9096 203.125 -40.3966V55.6776C203.125 63.1905 209.215 69.281 216.728 69.281H312.803C320.316 69.281 326.406 63.1905 326.406 55.6776V-40.3966C326.406 -47.9096 320.316 -54 312.803 -54Z" stroke="url(#paint141_linear_907_1451)" stroke-width="1.27532"/>
<path d="M436.084 -54H340.01C332.497 -54 326.406 -47.9096 326.406 -40.3966V55.6776C326.406 63.1905 332.497 69.281 340.01 69.281H436.084C443.597 69.281 449.687 63.1905 449.687 55.6776V-40.3966C449.687 -47.9096 443.597 -54 436.084 -54Z" stroke="url(#paint142_linear_907_1451)" stroke-width="1.27532"/>
<path d="M66.2401 69.2812H-29.8341C-37.347 69.2812 -43.4375 75.3717 -43.4375 82.8847V178.959C-43.4375 186.472 -37.347 192.562 -29.8341 192.562H66.2401C73.753 192.562 79.8435 186.472 79.8435 178.959V82.8847C79.8435 75.3717 73.753 69.2812 66.2401 69.2812Z" stroke="url(#paint143_linear_907_1451)" stroke-width="1.27532"/>
<path d="M189.521 69.2812H93.4471C85.9342 69.2812 79.8438 75.3717 79.8438 82.8847V178.959C79.8438 186.472 85.9342 192.562 93.4471 192.562H189.521C197.034 192.562 203.125 186.472 203.125 178.959V82.8847C203.125 75.3717 197.034 69.2812 189.521 69.2812Z" stroke="url(#paint144_linear_907_1451)" stroke-width="1.27532"/>
<path d="M312.803 69.2812H216.728C209.215 69.2812 203.125 75.3717 203.125 82.8847V178.959C203.125 186.472 209.215 192.562 216.728 192.562H312.803C320.316 192.562 326.406 186.472 326.406 178.959V82.8847C326.406 75.3717 320.316 69.2812 312.803 69.2812Z" stroke="url(#paint145_linear_907_1451)" stroke-width="1.27532"/>
<path d="M436.084 69.2812H340.01C332.497 69.2812 326.406 75.3717 326.406 82.8847V178.959C326.406 186.472 332.497 192.562 340.01 192.562H436.084C443.597 192.562 449.687 186.472 449.687 178.959V82.8847C449.687 75.3717 443.597 69.2812 436.084 69.2812Z" stroke="url(#paint146_linear_907_1451)" stroke-width="1.27532"/>
<path d="M66.2401 192.562H-29.8341C-37.347 192.562 -43.4375 198.653 -43.4375 206.166V302.24C-43.4375 309.753 -37.347 315.843 -29.8341 315.843H66.2401C73.753 315.843 79.8435 309.753 79.8435 302.24V206.166C79.8435 198.653 73.753 192.562 66.2401 192.562Z" stroke="url(#paint147_linear_907_1451)" stroke-width="1.27532"/>
<path d="M189.521 192.562H93.4471C85.9342 192.562 79.8438 198.653 79.8438 206.166V302.24C79.8438 309.753 85.9342 315.843 93.4471 315.843H189.521C197.034 315.843 203.125 309.753 203.125 302.24V206.166C203.125 198.653 197.034 192.562 189.521 192.562Z" stroke="url(#paint148_linear_907_1451)" stroke-width="1.27532"/>
<path d="M312.803 192.562H216.728C209.215 192.562 203.125 198.653 203.125 206.166V302.24C203.125 309.753 209.215 315.843 216.728 315.843H312.803C320.316 315.843 326.406 309.753 326.406 302.24V206.166C326.406 198.653 320.316 192.562 312.803 192.562Z" stroke="url(#paint149_linear_907_1451)" stroke-width="1.27532"/>
<path d="M436.084 192.562H340.01C332.497 192.562 326.406 198.653 326.406 206.166V302.24C326.406 309.753 332.497 315.843 340.01 315.843H436.084C443.597 315.843 449.687 309.753 449.687 302.24V206.166C449.687 198.653 443.597 192.562 436.084 192.562Z" stroke="url(#paint150_linear_907_1451)" stroke-width="1.27532"/>
<path d="M66.2401 315.844H-29.8341C-37.347 315.844 -43.4375 321.934 -43.4375 329.447V425.521C-43.4375 433.034 -37.347 439.125 -29.8341 439.125H66.2401C73.753 439.125 79.8435 433.034 79.8435 425.521V329.447C79.8435 321.934 73.753 315.844 66.2401 315.844Z" stroke="url(#paint151_linear_907_1451)" stroke-width="1.27532"/>
<path d="M189.521 315.844H93.4471C85.9342 315.844 79.8438 321.934 79.8438 329.447V425.521C79.8438 433.034 85.9342 439.125 93.4471 439.125H189.521C197.034 439.125 203.125 433.034 203.125 425.521V329.447C203.125 321.934 197.034 315.844 189.521 315.844Z" stroke="url(#paint152_linear_907_1451)" stroke-width="1.27532"/>
<path d="M312.803 315.844H216.728C209.215 315.844 203.125 321.934 203.125 329.447V425.521C203.125 433.034 209.215 439.125 216.728 439.125H312.803C320.316 439.125 326.406 433.034 326.406 425.521V329.447C326.406 321.934 320.316 315.844 312.803 315.844Z" stroke="url(#paint153_linear_907_1451)" stroke-width="1.27532"/>
<path d="M436.084 315.844H340.01C332.497 315.844 326.406 321.934 326.406 329.447V425.521C326.406 433.034 332.497 439.125 340.01 439.125H436.084C443.597 439.125 449.687 433.034 449.687 425.521V329.447C449.687 321.934 443.597 315.844 436.084 315.844Z" stroke="url(#paint154_linear_907_1451)" stroke-width="1.27532"/>
<path d="M66.2401 439.125H-29.8341C-37.347 439.125 -43.4375 445.215 -43.4375 452.728V548.803C-43.4375 556.316 -37.347 562.406 -29.8341 562.406H66.2401C73.753 562.406 79.8435 556.316 79.8435 548.803V452.728C79.8435 445.215 73.753 439.125 66.2401 439.125Z" stroke="url(#paint155_linear_907_1451)" stroke-width="1.27532"/>
<path d="M189.521 439.125H93.4471C85.9342 439.125 79.8438 445.215 79.8438 452.728V548.803C79.8438 556.316 85.9342 562.406 93.4471 562.406H189.521C197.034 562.406 203.125 556.316 203.125 548.803V452.728C203.125 445.215 197.034 439.125 189.521 439.125Z" stroke="url(#paint156_linear_907_1451)" stroke-width="1.27532"/>
<path d="M312.803 439.125H216.728C209.215 439.125 203.125 445.215 203.125 452.728V548.803C203.125 556.316 209.215 562.406 216.728 562.406H312.803C320.316 562.406 326.406 556.316 326.406 548.803V452.728C326.406 445.215 320.316 439.125 312.803 439.125Z" stroke="url(#paint157_linear_907_1451)" stroke-width="1.27532"/>
<path d="M436.084 439.125H340.01C332.497 439.125 326.406 445.215 326.406 452.728V548.803C326.406 556.316 332.497 562.406 340.01 562.406H436.084C443.597 562.406 449.687 556.316 449.687 548.803V452.728C449.687 445.215 443.597 439.125 436.084 439.125Z" stroke="url(#paint158_linear_907_1451)" stroke-width="1.27532"/>
</g>
<defs>
<linearGradient id="paint0_linear_907_1451" x1="1251.64" y1="562" x2="1251.64" y2="685.281" gradientUnits="userSpaceOnUse">
<stop stop-color="#0D1722"/>
<stop offset="1" stop-color="#131C25"/>
</linearGradient>
<linearGradient id="paint1_linear_907_1451" x1="1374.92" y1="562" x2="1374.92" y2="685.281" gradientUnits="userSpaceOnUse">
<stop stop-color="#182129"/>
<stop offset="1" stop-color="#182029"/>
</linearGradient>
<linearGradient id="paint2_linear_907_1451" x1="1498.2" y1="562" x2="1498.2" y2="685.281" gradientUnits="userSpaceOnUse">
<stop stop-color="#1D252D"/>
<stop offset="1" stop-color="#272D33"/>
<stop offset="1" stop-color="#272E35"/>
</linearGradient>
<linearGradient id="paint3_linear_907_1451" x1="1621.48" y1="562" x2="1621.48" y2="685.281" gradientUnits="userSpaceOnUse">
<stop stop-color="#232A32"/>
<stop offset="1" stop-color="#30353B"/>
</linearGradient>
<linearGradient id="paint4_linear_907_1451" x1="1744.76" y1="562" x2="1744.76" y2="685.281" gradientUnits="userSpaceOnUse">
<stop stop-color="#282E35"/>
<stop offset="1" stop-color="#393C41"/>
</linearGradient>
<linearGradient id="paint5_linear_907_1451" x1="1868.05" y1="562" x2="1868.05" y2="685.281" gradientUnits="userSpaceOnUse">
<stop stop-color="#30353B"/>
<stop offset="1" stop-color="#3B3E43"/>
</linearGradient>
<linearGradient id="paint6_linear_907_1451" x1="1251.64" y1="685.281" x2="1251.64" y2="808.562" gradientUnits="userSpaceOnUse">
<stop stop-color="#121B25"/>
<stop offset="1" stop-color="#121B25"/>
</linearGradient>
<linearGradient id="paint7_linear_907_1451" x1="1374.92" y1="685.281" x2="1374.92" y2="808.562" gradientUnits="userSpaceOnUse">
<stop stop-color="#182029"/>
<stop offset="1" stop-color="#19212A"/>
</linearGradient>
<linearGradient id="paint8_linear_907_1451" x1="1498.2" y1="685.281" x2="1498.2" y2="808.562" gradientUnits="userSpaceOnUse">
<stop stop-color="#272D33"/>
<stop offset="1" stop-color="#262C34"/>
</linearGradient>
<linearGradient id="paint9_linear_907_1451" x1="1621.48" y1="685.281" x2="1621.48" y2="808.562" gradientUnits="userSpaceOnUse">
<stop stop-color="#292F36"/>
<stop offset="1" stop-color="#272D34"/>
</linearGradient>
<linearGradient id="paint10_linear_907_1451" x1="1744.76" y1="685.281" x2="1744.76" y2="808.562" gradientUnits="userSpaceOnUse">
<stop stop-color="#292F35"/>
<stop offset="1" stop-color="#2F353A"/>
</linearGradient>
<linearGradient id="paint11_linear_907_1451" x1="1868.05" y1="685.281" x2="1868.05" y2="808.562" gradientUnits="userSpaceOnUse">
<stop stop-color="#3A3E42"/>
<stop offset="1" stop-color="#373B40"/>
</linearGradient>
<linearGradient id="paint12_linear_907_1451" x1="1251.64" y1="808.562" x2="1251.64" y2="931.844" gradientUnits="userSpaceOnUse">
<stop stop-color="#101A23"/>
<stop offset="1" stop-color="#0A1520"/>
</linearGradient>
<linearGradient id="paint13_linear_907_1451" x1="1374.92" y1="808.562" x2="1374.92" y2="931.844" gradientUnits="userSpaceOnUse">
<stop stop-color="#1D242C"/>
<stop offset="1" stop-color="#131C26"/>
</linearGradient>
<linearGradient id="paint14_linear_907_1451" x1="1498.2" y1="808.562" x2="1498.2" y2="931.844" gradientUnits="userSpaceOnUse">
<stop stop-color="#1F272E"/>
<stop offset="1" stop-color="#151E27"/>
</linearGradient>
<linearGradient id="paint15_linear_907_1451" x1="1744.76" y1="808.562" x2="1744.76" y2="931.844" gradientUnits="userSpaceOnUse">
<stop stop-color="#2F343A"/>
<stop offset="1" stop-color="#242B32"/>
</linearGradient>
<linearGradient id="paint16_linear_907_1451" x1="1868.05" y1="808.562" x2="1868.05" y2="931.844" gradientUnits="userSpaceOnUse">
<stop stop-color="#373B3F"/>
<stop offset="1" stop-color="#252C33"/>
</linearGradient>
<linearGradient id="paint17_linear_907_1451" x1="1251.64" y1="931.844" x2="1251.64" y2="1055.12" gradientUnits="userSpaceOnUse">
<stop stop-color="#0B1620"/>
<stop offset="1" stop-color="#05101C"/>
</linearGradient>
<linearGradient id="paint18_linear_907_1451" x1="1374.92" y1="931.844" x2="1374.92" y2="1055.12" gradientUnits="userSpaceOnUse">
<stop stop-color="#0F1923"/>
<stop offset="1" stop-color="#07131E"/>
</linearGradient>
<linearGradient id="paint19_linear_907_1451" x1="1498.2" y1="931.844" x2="1498.2" y2="1055.12" gradientUnits="userSpaceOnUse">
<stop stop-color="#141E27"/>
<stop offset="1" stop-color="#0A151F"/>
</linearGradient>
<linearGradient id="paint20_linear_907_1451" x1="1621.48" y1="931.844" x2="1621.48" y2="1055.12" gradientUnits="userSpaceOnUse">
<stop stop-color="#1A222B"/>
<stop offset="1" stop-color="#0C1721"/>
</linearGradient>
<linearGradient id="paint21_linear_907_1451" x1="1744.76" y1="931.844" x2="1744.76" y2="1055.12" gradientUnits="userSpaceOnUse">
<stop stop-color="#242B32"/>
<stop offset="1" stop-color="#101A24"/>
</linearGradient>
<linearGradient id="paint22_linear_907_1451" x1="1868.05" y1="931.844" x2="1868.05" y2="1055.12" gradientUnits="userSpaceOnUse">
<stop stop-color="#262D34"/>
<stop offset="1" stop-color="#111B25"/>
</linearGradient>
<linearGradient id="paint23_linear_907_1451" x1="1251.64" y1="1055.12" x2="1251.64" y2="1178.4" gradientUnits="userSpaceOnUse">
<stop stop-color="#05101C"/>
<stop offset="1" stop-color="#04101B"/>
</linearGradient>
<linearGradient id="paint24_linear_907_1451" x1="1374.92" y1="1055.12" x2="1374.92" y2="1178.4" gradientUnits="userSpaceOnUse">
<stop stop-color="#07121E"/>
<stop offset="1" stop-color="#06111D"/>
</linearGradient>
<linearGradient id="paint25_linear_907_1451" x1="1498.2" y1="1055.12" x2="1498.2" y2="1178.4" gradientUnits="userSpaceOnUse">
<stop stop-color="#0A141F"/>
<stop offset="1" stop-color="#08131E"/>
</linearGradient>
<linearGradient id="paint26_linear_907_1451" x1="1621.48" y1="1055.12" x2="1621.48" y2="1178.4" gradientUnits="userSpaceOnUse">
<stop stop-color="#0C1621"/>
<stop offset="1" stop-color="#0A141F"/>
</linearGradient>
<linearGradient id="paint27_linear_907_1451" x1="1744.76" y1="1055.12" x2="1744.76" y2="1178.4" gradientUnits="userSpaceOnUse">
<stop stop-color="#0E1823"/>
<stop offset="1" stop-color="#0B1620"/>
</linearGradient>
<linearGradient id="paint28_linear_907_1451" x1="1868.05" y1="1055.12" x2="1868.05" y2="1178.4" gradientUnits="userSpaceOnUse">
<stop stop-color="#111A24"/>
<stop offset="1" stop-color="#595959" stop-opacity="0"/>
</linearGradient>
<linearGradient id="paint29_linear_907_1451" x1="1559.84" y1="572.203" x2="2152.44" y2="1305.51" gradientUnits="userSpaceOnUse">
<stop stop-color="#152E52"/>
<stop offset="0.259815" stop-color="#274A72"/>
<stop offset="0.551485" stop-color="#0E2234"/>
<stop offset="0.765322" stop-color="#0E2030"/>
<stop offset="0.9375" stop-color="#78D2F8"/>
</linearGradient>
<linearGradient id="paint30_linear_907_1451" x1="1251.64" y1="-54" x2="1251.64" y2="69.281" gradientUnits="userSpaceOnUse">
<stop stop-color="#010D19"/>
<stop offset="1" stop-color="#07121D"/>
</linearGradient>
<linearGradient id="paint31_linear_907_1451" x1="1374.92" y1="-54" x2="1374.92" y2="69.281" gradientUnits="userSpaceOnUse">
<stop stop-color="#010D19"/>
<stop offset="1" stop-color="#09141F"/>
</linearGradient>
<linearGradient id="paint32_linear_907_1451" x1="1498.2" y1="-54" x2="1498.2" y2="69.281" gradientUnits="userSpaceOnUse">
<stop stop-color="#010D19"/>
<stop offset="1" stop-color="#0A1520"/>
</linearGradient>
<linearGradient id="paint33_linear_907_1451" x1="1621.48" y1="-54" x2="1621.48" y2="69.281" gradientUnits="userSpaceOnUse">
<stop stop-color="#010D19"/>
<stop offset="1" stop-color="#0C1721"/>
</linearGradient>
<linearGradient id="paint34_linear_907_1451" x1="1744.76" y1="-54" x2="1744.76" y2="69.281" gradientUnits="userSpaceOnUse">
<stop stop-color="#010D19"/>
<stop offset="1" stop-color="#111B25"/>
</linearGradient>
<linearGradient id="paint35_linear_907_1451" x1="1868.05" y1="-54" x2="1868.05" y2="69.281" gradientUnits="userSpaceOnUse">
<stop stop-color="#010D19"/>
<stop offset="1" stop-color="#121C26"/>
</linearGradient>
<linearGradient id="paint36_linear_907_1451" x1="1251.64" y1="69.2812" x2="1251.64" y2="192.562" gradientUnits="userSpaceOnUse">
<stop stop-color="#06111D"/>
<stop offset="1" stop-color="#06121D"/>
</linearGradient>
<linearGradient id="paint37_linear_907_1451" x1="1374.92" y1="69.2812" x2="1374.92" y2="192.562" gradientUnits="userSpaceOnUse">
<stop stop-color="#09141F"/>
<stop offset="1" stop-color="#09141F"/>
</linearGradient>
<linearGradient id="paint38_linear_907_1451" x1="1498.2" y1="69.2812" x2="1498.2" y2="192.562" gradientUnits="userSpaceOnUse">
<stop stop-color="#0A1520"/>
<stop offset="1" stop-color="#0B1520"/>
</linearGradient>
<linearGradient id="paint39_linear_907_1451" x1="1621.48" y1="69.2812" x2="1621.48" y2="192.562" gradientUnits="userSpaceOnUse">
<stop stop-color="#0C1721"/>
<stop offset="1" stop-color="#0D1822"/>
</linearGradient>
<linearGradient id="paint40_linear_907_1451" x1="1744.76" y1="69.2812" x2="1744.76" y2="192.562" gradientUnits="userSpaceOnUse">
<stop stop-color="#111B24"/>
<stop offset="1" stop-color="#111B25"/>
</linearGradient>
<linearGradient id="paint41_linear_907_1451" x1="1868.05" y1="69.2812" x2="1868.05" y2="192.562" gradientUnits="userSpaceOnUse">
<stop stop-color="#121C26"/>
<stop offset="1" stop-color="#121B25"/>
</linearGradient>
<linearGradient id="paint42_linear_907_1451" x1="1251.64" y1="192.562" x2="1251.64" y2="315.843" gradientUnits="userSpaceOnUse">
<stop stop-color="#06111D"/>
<stop offset="1" stop-color="#0A1520"/>
</linearGradient>
<linearGradient id="paint43_linear_907_1451" x1="1374.92" y1="192.562" x2="1374.92" y2="315.843" gradientUnits="userSpaceOnUse">
<stop stop-color="#09141F"/>
<stop offset="1" stop-color="#101A24"/>
</linearGradient>
<linearGradient id="paint44_linear_907_1451" x1="1498.2" y1="192.562" x2="1498.2" y2="315.843" gradientUnits="userSpaceOnUse">
<stop stop-color="#0B1520"/>
<stop offset="1" stop-color="#131C26"/>
</linearGradient>
<linearGradient id="paint45_linear_907_1451" x1="1621.48" y1="192.562" x2="1621.48" y2="315.843" gradientUnits="userSpaceOnUse">
<stop stop-color="#0E1822"/>
<stop offset="1" stop-color="#19222A"/>
</linearGradient>
<linearGradient id="paint46_linear_907_1451" x1="1744.76" y1="192.562" x2="1744.76" y2="315.843" gradientUnits="userSpaceOnUse">
<stop stop-color="#111B25"/>
<stop offset="1" stop-color="#1E262E"/>
</linearGradient>
<linearGradient id="paint47_linear_907_1451" x1="1868.05" y1="192.562" x2="1868.05" y2="315.843" gradientUnits="userSpaceOnUse">
<stop stop-color="#111B25"/>
<stop offset="1" stop-color="#1F272F"/>
</linearGradient>
<linearGradient id="paint48_linear_907_1451" x1="1251.64" y1="315.844" x2="1251.64" y2="439.125" gradientUnits="userSpaceOnUse">
<stop stop-color="#09141F"/>
<stop offset="1" stop-color="#0D1721"/>
</linearGradient>
<linearGradient id="paint49_linear_907_1451" x1="1374.92" y1="315.844" x2="1374.92" y2="439.125" gradientUnits="userSpaceOnUse">
<stop stop-color="#0F1923"/>
<stop offset="1" stop-color="#161F28"/>
</linearGradient>
<linearGradient id="paint50_linear_907_1451" x1="1498.2" y1="315.844" x2="1498.2" y2="439.125" gradientUnits="userSpaceOnUse">
<stop stop-color="#131D26"/>
<stop offset="1" stop-color="#1D252D"/>
</linearGradient>
<linearGradient id="paint51_linear_907_1451" x1="1621.48" y1="315.844" x2="1621.48" y2="439.125" gradientUnits="userSpaceOnUse">
<stop stop-color="#19222B"/>
<stop offset="1" stop-color="#242B32"/>
</linearGradient>
<linearGradient id="paint52_linear_907_1451" x1="1744.76" y1="315.844" x2="1744.76" y2="439.125" gradientUnits="userSpaceOnUse">
<stop stop-color="#1A232B"/>
<stop offset="1" stop-color="#262D33"/>
</linearGradient>
<linearGradient id="paint53_linear_907_1451" x1="1868.05" y1="315.844" x2="1868.05" y2="439.125" gradientUnits="userSpaceOnUse">
<stop stop-color="#1F272F"/>
<stop offset="1" stop-color="#2C3239"/>
</linearGradient>
<linearGradient id="paint54_linear_907_1451" x1="1251.64" y1="439.125" x2="1251.64" y2="562.406" gradientUnits="userSpaceOnUse">
<stop stop-color="#0E1822"/>
<stop offset="1" stop-color="#121B25"/>
</linearGradient>
<linearGradient id="paint55_linear_907_1451" x1="1374.92" y1="439.125" x2="1374.92" y2="562.406" gradientUnits="userSpaceOnUse">
<stop stop-color="#141D26"/>
<stop offset="1" stop-color="#1B222B"/>
</linearGradient>
<linearGradient id="paint56_linear_907_1451" x1="1498.2" y1="439.125" x2="1498.2" y2="562.406" gradientUnits="userSpaceOnUse">
<stop stop-color="#1A232C"/>
<stop offset="1" stop-color="#222930"/>
</linearGradient>
<linearGradient id="paint57_linear_907_1451" x1="1621.48" y1="439.125" x2="1621.48" y2="562.406" gradientUnits="userSpaceOnUse">
<stop stop-color="#292F36"/>
<stop offset="1" stop-color="#272D34"/>
</linearGradient>
<linearGradient id="paint58_linear_907_1451" x1="1744.76" y1="439.125" x2="1744.76" y2="562.406" gradientUnits="userSpaceOnUse">
<stop stop-color="#2B3138"/>
<stop offset="1" stop-color="#383C41"/>
</linearGradient>
<linearGradient id="paint59_linear_907_1451" x1="1868.05" y1="439.125" x2="1868.05" y2="562.406" gradientUnits="userSpaceOnUse">
<stop stop-color="#2C3238"/>
<stop offset="1" stop-color="#3B3E42"/>
</linearGradient>
<linearGradient id="paint60_linear_907_1451" x1="511.641" y1="562" x2="511.641" y2="685.281" gradientUnits="userSpaceOnUse">
<stop stop-color="#07121D"/>
<stop offset="1" stop-color="#595959" stop-opacity="0"/>
<stop offset="1" stop-color="#09131E"/>
</linearGradient>
<linearGradient id="paint61_linear_907_1451" x1="634.922" y1="562" x2="634.922" y2="685.281" gradientUnits="userSpaceOnUse">
<stop stop-color="#08131E"/>
<stop offset="1" stop-color="#0A151F"/>
</linearGradient>
<linearGradient id="paint62_linear_907_1451" x1="758.203" y1="562" x2="758.203" y2="685.281" gradientUnits="userSpaceOnUse">
<stop stop-color="#09141F"/>
<stop offset="1" stop-color="#0C1620"/>
</linearGradient>
<linearGradient id="paint63_linear_907_1451" x1="881.484" y1="562" x2="881.484" y2="685.281" gradientUnits="userSpaceOnUse">
<stop stop-color="#0A141F"/>
<stop offset="1" stop-color="#0D1621"/>
</linearGradient>
<linearGradient id="paint64_linear_907_1451" x1="1004.76" y1="562" x2="1004.76" y2="685.281" gradientUnits="userSpaceOnUse">
<stop stop-color="#0B1520"/>
<stop offset="1" stop-color="#0D1722"/>
</linearGradient>
<linearGradient id="paint65_linear_907_1451" x1="1128.05" y1="562" x2="1128.05" y2="685.281" gradientUnits="userSpaceOnUse">
<stop stop-color="#0B1520"/>
<stop offset="1" stop-color="#0F1922"/>
</linearGradient>
<linearGradient id="paint66_linear_907_1451" x1="511.641" y1="685.281" x2="511.641" y2="808.562" gradientUnits="userSpaceOnUse">
<stop stop-color="#09131F"/>
<stop offset="1" stop-color="#09141E"/>
</linearGradient>
<linearGradient id="paint67_linear_907_1451" x1="634.922" y1="685.281" x2="634.922" y2="808.562" gradientUnits="userSpaceOnUse">
<stop stop-color="#0A141F"/>
<stop offset="1" stop-color="#0B1420"/>
</linearGradient>
<linearGradient id="paint68_linear_907_1451" x1="758.203" y1="685.281" x2="758.203" y2="808.562" gradientUnits="userSpaceOnUse">
<stop stop-color="#0B1520"/>
<stop offset="1" stop-color="#0B1521"/>
</linearGradient>
<linearGradient id="paint69_linear_907_1451" x1="881.484" y1="685.281" x2="881.484" y2="808.562" gradientUnits="userSpaceOnUse">
<stop stop-color="#0D1621"/>
<stop offset="1" stop-color="#595959" stop-opacity="0"/>
<stop offset="1" stop-color="#0C1721"/>
</linearGradient>
<linearGradient id="paint70_linear_907_1451" x1="1004.76" y1="685.281" x2="1004.76" y2="808.562" gradientUnits="userSpaceOnUse">
<stop stop-color="#0D1722"/>
<stop offset="1" stop-color="#0D1722"/>
</linearGradient>
<linearGradient id="paint71_linear_907_1451" x1="1128.05" y1="685.281" x2="1128.05" y2="808.562" gradientUnits="userSpaceOnUse">
<stop stop-color="#0F1922"/>
<stop offset="1" stop-color="#0F1823"/>
</linearGradient>
<linearGradient id="paint72_linear_907_1451" x1="511.641" y1="808.562" x2="511.641" y2="931.844" gradientUnits="userSpaceOnUse">
<stop stop-color="#09141F"/>
<stop offset="1" stop-color="#06111C"/>
</linearGradient>
<linearGradient id="paint73_linear_907_1451" x1="634.922" y1="808.562" x2="634.922" y2="931.844" gradientUnits="userSpaceOnUse">
<stop stop-color="#0A1420"/>
<stop offset="1" stop-color="#07121D"/>
</linearGradient>
<linearGradient id="paint74_linear_907_1451" x1="758.203" y1="808.562" x2="758.203" y2="931.844" gradientUnits="userSpaceOnUse">
<stop stop-color="#0B1620"/>
<stop offset="1" stop-color="#07131E"/>
</linearGradient>
<linearGradient id="paint75_linear_907_1451" x1="881.484" y1="808.562" x2="881.484" y2="931.844" gradientUnits="userSpaceOnUse">
<stop stop-color="#0C1721"/>
<stop offset="1" stop-color="#08131E"/>
</linearGradient>
<linearGradient id="paint76_linear_907_1451" x1="1004.76" y1="808.562" x2="1004.76" y2="931.844" gradientUnits="userSpaceOnUse">
<stop stop-color="#0D1722"/>
<stop offset="1" stop-color="#09141F"/>
</linearGradient>
<linearGradient id="paint77_linear_907_1451" x1="1128.05" y1="808.562" x2="1128.05" y2="931.844" gradientUnits="userSpaceOnUse">
<stop stop-color="#0F1723"/>
<stop offset="1" stop-color="#09141F"/>
</linearGradient>
<linearGradient id="paint78_linear_907_1451" x1="511.641" y1="931.844" x2="511.641" y2="1055.12" gradientUnits="userSpaceOnUse">
<stop stop-color="#06111C"/>
<stop offset="1" stop-color="#030F1B"/>
</linearGradient>
<linearGradient id="paint79_linear_907_1451" x1="634.922" y1="931.844" x2="634.922" y2="1055.12" gradientUnits="userSpaceOnUse">
<stop stop-color="#07121D"/>
<stop offset="1" stop-color="#030F1B"/>
</linearGradient>
<linearGradient id="paint80_linear_907_1451" x1="758.203" y1="931.844" x2="758.203" y2="1055.12" gradientUnits="userSpaceOnUse">
<stop stop-color="#07131E"/>
<stop offset="1" stop-color="#040F1B"/>
</linearGradient>
<linearGradient id="paint81_linear_907_1451" x1="881.484" y1="931.844" x2="881.484" y2="1055.12" gradientUnits="userSpaceOnUse">
<stop stop-color="#08131E"/>
<stop offset="1" stop-color="#04101B"/>
</linearGradient>
<linearGradient id="paint82_linear_907_1451" x1="1004.76" y1="931.844" x2="1004.76" y2="1055.12" gradientUnits="userSpaceOnUse">
<stop stop-color="#09141F"/>
<stop offset="1" stop-color="#05101C"/>
</linearGradient>
<linearGradient id="paint83_linear_907_1451" x1="1128.05" y1="931.844" x2="1128.05" y2="1055.12" gradientUnits="userSpaceOnUse">
<stop stop-color="#0A141F"/>
<stop offset="1" stop-color="#05101C"/>
</linearGradient>
<linearGradient id="paint84_linear_907_1451" x1="511.641" y1="1055.12" x2="511.641" y2="1178.4" gradientUnits="userSpaceOnUse">
<stop stop-color="#030F1B"/>
<stop offset="1" stop-color="#030F1A"/>
</linearGradient>
<linearGradient id="paint85_linear_907_1451" x1="634.922" y1="1055.12" x2="634.922" y2="1178.4" gradientUnits="userSpaceOnUse">
<stop stop-color="#030F1B"/>
<stop offset="1" stop-color="#030F1B"/>
</linearGradient>
<linearGradient id="paint86_linear_907_1451" x1="758.203" y1="1055.12" x2="758.203" y2="1178.4" gradientUnits="userSpaceOnUse">
<stop stop-color="#040F1B"/>
<stop offset="1" stop-color="#030F1B"/>
</linearGradient>
<linearGradient id="paint87_linear_907_1451" x1="881.484" y1="1055.12" x2="881.484" y2="1178.4" gradientUnits="userSpaceOnUse">
<stop stop-color="#04101B"/>
<stop offset="1" stop-color="#040F1B"/>
</linearGradient>
<linearGradient id="paint88_linear_907_1451" x1="1004.76" y1="1055.12" x2="1004.76" y2="1178.4" gradientUnits="userSpaceOnUse">
<stop stop-color="#04101C"/>
<stop offset="1" stop-color="#040F1B"/>
</linearGradient>
<linearGradient id="paint89_linear_907_1451" x1="1128.05" y1="1055.12" x2="1128.05" y2="1178.4" gradientUnits="userSpaceOnUse">
<stop stop-color="#05101C"/>
<stop offset="1" stop-color="#04101B"/>
</linearGradient>
<linearGradient id="paint90_linear_907_1451" x1="511.641" y1="-54" x2="511.641" y2="69.281" gradientUnits="userSpaceOnUse">
<stop stop-color="#010D19"/>
<stop offset="1" stop-color="#030F1B"/>
</linearGradient>
<linearGradient id="paint91_linear_907_1451" x1="634.922" y1="-54" x2="634.922" y2="69.281" gradientUnits="userSpaceOnUse">
<stop stop-color="#010D19"/>
<stop offset="1" stop-color="#04101B"/>
</linearGradient>
<linearGradient id="paint92_linear_907_1451" x1="758.203" y1="-54" x2="758.203" y2="69.281" gradientUnits="userSpaceOnUse">
<stop stop-color="#010D19"/>
<stop offset="1" stop-color="#04101B"/>
</linearGradient>
<linearGradient id="paint93_linear_907_1451" x1="881.484" y1="-54" x2="881.484" y2="69.281" gradientUnits="userSpaceOnUse">
<stop stop-color="#010D19"/>
<stop offset="1" stop-color="#05101C"/>
</linearGradient>
<linearGradient id="paint94_linear_907_1451" x1="1004.76" y1="-54" x2="1004.76" y2="69.281" gradientUnits="userSpaceOnUse">
<stop stop-color="#010D19"/>
<stop offset="1" stop-color="#05101C"/>
</linearGradient>
<linearGradient id="paint95_linear_907_1451" x1="1128.05" y1="-54" x2="1128.05" y2="69.281" gradientUnits="userSpaceOnUse">
<stop stop-color="#010D19"/>
<stop offset="1" stop-color="#05111C"/>
</linearGradient>
<linearGradient id="paint96_linear_907_1451" x1="511.641" y1="69.2812" x2="511.641" y2="192.562" gradientUnits="userSpaceOnUse">
<stop stop-color="#030F1B"/>
<stop offset="1" stop-color="#595959" stop-opacity="0"/>
<stop offset="1" stop-color="#030F1B"/>
</linearGradient>
<linearGradient id="paint97_linear_907_1451" x1="634.922" y1="69.2812" x2="634.922" y2="192.562" gradientUnits="userSpaceOnUse">
<stop stop-color="#030F1B"/>
<stop offset="1" stop-color="#030F1B"/>
</linearGradient>
<linearGradient id="paint98_linear_907_1451" x1="758.203" y1="69.2812" x2="758.203" y2="192.562" gradientUnits="userSpaceOnUse">
<stop stop-color="#04101B"/>
<stop offset="1" stop-color="#04101B"/>
</linearGradient>
<linearGradient id="paint99_linear_907_1451" x1="881.484" y1="69.2812" x2="881.484" y2="192.562" gradientUnits="userSpaceOnUse">
<stop stop-color="#04101C"/>
<stop offset="1" stop-color="#04101C"/>
</linearGradient>
<linearGradient id="paint100_linear_907_1451" x1="1004.76" y1="69.2812" x2="1004.76" y2="192.562" gradientUnits="userSpaceOnUse">
<stop stop-color="#05101C"/>
<stop offset="1" stop-color="#05101C"/>
</linearGradient>
<linearGradient id="paint101_linear_907_1451" x1="1128.05" y1="69.2812" x2="1128.05" y2="192.562" gradientUnits="userSpaceOnUse">
<stop stop-color="#05101C"/>
<stop offset="1" stop-color="#05101C"/>
</linearGradient>
<linearGradient id="paint102_linear_907_1451" x1="511.641" y1="192.562" x2="511.641" y2="315.843" gradientUnits="userSpaceOnUse">
<stop stop-color="#030F1B"/>
<stop offset="1" stop-color="#595959" stop-opacity="0"/>
<stop offset="1" stop-color="#05111C"/>
</linearGradient>
<linearGradient id="paint103_linear_907_1451" x1="634.922" y1="192.562" x2="634.922" y2="315.843" gradientUnits="userSpaceOnUse">
<stop stop-color="#030F1B"/>
<stop offset="1" stop-color="#06111D"/>
</linearGradient>
<linearGradient id="paint104_linear_907_1451" x1="758.203" y1="192.562" x2="758.203" y2="315.843" gradientUnits="userSpaceOnUse">
<stop stop-color="#04101B"/>
<stop offset="1" stop-color="#06111D"/>
</linearGradient>
<linearGradient id="paint105_linear_907_1451" x1="881.484" y1="192.562" x2="881.484" y2="315.843" gradientUnits="userSpaceOnUse">
<stop stop-color="#04101C"/>
<stop offset="1" stop-color="#07121D"/>
</linearGradient>
<linearGradient id="paint106_linear_907_1451" x1="1004.76" y1="192.562" x2="1004.76" y2="315.843" gradientUnits="userSpaceOnUse">
<stop stop-color="#05101C"/>
<stop offset="1" stop-color="#07121E"/>
</linearGradient>
<linearGradient id="paint107_linear_907_1451" x1="1128.05" y1="192.562" x2="1128.05" y2="315.843" gradientUnits="userSpaceOnUse">
<stop stop-color="#05111C"/>
<stop offset="1" stop-color="#08131E"/>
</linearGradient>
<linearGradient id="paint108_linear_907_1451" x1="511.641" y1="315.844" x2="511.641" y2="439.125" gradientUnits="userSpaceOnUse">
<stop stop-color="#05111C"/>
<stop offset="1" stop-color="#07121D"/>
</linearGradient>
<linearGradient id="paint109_linear_907_1451" x1="634.922" y1="315.844" x2="634.922" y2="439.125" gradientUnits="userSpaceOnUse">
<stop stop-color="#06111D"/>
<stop offset="1" stop-color="#08121E"/>
</linearGradient>
<linearGradient id="paint110_linear_907_1451" x1="758.203" y1="315.844" x2="758.203" y2="439.125" gradientUnits="userSpaceOnUse">
<stop stop-color="#06111D"/>
<stop offset="1" stop-color="#09131F"/>
</linearGradient>
<linearGradient id="paint111_linear_907_1451" x1="881.484" y1="315.844" x2="881.484" y2="439.125" gradientUnits="userSpaceOnUse">
<stop stop-color="#07121D"/>
<stop offset="1" stop-color="#09141F"/>
</linearGradient>
<linearGradient id="paint112_linear_907_1451" x1="1004.76" y1="315.844" x2="1004.76" y2="439.125" gradientUnits="userSpaceOnUse">
<stop stop-color="#07121E"/>
<stop offset="1" stop-color="#0A1520"/>
</linearGradient>
<linearGradient id="paint113_linear_907_1451" x1="1128.05" y1="315.844" x2="1128.05" y2="439.125" gradientUnits="userSpaceOnUse">
<stop stop-color="#08131E"/>
<stop offset="1" stop-color="#0B1620"/>
</linearGradient>
<linearGradient id="paint114_linear_907_1451" x1="511.641" y1="439.125" x2="511.641" y2="562.406" gradientUnits="userSpaceOnUse">
<stop stop-color="#07121D"/>
<stop offset="1" stop-color="#09131F"/>
</linearGradient>
<linearGradient id="paint115_linear_907_1451" x1="634.922" y1="439.125" x2="634.922" y2="562.406" gradientUnits="userSpaceOnUse">
<stop stop-color="#08121E"/>
<stop offset="1" stop-color="#0A141F"/>
</linearGradient>
<linearGradient id="paint116_linear_907_1451" x1="758.203" y1="439.125" x2="758.203" y2="562.406" gradientUnits="userSpaceOnUse">
<stop stop-color="#0B1520"/>
<stop offset="1" stop-color="#595959" stop-opacity="0"/>
</linearGradient>
<linearGradient id="paint117_linear_907_1451" x1="881.484" y1="439.125" x2="881.484" y2="562.406" gradientUnits="userSpaceOnUse">
<stop stop-color="#0A141F"/>
<stop offset="1" stop-color="#0D1621"/>
</linearGradient>
<linearGradient id="paint118_linear_907_1451" x1="1004.76" y1="439.125" x2="1004.76" y2="562.406" gradientUnits="userSpaceOnUse">
<stop stop-color="#0A1520"/>
<stop offset="1" stop-color="#0D1722"/>
</linearGradient>
<linearGradient id="paint119_linear_907_1451" x1="1128.05" y1="439.125" x2="1128.05" y2="562.406" gradientUnits="userSpaceOnUse">
<stop stop-color="#0B1620"/>
<stop offset="1" stop-color="#0F1922"/>
</linearGradient>
<linearGradient id="paint120_linear_907_1451" x1="53.5" y1="562" x2="54.5" y2="685" gradientUnits="userSpaceOnUse">
<stop stop-color="#040F1B"/>
<stop offset="1" stop-color="#05101C"/>
</linearGradient>
<linearGradient id="paint121_linear_907_1451" x1="163" y1="562" x2="163" y2="685" gradientUnits="userSpaceOnUse">
<stop stop-color="#04101B"/>
<stop offset="1" stop-color="#05101C"/>
</linearGradient>
<linearGradient id="paint122_linear_907_1451" x1="264.766" y1="562" x2="264.766" y2="685.281" gradientUnits="userSpaceOnUse">
<stop stop-color="#05101C"/>
<stop offset="1" stop-color="#07111C"/>
</linearGradient>
<linearGradient id="paint123_linear_907_1451" x1="388.047" y1="562" x2="388.047" y2="685.281" gradientUnits="userSpaceOnUse">
<stop stop-color="#06111C"/>
<stop offset="1" stop-color="#07121D"/>
</linearGradient>
<linearGradient id="paint124_linear_907_1451" x1="30.5" y1="685" x2="30.5" y2="809" gradientUnits="userSpaceOnUse">
<stop stop-color="#05101C"/>
<stop offset="1" stop-color="#05101C"/>
</linearGradient>
<linearGradient id="paint125_linear_907_1451" x1="159" y1="685" x2="157" y2="809" gradientUnits="userSpaceOnUse">
<stop stop-color="#06101C"/>
<stop offset="1" stop-color="#06111C"/>
</linearGradient>
<linearGradient id="paint126_linear_907_1451" x1="264.766" y1="685.281" x2="264.766" y2="808.562" gradientUnits="userSpaceOnUse">
<stop stop-color="#07111C"/>
<stop offset="1" stop-color="#07111D"/>
</linearGradient>
<linearGradient id="paint127_linear_907_1451" x1="388.047" y1="685.281" x2="388.047" y2="808.562" gradientUnits="userSpaceOnUse">
<stop stop-color="#07121D"/>
<stop offset="1" stop-color="#08121D"/>
</linearGradient>
<linearGradient id="paint128_linear_907_1451" x1="26.5" y1="932" x2="29.5" y2="809" gradientUnits="userSpaceOnUse">
<stop stop-color="#030F1A"/>
<stop offset="1" stop-color="#05101B"/>
</linearGradient>
<linearGradient id="paint129_linear_907_1451" x1="152.5" y1="809" x2="151.5" y2="962" gradientUnits="userSpaceOnUse">
<stop stop-color="#05111C"/>
<stop offset="1" stop-color="#030F1B"/>
</linearGradient>
<linearGradient id="paint130_linear_907_1451" x1="264.766" y1="808.562" x2="264.766" y2="931.844" gradientUnits="userSpaceOnUse">
<stop stop-color="#07121D"/>
<stop offset="1" stop-color="#05101C"/>
</linearGradient>
<linearGradient id="paint131_linear_907_1451" x1="388.047" y1="808.562" x2="388.047" y2="931.844" gradientUnits="userSpaceOnUse">
<stop stop-color="#08121D"/>
<stop offset="1" stop-color="#05101C"/>
</linearGradient>
<linearGradient id="paint132_linear_907_1451" x1="80" y1="986" x2="-43" y2="986" gradientUnits="userSpaceOnUse">
<stop stop-color="#595959" stop-opacity="0.01"/>
<stop offset="1" stop-color="#595959" stop-opacity="0.02"/>
</linearGradient>
<linearGradient id="paint133_linear_907_1451" x1="159.5" y1="932" x2="158.5" y2="1062" gradientUnits="userSpaceOnUse">
<stop stop-color="#030F1B"/>
<stop offset="1" stop-color="#010D19"/>
</linearGradient>
<linearGradient id="paint134_linear_907_1451" x1="264.766" y1="931.844" x2="264.766" y2="1055.12" gradientUnits="userSpaceOnUse">
<stop stop-color="#04101B"/>
<stop offset="1" stop-color="#030E1A"/>
</linearGradient>
<linearGradient id="paint135_linear_907_1451" x1="388.047" y1="931.844" x2="388.047" y2="1055.12" gradientUnits="userSpaceOnUse">
<stop stop-color="#05101C"/>
<stop offset="1" stop-color="#030F1A"/>
</linearGradient>
<linearGradient id="paint136_linear_907_1451" x1="18.203" y1="1055.12" x2="18.203" y2="1178.4" gradientUnits="userSpaceOnUse">
<stop stop-color="#010D19"/>
<stop offset="1" stop-color="#010D19"/>
</linearGradient>
<linearGradient id="paint137_linear_907_1451" x1="141" y1="1055" x2="141" y2="1178" gradientUnits="userSpaceOnUse">
<stop stop-color="#010D19"/>
<stop offset="1" stop-color="#020D19"/>
</linearGradient>
<linearGradient id="paint138_linear_907_1451" x1="264.766" y1="1055.12" x2="264.766" y2="1178.4" gradientUnits="userSpaceOnUse">
<stop stop-color="#030E1A"/>
<stop offset="1" stop-color="#030E1A"/>
</linearGradient>
<linearGradient id="paint139_linear_907_1451" x1="388.047" y1="1055.12" x2="388.047" y2="1178.4" gradientUnits="userSpaceOnUse">
<stop stop-color="#030F1A"/>
<stop offset="1" stop-color="#030E1A"/>
</linearGradient>
<linearGradient id="paint140_linear_907_1451" x1="141.484" y1="-54" x2="141.484" y2="69.281" gradientUnits="userSpaceOnUse">
<stop stop-color="#010D19"/>
<stop offset="1" stop-color="#020E1A"/>
</linearGradient>
<linearGradient id="paint141_linear_907_1451" x1="264.766" y1="-54" x2="264.766" y2="69.281" gradientUnits="userSpaceOnUse">
<stop stop-color="#010D19"/>
<stop offset="1" stop-color="#030E1A"/>
</linearGradient>
<linearGradient id="paint142_linear_907_1451" x1="388.047" y1="-54" x2="388.047" y2="69.281" gradientUnits="userSpaceOnUse">
<stop stop-color="#010D19"/>
<stop offset="1" stop-color="#030F1B"/>
</linearGradient>
<linearGradient id="paint143_linear_907_1451" x1="56" y1="57.5" x2="57" y2="193" gradientUnits="userSpaceOnUse">
<stop stop-color="#020E1A"/>
<stop offset="1" stop-color="#020E19"/>
</linearGradient>
<linearGradient id="paint144_linear_907_1451" x1="141.484" y1="69.2812" x2="141.484" y2="192.562" gradientUnits="userSpaceOnUse">
<stop stop-color="#020E1A"/>
<stop offset="1" stop-color="#020E19"/>
</linearGradient>
<linearGradient id="paint145_linear_907_1451" x1="264.766" y1="69.2812" x2="264.766" y2="192.562" gradientUnits="userSpaceOnUse">
<stop stop-color="#030E1A"/>
<stop offset="1" stop-color="#030E1A"/>
</linearGradient>
<linearGradient id="paint146_linear_907_1451" x1="388.047" y1="69.2812" x2="388.047" y2="192.562" gradientUnits="userSpaceOnUse">
<stop stop-color="#030F1B"/>
<stop offset="1" stop-color="#030F1B"/>
</linearGradient>
<linearGradient id="paint147_linear_907_1451" x1="33" y1="193" x2="31" y2="312" gradientUnits="userSpaceOnUse">
<stop stop-color="#020E1A"/>
<stop offset="1" stop-color="#020E1A"/>
</linearGradient>
<linearGradient id="paint148_linear_907_1451" x1="165.5" y1="193" x2="166.5" y2="316" gradientUnits="userSpaceOnUse">
<stop stop-color="#020E1A"/>
<stop offset="1" stop-color="#030F1B"/>
</linearGradient>
<linearGradient id="paint149_linear_907_1451" x1="264.766" y1="192.562" x2="264.766" y2="315.843" gradientUnits="userSpaceOnUse">
<stop stop-color="#030F1A"/>
<stop offset="1" stop-color="#040F1B"/>
</linearGradient>
<linearGradient id="paint150_linear_907_1451" x1="388.047" y1="192.562" x2="388.047" y2="315.843" gradientUnits="userSpaceOnUse">
<stop stop-color="#030F1A"/>
<stop offset="1" stop-color="#05101B"/>
</linearGradient>
<linearGradient id="paint151_linear_907_1451" x1="40.5" y1="314.5" x2="40" y2="439" gradientUnits="userSpaceOnUse">
<stop stop-color="#030F1B"/>
<stop offset="1" stop-color="#040F1B"/>
</linearGradient>
<linearGradient id="paint152_linear_907_1451" x1="159.5" y1="316" x2="160.5" y2="452" gradientUnits="userSpaceOnUse">
<stop stop-color="#030F1B"/>
<stop offset="1" stop-color="#04101B"/>
</linearGradient>
<linearGradient id="paint153_linear_907_1451" x1="264.766" y1="315.844" x2="264.766" y2="439.125" gradientUnits="userSpaceOnUse">
<stop stop-color="#040F1B"/>
<stop offset="1" stop-color="#05101C"/>
</linearGradient>
<linearGradient id="paint154_linear_907_1451" x1="388.047" y1="315.844" x2="388.047" y2="439.125" gradientUnits="userSpaceOnUse">
<stop stop-color="#05101B"/>
<stop offset="1" stop-color="#06111C"/>
</linearGradient>
<linearGradient id="paint155_linear_907_1451" x1="35.5" y1="439" x2="34" y2="559.5" gradientUnits="userSpaceOnUse">
<stop stop-color="#040F1B"/>
<stop offset="1" stop-color="#05101C"/>
</linearGradient>
<linearGradient id="paint156_linear_907_1451" x1="164" y1="439" x2="163.5" y2="562" gradientUnits="userSpaceOnUse">
<stop stop-color="#04101B"/>
<stop offset="1" stop-color="#05101C"/>
</linearGradient>
<linearGradient id="paint157_linear_907_1451" x1="264.766" y1="439.125" x2="264.766" y2="562.406" gradientUnits="userSpaceOnUse">
<stop stop-color="#05101C"/>
<stop offset="1" stop-color="#07111C"/>
</linearGradient>
<linearGradient id="paint158_linear_907_1451" x1="388.047" y1="439.125" x2="388.047" y2="562.406" gradientUnits="userSpaceOnUse">
<stop stop-color="#06111C"/>
<stop offset="1" stop-color="#07121D"/>
</linearGradient>
<clipPath id="clip0_907_1451">
<rect width="1921" height="1305" fill="white"/>
</clipPath>
</defs>
</svg>
