<svg width="1024" height="1024" viewBox="0 0 1024 1024" fill="none" xmlns="http://www.w3.org/2000/svg">
<rect width="1024" height="1024" rx="150" fill="#27354F"/>
<path fill-rule="evenodd" clip-rule="evenodd" d="M486.836 265.731C368.852 274.286 268.307 356.405 237.238 469.586C233.308 483.905 233.15 486.041 235.714 490.246C241.546 499.808 253.26 495.647 255.822 483.103C263.879 443.664 291.619 394.248 324.203 361.29C399.409 285.221 519.185 263.87 617.147 309.07C624.965 312.678 624.965 312.678 622.897 315.307C619.942 319.063 620.122 325.05 623.284 328.211C628.031 332.959 636.837 330.275 638.579 323.55C639.354 320.559 639.354 320.559 647.842 325.893C734.421 380.296 778.955 475.719 768.2 583.784C767.252 593.313 772.136 598.769 780.252 597.246C784.365 596.475 788.778 591.698 788.943 587.839C789.006 586.369 789.305 583.816 789.609 582.166C791.12 573.95 790.306 521.042 788.502 510.166C780.205 460.156 763.862 419.302 737.208 381.946C681.249 303.515 584.578 258.644 486.836 265.731ZM510.244 315.087C505.179 317.293 502.829 321.152 502.829 327.268C502.829 343.614 527.104 344.405 528.513 328.104C529.418 317.638 519.924 310.873 510.244 315.087ZM567.247 370.581C558.566 374.316 557.187 388.781 565.028 393.859C576.224 401.111 589.67 389.794 584.515 377.458C582.015 371.473 573.269 367.991 567.247 370.581ZM669.052 375.223C664.048 378.727 668.045 388.002 673.774 386.183C679.225 384.454 680.465 379.098 676.194 375.739C673.038 373.256 671.969 373.179 669.052 375.223ZM337.752 384.589C331.472 390.869 335.455 401.666 344.051 401.666C349.166 401.666 352.568 399.269 353.937 394.699C356.935 384.695 345.062 377.279 337.752 384.589ZM449.908 403.333C449.961 404.566 450.164 404.72 450.529 403.803C450.987 402.652 451.22 402.652 452.026 403.803C452.816 404.93 452.914 404.917 452.593 403.729C452.006 401.558 449.818 401.235 449.908 403.333ZM399.752 436.589C396.42 439.922 395.938 444.043 398.339 448.686C403.087 457.867 416.829 454.136 416.829 443.666C416.829 434.414 406.293 430.048 399.752 436.589ZM616.829 435.166C616.829 435.991 617.279 436.666 617.829 436.666C618.379 436.666 618.829 435.991 618.829 435.166C618.829 434.341 618.379 433.666 617.829 433.666C617.279 433.666 616.829 434.341 616.829 435.166ZM528.191 439.166C527.246 441.628 528.605 443.666 531.191 443.666C532.524 443.666 533.874 442.991 534.191 442.166C535.135 439.704 533.776 437.666 531.191 437.666C529.857 437.666 528.507 438.341 528.191 439.166ZM718.752 440.589C711.545 447.796 718.994 459.131 728.365 455.215C733.297 453.155 735.445 448.076 733.427 443.246C730.781 436.914 723.708 435.633 718.752 440.589ZM665.186 492.611C657.398 495.923 658.229 509.2 666.37 511.534C676.404 514.412 683.945 501.821 676.421 494.752C673.804 492.294 668.368 491.258 665.186 492.611ZM567.244 497.087C557.777 501.209 556.959 515.579 565.928 520.217C573.021 523.885 582.232 520.42 584.616 513.187C588.175 502.387 577.594 492.581 567.244 497.087ZM462.592 503.231C458.938 505.214 456.829 509.569 456.829 515.131C456.829 529.863 477.989 531.927 481.854 517.571C484.787 506.68 472.75 497.719 462.592 503.231ZM622.717 549.166C621.28 549.946 619.551 551.924 618.873 553.56C614.876 563.211 626.538 571.111 633.906 563.743C641.57 556.079 632.276 543.97 622.717 549.166ZM700.829 550.249C700.829 551.12 701.363 551.655 702.017 551.437C703.871 550.819 704.178 548.666 702.412 548.666C701.541 548.666 700.829 549.378 700.829 550.249ZM399.139 561.743C388.459 568.584 393.526 585.68 406.227 585.659C416.428 585.643 422.29 575.259 417.417 565.837C414.354 559.913 405.197 557.862 399.139 561.743ZM520.029 562.866C519.369 563.526 518.829 565.011 518.829 566.166C518.829 567.321 519.369 568.806 520.029 569.466C520.689 570.126 522.174 570.666 523.329 570.666C524.484 570.666 525.969 570.126 526.629 569.466C527.289 568.806 527.829 567.321 527.829 566.166C527.829 565.011 527.289 563.526 526.629 562.866C525.969 562.206 524.484 561.666 523.329 561.666C522.174 561.666 520.689 562.206 520.029 562.866ZM310.88 573.424C307.832 575.892 307.781 581.399 310.783 583.83C313.862 586.323 316.449 586.137 319.374 583.211C325.301 577.285 317.381 568.16 310.88 573.424ZM715.218 592.571C705.546 598.468 704.309 611.35 712.687 618.918C727.18 632.012 748.126 612.543 736.269 596.998C731.391 590.604 721.764 588.579 715.218 592.571ZM457.536 622.682C447.475 630.596 456.146 646.687 468.309 642.673C477.011 639.801 478.48 627.941 470.875 621.948C468.337 619.948 460.461 620.381 457.536 622.682ZM614.886 637.631C613.195 638.676 614.241 641.666 616.298 641.666C617.147 641.666 617.829 640.801 617.829 639.725C617.829 637.343 616.677 636.524 614.886 637.631ZM569.083 676.748C558.631 678.886 556.373 694.276 565.796 699.149C578.781 705.864 591.04 690.031 580.792 679.783C577.651 676.642 574.1 675.722 569.083 676.748ZM508.829 685.666C508.829 686.216 509.252 686.666 509.77 686.666C510.288 686.666 510.989 686.216 511.329 685.666C511.669 685.116 511.245 684.666 510.388 684.666C509.531 684.666 508.829 685.116 508.829 685.666ZM398.209 713.118C397.434 715.139 398.587 716.666 400.888 716.666C402.292 716.666 402.829 715.974 402.829 714.166C402.829 711.35 399.203 710.528 398.209 713.118ZM662.4 714.237C660.394 716.244 660.425 716.946 662.646 719.688C665.741 723.51 671.158 719.018 668.79 714.594C667.542 712.262 664.543 712.094 662.4 714.237ZM467.079 749.729C464.565 750.704 463.932 755.369 466.029 757.466C467.671 759.108 471.327 758.976 472.783 757.221C475.761 753.633 471.488 748.019 467.079 749.729Z" fill="#FAFAFA"/>
</svg>
