<svg width="339" height="41" viewBox="0 0 339 41" fill="none" xmlns="http://www.w3.org/2000/svg">
<path d="M132.398 12.6182V9.75383H125.734V30.9627H132.398V22.1054C132.398 19.505 132.926 17.6767 134.003 16.6406C135.079 15.6249 136.765 15.2998 139.041 15.6858V9.44911C137.517 9.26627 136.197 9.44911 135.059 10.0179C133.921 10.5867 133.027 11.4603 132.398 12.6182Z" fill="white"/>
<path d="M151.475 31.5512C154.766 31.5512 157.508 30.4948 159.662 28.3414C161.815 26.2084 162.892 23.5471 162.892 20.3576C162.892 17.1682 161.815 14.5069 159.662 12.3738C157.508 10.2408 154.766 9.16406 151.475 9.16406C148.184 9.16406 145.462 10.2408 143.308 12.3738C141.155 14.5069 140.078 17.1682 140.078 20.3576C140.078 23.5471 141.155 26.2084 143.308 28.3414C145.462 30.4948 148.184 31.5512 151.475 31.5512ZM151.475 25.5583C149.972 25.5583 148.773 25.0707 147.879 24.0956C146.985 23.1205 146.538 21.8813 146.538 20.3576C146.538 18.834 146.985 17.5948 147.879 16.6197C148.773 15.6445 149.972 15.157 151.475 15.157C152.978 15.157 154.177 15.6445 155.071 16.6197C155.964 17.5948 156.432 18.834 156.432 20.3576C156.432 21.8813 155.964 23.1205 155.071 24.0956C154.177 25.0707 152.978 25.5583 151.475 25.5583Z" fill="white"/>
<path d="M180.443 9.75391L175.405 23.3853L170.407 9.75391H163.094L171.667 30.9628H179.163L187.716 9.75391H180.443Z" fill="white"/>
<path d="M199.887 31.5512C202.447 31.5512 204.661 30.9418 206.49 29.7229C208.318 28.504 209.578 27.1428 210.248 25.5989L204.255 23.8518C203.442 25.2942 202.041 26.0052 200.009 26.0052C196.982 26.0052 195.215 24.7863 194.727 22.3485H210.411C210.512 21.7187 210.573 20.9874 210.573 20.1545C210.573 16.9853 209.557 14.3647 207.566 12.2926C205.576 10.2204 202.874 9.16406 199.461 9.16406C196.109 9.16406 193.407 10.2408 191.335 12.3535C189.263 14.4663 188.227 17.1479 188.227 20.3983C188.227 23.7096 189.303 26.3912 191.457 28.4633C193.61 30.5354 196.414 31.5512 199.887 31.5512ZM194.727 18.3464C194.89 17.3713 195.377 16.5384 196.21 15.8071C197.043 15.096 198.12 14.7304 199.42 14.7304C200.72 14.7304 201.797 15.096 202.65 15.7868C203.503 16.4978 203.971 17.351 204.093 18.3464H194.727Z" fill="white"/>
<path d="M227.253 9.16406C224.673 9.16406 222.581 10.0986 220.976 11.9472V9.7532H214.312V30.9621H220.976V20.6014C220.976 18.9762 221.342 17.6761 222.073 16.7416C222.804 15.8071 223.8 15.3195 225.079 15.3195C227.599 15.3195 228.878 16.8635 228.878 19.931V30.9621H235.521V18.6105C235.521 15.7055 234.831 13.4099 233.449 11.7034C232.068 10.0173 229.996 9.16406 227.253 9.16406Z" fill="white"/>
<path d="M111.7 9.16406C109.181 9.16406 107.129 10.0173 105.585 11.7034V9.7532H98.9219V39.6975H105.585V29.0118C107.19 30.7183 109.222 31.5512 111.7 31.5512C114.585 31.5512 117.023 30.4948 119.013 28.3414C121.004 26.2084 122.02 23.5471 122.02 20.3576C122.02 17.1682 121.004 14.5069 119.013 12.3738C117.023 10.2408 114.585 9.16406 111.7 9.16406ZM110.481 25.6395C108.998 25.6395 107.779 25.152 106.824 24.1769C105.87 23.2017 105.402 21.9016 105.402 20.317C105.402 18.7731 105.87 17.5135 106.824 16.5384C107.779 15.5633 108.998 15.0757 110.481 15.0757C111.923 15.0757 113.102 15.5633 114.036 16.5384C114.971 17.5135 115.438 18.7731 115.438 20.317C115.438 21.9016 114.971 23.1814 114.036 24.1565C113.102 25.152 111.903 25.6395 110.481 25.6395Z" fill="white"/>
<path d="M250.431 31.5492C253.235 31.5492 255.571 30.8382 257.46 29.3755C259.329 27.9332 260.507 26.2877 260.954 24.4187L254.799 22.6716C254.596 23.4842 254.088 24.1952 253.275 24.7843C252.463 25.3938 251.508 25.6782 250.37 25.6782C248.928 25.6782 247.77 25.15 246.876 24.0936C245.982 23.0373 245.555 21.7777 245.555 20.315C245.555 18.8524 245.982 17.5928 246.876 16.5771C247.77 15.5613 248.928 15.0331 250.37 15.0331C251.508 15.0331 252.483 15.3379 253.296 15.9473C254.108 16.5568 254.596 17.2881 254.799 18.1007L260.954 16.3536C260.507 14.505 259.329 12.8391 257.419 11.3764C255.51 9.91377 253.153 9.16211 250.33 9.16211C247.079 9.16211 244.398 10.2388 242.264 12.3719C240.111 14.505 239.055 17.1662 239.055 20.3557C239.055 23.5451 240.131 26.2064 242.285 28.3395C244.438 30.4929 247.14 31.5492 250.431 31.5492Z" fill="white"/>
<path d="M271.156 12.6143V9.74993H264.492V30.9588H271.156V22.1014C271.156 19.5011 271.684 17.6728 272.76 16.6367C273.837 15.621 275.523 15.2959 277.799 15.6819V9.4452C276.275 9.26237 274.954 9.4452 273.817 10.014C272.679 10.5828 271.785 11.4564 271.156 12.6143Z" fill="white"/>
<path d="M289.148 31.5492C291.606 31.5492 293.638 30.7163 295.263 29.0099V30.9601H301.926V9.75125H295.263V11.7015C293.699 10.0153 291.667 9.16211 289.148 9.16211C286.263 9.16211 283.805 10.2388 281.814 12.3719C279.824 14.505 278.828 17.1662 278.828 20.3557C278.828 23.5451 279.824 26.2064 281.814 28.3395C283.805 30.4929 286.263 31.5492 289.148 31.5492ZM290.367 25.6376C288.925 25.6376 287.746 25.15 286.812 24.1749C285.877 23.1998 285.41 21.8996 285.41 20.315C285.41 18.7711 285.877 17.5116 286.812 16.5365C287.746 15.5613 288.925 15.0738 290.367 15.0738C291.83 15.0738 293.028 15.5613 294.003 16.5365C294.958 17.5116 295.446 18.7711 295.446 20.315C295.446 21.8996 294.958 23.1795 294.003 24.1546C293.049 25.15 291.83 25.6376 290.367 25.6376Z" fill="white"/>
<path d="M316.144 6.41954C315.737 6.86647 315.554 7.47592 315.554 8.24789V9.7512H320.713L318.969 15.5613H315.554V30.9601H308.891V15.5613H305.031V9.7512H308.891V8.24789C308.891 5.70852 309.561 3.69733 310.923 2.21434C312.284 0.751656 314.234 0 316.753 0C318.703 0 320.369 0.304725 321.75 0.914175L320.166 6.19608C319.435 5.89135 318.642 5.74915 317.789 5.74915C317.098 5.74915 316.55 5.97261 316.144 6.41954Z" fill="white"/>
<path d="M334.31 25.5117C335.122 25.5117 335.874 25.3289 336.565 24.9632L338.149 30.2451C336.402 30.9359 334.655 31.2812 332.949 31.2812C330.45 31.2812 328.581 30.5905 327.321 29.1685C326.062 27.7464 325.452 25.7962 325.452 23.2974V15.5574L320.203 15.5573L321.947 9.74721L325.452 9.74731V3.08398H332.116V9.74731H337.824V15.5574H332.116V23.2974C332.116 24.7804 332.847 25.5117 334.31 25.5117Z" fill="white"/>
<path d="M57.8402 40.0013C62.6269 40.0013 66.6521 38.7691 69.9157 36.3048C73.1794 33.8406 75.2101 30.9777 76.0804 27.7524L66.9422 25.2156C66.507 26.8826 65.4191 28.296 63.751 29.4556C62.0467 30.6515 60.0522 31.2313 57.7314 31.2313C54.7216 31.2313 52.2557 30.1442 50.3701 27.9336C48.4481 25.7592 47.5053 23.15 47.5053 20.1059C47.5053 17.0618 48.4481 14.4526 50.3338 12.2782C52.2195 10.1401 54.6853 9.0529 57.7314 9.0529C60.0522 9.0529 62.0829 9.66897 63.751 10.9011C65.4191 12.1332 66.507 13.619 66.9422 15.2861L76.0804 12.6768C75.2463 9.52401 73.1794 6.69734 69.8795 4.16059C66.5795 1.62384 62.5181 0.355469 57.7314 0.355469C52.0381 0.355469 47.2877 2.23991 43.5164 6.0088C39.745 9.77769 37.8594 14.4526 37.8594 20.1059C37.8594 25.7592 39.745 30.4703 43.5164 34.2754C47.2877 38.1168 52.0744 40.0013 57.8402 40.0013Z" fill="white"/>
<rect x="32.4297" y="36.3906" width="25.9749" height="3.60345" fill="white"/>
<rect x="32.4297" y="21.9766" width="10.3599" height="3.60345" fill="white"/>
<rect x="32.4297" y="7.55859" width="11.8614" height="3.60345" fill="white"/>
<rect x="16.2188" y="0.357422" width="42.1904" height="3.60345" fill="white"/>
<rect x="5.40625" y="36.3906" width="3.60345" height="3.60345" fill="white"/>
<rect x="5.40625" y="29.1855" width="3.60345" height="3.60345" fill="white"/>
<rect x="5.40625" y="21.9766" width="3.60345" height="3.60345" fill="white"/>
<rect x="5.40625" y="14.7734" width="3.60345" height="3.60345" fill="white"/>
<rect x="5.40625" y="7.55859" width="3.60345" height="3.60345" fill="white"/>
<rect x="5.40625" y="0.357422" width="3.60345" height="3.60345" fill="white"/>
<rect x="10.8047" y="0.357422" width="3.60345" height="3.60345" fill="white"/>
<rect x="27.0234" y="21.9766" width="3.60345" height="3.60345" fill="white"/>
<rect x="10.8047" y="7.55859" width="3.60345" height="3.60345" fill="white"/>
<rect x="27.0234" y="7.55859" width="3.60345" height="3.60345" fill="white"/>
<rect x="27.0234" y="14.7734" width="3.60345" height="3.60345" fill="white"/>
<rect x="32.4297" y="14.7734" width="3.60345" height="3.60345" fill="white"/>
<rect x="21.6172" y="14.7734" width="3.60345" height="3.60345" fill="white"/>
<rect x="16.2188" y="14.7734" width="3.60345" height="3.60345" fill="white"/>
<rect x="10.8047" y="21.9766" width="3.60345" height="3.60345" fill="white"/>
<rect x="21.6172" y="21.9766" width="3.60345" height="3.60345" fill="white"/>
<rect x="21.6172" y="29.1855" width="3.60345" height="3.60345" fill="white"/>
<rect x="21.6172" y="36.3906" width="3.60345" height="3.60345" fill="white"/>
<rect x="27.0234" y="36.3906" width="3.60345" height="3.60345" fill="white"/>
<rect x="16.2188" y="36.3906" width="3.60345" height="3.60345" fill="white"/>
<rect x="32.4297" y="29.1855" width="3.60345" height="3.60345" fill="white"/>
<rect y="36.3906" width="3.60345" height="3.60345" fill="white"/>
<rect y="29.1855" width="3.60345" height="3.60345" fill="white"/>
<rect y="21.9766" width="3.60345" height="3.60345" fill="white"/>
<rect y="14.7734" width="3.60345" height="3.60345" fill="white"/>
<rect y="7.55859" width="3.60345" height="3.60345" fill="white"/>
<rect y="0.357422" width="3.60345" height="3.60345" fill="white"/>
</svg>
