<svg width="800" height="431" viewBox="0 0 800 431" fill="none" xmlns="http://www.w3.org/2000/svg">
<path d="M608.176 430.241C658.516 430.241 700.847 416.869 735.169 390.127C769.491 363.384 790.847 332.316 800 297.314L703.898 269.785C699.321 287.876 687.88 303.213 670.338 315.798C652.414 328.776 631.439 335.069 607.032 335.069C575.38 335.069 549.447 323.27 529.617 299.281C509.405 275.684 499.489 247.369 499.489 214.334C499.489 181.299 509.405 152.983 529.235 129.387C549.066 106.184 574.998 94.3855 607.032 94.3855C631.439 94.3855 652.795 101.071 670.338 114.442C687.88 127.814 699.321 143.938 703.898 162.028L800 133.713C791.229 99.4981 769.491 68.8228 734.788 41.2937C700.084 13.7645 657.372 0 607.032 0C547.159 0 497.201 20.4502 457.54 61.3506C417.879 102.251 398.048 152.983 398.048 214.334C398.048 275.684 417.879 326.81 457.54 368.103C497.201 409.79 547.54 430.241 608.176 430.241Z" fill="white"/>
<rect x="341.052" y="391.103" width="273.165" height="39.105" fill="white"/>
<rect x="341.052" y="234.641" width="108.95" height="39.105" fill="white"/>
<rect x="341.052" y="78.2017" width="124.74" height="39.105" fill="white"/>
<rect x="170.555" width="443.696" height="39.105" fill="white"/>
<rect x="56.8444" y="391.103" width="37.8958" height="39.105" fill="white"/>
<rect x="56.8444" y="312.848" width="37.8958" height="39.105" fill="white"/>
<rect x="56.8444" y="234.641" width="37.8958" height="39.105" fill="white"/>
<rect x="56.8444" y="156.439" width="37.8958" height="39.105" fill="white"/>
<rect x="56.8444" y="78.2017" width="37.8958" height="39.105" fill="white"/>
<rect x="56.8444" width="37.8958" height="39.105" fill="white"/>
<rect x="113.66" width="37.8958" height="39.105" fill="white"/>
<rect x="284.222" y="234.641" width="37.8958" height="39.105" fill="white"/>
<rect x="113.66" y="78.2017" width="37.8958" height="39.105" fill="white"/>
<rect x="284.222" y="78.2017" width="37.8958" height="39.105" fill="white"/>
<rect x="284.222" y="156.439" width="37.8958" height="39.105" fill="white"/>
<rect x="341.052" y="156.439" width="37.8958" height="39.105" fill="white"/>
<rect x="227.385" y="156.439" width="37.8958" height="39.105" fill="white"/>
<rect x="170.555" y="156.439" width="37.8958" height="39.105" fill="white"/>
<rect x="113.66" y="234.641" width="37.8958" height="39.105" fill="white"/>
<rect x="227.385" y="234.641" width="37.8958" height="39.105" fill="white"/>
<rect x="227.385" y="312.848" width="37.8958" height="39.105" fill="white"/>
<rect x="227.385" y="391.103" width="37.8958" height="39.105" fill="white"/>
<rect x="284.222" y="391.103" width="37.8958" height="39.105" fill="white"/>
<rect x="170.555" y="391.103" width="37.8958" height="39.105" fill="white"/>
<rect x="341.052" y="312.848" width="37.8958" height="39.105" fill="white"/>
<rect y="391.103" width="37.8958" height="39.105" fill="white"/>
<rect y="312.848" width="37.8958" height="39.105" fill="white"/>
<rect y="234.641" width="37.8958" height="39.105" fill="white"/>
<rect y="156.439" width="37.8958" height="39.105" fill="white"/>
<rect y="78.2017" width="37.8958" height="39.105" fill="white"/>
<rect width="37.8958" height="39.105" fill="white"/>
</svg>
