<svg width="300" height="169" viewBox="0 0 300 169" fill="none" xmlns="http://www.w3.org/2000/svg">
<path d="M195.001 89.4908C205.806 89.4908 214.891 86.7096 222.258 81.1471C229.625 75.5846 234.209 69.1223 236.174 61.8419L215.546 56.1158C214.564 59.8787 212.108 63.069 208.343 65.6866C204.496 68.3861 199.994 69.6949 194.755 69.6949C187.961 69.6949 182.395 67.2408 178.139 62.2509C173.8 57.3429 171.672 51.4531 171.672 44.5818C171.672 37.7105 173.8 31.8208 178.057 26.9127C182.313 22.0864 187.879 19.6324 194.755 19.6324C199.994 19.6324 204.578 21.023 208.343 23.8042C212.108 26.5855 214.564 29.9393 215.546 33.7022L236.174 27.8125C234.291 20.6958 229.625 14.3153 222.177 8.58916C214.728 2.86305 205.56 0 194.755 0C181.904 0 171.181 4.25368 162.668 12.761C154.155 21.2684 149.899 31.8208 149.899 44.5818C149.899 57.3428 154.155 67.977 162.668 76.5662C171.181 85.2372 181.986 89.4908 195.001 89.4908Z" fill="white"/>
<rect x="137.665" y="81.3394" width="58.632" height="8.13392" fill="white"/>
<rect x="137.665" y="48.8022" width="23.385" height="8.13392" fill="white"/>
<rect x="137.665" y="16.2686" width="26.7742" height="8.13392" fill="white"/>
<rect x="101.063" width="95.2346" height="8.13392" fill="white"/>
<rect x="76.6621" y="81.3394" width="8.13392" height="8.13392" fill="white"/>
<rect x="76.6621" y="65.0708" width="8.13392" height="8.13392" fill="white"/>
<rect x="76.6621" y="48.8022" width="8.13392" height="8.13392" fill="white"/>
<rect x="76.6621" y="32.5366" width="8.13392" height="8.13392" fill="white"/>
<rect x="76.6621" y="16.2686" width="8.13392" height="8.13392" fill="white"/>
<rect x="76.6621" width="8.13392" height="8.13392" fill="white"/>
<rect x="88.8625" width="8.13392" height="8.13392" fill="white"/>
<rect x="125.465" y="48.8022" width="8.13392" height="8.13392" fill="white"/>
<rect x="88.8625" y="16.2686" width="8.13392" height="8.13392" fill="white"/>
<rect x="125.465" y="16.2686" width="8.13392" height="8.13392" fill="white"/>
<rect x="125.465" y="32.5366" width="8.13392" height="8.13392" fill="white"/>
<rect x="137.665" y="32.5366" width="8.13392" height="8.13392" fill="white"/>
<rect x="113.264" y="32.5366" width="8.13392" height="8.13392" fill="white"/>
<rect x="101.063" y="32.5366" width="8.13392" height="8.13392" fill="white"/>
<rect x="88.8625" y="48.8022" width="8.13392" height="8.13392" fill="white"/>
<rect x="113.264" y="48.8022" width="8.13392" height="8.13392" fill="white"/>
<rect x="113.264" y="65.0708" width="8.13392" height="8.13392" fill="white"/>
<rect x="113.264" y="81.3394" width="8.13392" height="8.13392" fill="white"/>
<rect x="125.465" y="81.3394" width="8.13392" height="8.13392" fill="white"/>
<rect x="101.063" y="81.3394" width="8.13392" height="8.13392" fill="white"/>
<rect x="137.665" y="65.0708" width="8.13392" height="8.13392" fill="white"/>
<rect x="64.4614" y="81.3394" width="8.13392" height="8.13392" fill="white"/>
<rect x="64.4612" y="65.0708" width="8.13392" height="8.13392" fill="white"/>
<rect x="64.4612" y="48.8022" width="8.13392" height="8.13392" fill="white"/>
<rect x="64.4614" y="32.5366" width="8.13392" height="8.13392" fill="white"/>
<rect x="64.4614" y="16.2686" width="8.13392" height="8.13392" fill="white"/>
<rect x="64.4614" width="8.13392" height="8.13392" fill="white"/>
<path d="M41.9842 134.676V131.084H33.6282V157.681H41.9842V146.574C41.9842 143.313 42.6466 141.02 43.9968 139.721C45.347 138.447 47.4615 138.039 50.3148 138.523V130.702C48.4041 130.473 46.7482 130.702 45.3215 131.416C43.8949 132.129 42.774 133.224 41.9842 134.676Z" fill="white"/>
<path d="M65.9083 158.42C70.0354 158.42 73.4746 157.095 76.1751 154.395C78.8755 151.72 80.2257 148.383 80.2257 144.383C80.2257 140.383 78.8755 137.046 76.1751 134.371C73.4746 131.696 70.0354 130.346 65.9083 130.346C61.7813 130.346 58.3675 131.696 55.6671 134.371C52.9667 137.046 51.6165 140.383 51.6165 144.383C51.6165 148.383 52.9667 151.72 55.6671 154.395C58.3675 157.095 61.7813 158.42 65.9083 158.42ZM65.9083 150.905C64.0231 150.905 62.5201 150.293 61.3991 149.07C60.2782 147.848 59.7177 146.294 59.7177 144.383C59.7177 142.472 60.2782 140.918 61.3991 139.695C62.5201 138.472 64.0231 137.861 65.9083 137.861C67.7935 137.861 69.2966 138.472 70.4175 139.695C71.5385 140.918 72.1244 142.472 72.1244 144.383C72.1244 146.294 71.5385 147.848 70.4175 149.07C69.2966 150.293 67.7935 150.905 65.9083 150.905Z" fill="white"/>
<path d="M102.234 131.084L95.9163 148.179L89.6493 131.084H80.478L91.2288 157.681H100.629L111.355 131.084H102.234Z" fill="white"/>
<path d="M126.617 158.42C129.827 158.42 132.604 157.656 134.896 156.127C137.189 154.599 138.769 152.892 139.609 150.956L132.094 148.765C131.075 150.573 129.317 151.465 126.77 151.465C122.974 151.465 120.757 149.937 120.146 146.879H139.813C139.941 146.09 140.017 145.173 140.017 144.128C140.017 140.154 138.743 136.867 136.247 134.269C133.75 131.67 130.362 130.346 126.082 130.346C121.878 130.346 118.49 131.696 115.891 134.345C113.293 136.995 111.994 140.358 111.994 144.434C111.994 148.586 113.344 151.949 116.044 154.548C118.745 157.146 122.26 158.42 126.617 158.42ZM120.146 141.861C120.35 140.638 120.961 139.593 122.006 138.676C123.05 137.785 124.4 137.326 126.031 137.326C127.661 137.326 129.011 137.785 130.081 138.651C131.151 139.542 131.737 140.612 131.89 141.861H120.146Z" fill="white"/>
<path d="M160.932 130.346C157.697 130.346 155.073 131.518 153.06 133.836V131.085H144.704V157.681H153.06V144.689C153.06 142.65 153.519 141.02 154.436 139.848C155.353 138.676 156.602 138.065 158.206 138.065C161.365 138.065 162.97 140.001 162.97 143.848V157.681H171.301V142.192C171.301 138.549 170.435 135.67 168.703 133.53C166.97 131.416 164.372 130.346 160.932 130.346Z" fill="white"/>
<path d="M16.0242 130.346C12.8652 130.346 10.2922 131.416 8.35604 133.53V131.085H0V168.636H8.35604V155.235C10.3686 157.375 12.9162 158.42 16.0242 158.42C19.6418 158.42 22.6989 157.095 25.1955 154.395C27.6921 151.72 28.9659 148.383 28.9659 144.383C28.9659 140.383 27.6921 137.046 25.1955 134.371C22.6989 131.696 19.6418 130.346 16.0242 130.346ZM14.4957 151.007C12.636 151.007 11.1074 150.395 9.91006 149.172C8.7127 147.949 8.12676 146.319 8.12676 144.332C8.12676 142.396 8.7127 140.816 9.91006 139.593C11.1074 138.371 12.636 137.759 14.4957 137.759C16.3045 137.759 17.7821 138.371 18.9539 139.593C20.1258 140.816 20.7118 142.396 20.7118 144.332C20.7118 146.319 20.1258 147.924 18.9539 149.147C17.7821 150.395 16.279 151.007 14.4957 151.007Z" fill="white"/>
<path d="M189.997 158.418C193.513 158.418 196.442 157.526 198.811 155.692C201.155 153.883 202.633 151.82 203.193 149.476L195.474 147.285C195.219 148.304 194.583 149.196 193.563 149.935C192.544 150.699 191.347 151.056 189.92 151.056C188.112 151.056 186.66 150.393 185.539 149.068C184.418 147.744 183.883 146.164 183.883 144.33C183.883 142.496 184.418 140.916 185.539 139.642C186.66 138.369 188.112 137.706 189.92 137.706C191.347 137.706 192.57 138.088 193.589 138.853C194.608 139.617 195.219 140.534 195.474 141.553L203.193 139.362C202.633 137.044 201.155 134.955 198.761 133.121C196.366 131.286 193.411 130.344 189.869 130.344C185.793 130.344 182.431 131.694 179.756 134.369C177.055 137.044 175.73 140.381 175.73 144.381C175.73 148.381 177.081 151.718 179.781 154.393C182.482 157.093 185.87 158.418 189.997 158.418Z" fill="white"/>
<path d="M215.983 134.676V131.084H207.627V157.681H215.983V146.574C215.983 143.313 216.646 141.02 217.996 139.721C219.346 138.447 221.461 138.039 224.314 138.523V130.702C222.403 130.473 220.747 130.702 219.321 131.416C217.894 132.129 216.773 133.224 215.983 134.676Z" fill="white"/>
<path d="M238.552 158.418C241.635 158.418 244.182 157.374 246.22 155.234V157.679H254.576V131.083H246.22V133.528C244.259 131.414 241.711 130.344 238.552 130.344C234.935 130.344 231.852 131.694 229.356 134.369C226.859 137.044 225.611 140.381 225.611 144.381C225.611 148.381 226.859 151.718 229.356 154.393C231.852 157.093 234.935 158.418 238.552 158.418ZM240.081 151.005C238.272 151.005 236.794 150.393 235.623 149.17C234.451 147.947 233.865 146.317 233.865 144.33C233.865 142.394 234.451 140.814 235.623 139.591C236.794 138.369 238.272 137.757 240.081 137.757C241.915 137.757 243.418 138.369 244.641 139.591C245.838 140.814 246.45 142.394 246.45 144.33C246.45 146.317 245.838 147.922 244.641 149.145C243.444 150.393 241.915 151.005 240.081 151.005Z" fill="white"/>
<path d="M272.412 126.906C271.902 127.467 271.673 128.231 271.673 129.199V131.084H278.142L275.955 138.37H271.673V157.681H263.317V138.37H258.477V131.084H263.317V129.199C263.317 126.015 264.158 123.493 265.865 121.633C267.571 119.799 270.017 118.856 273.176 118.856C275.622 118.856 277.711 119.238 279.443 120.002L277.456 126.626C276.539 126.244 275.545 126.066 274.475 126.066C273.609 126.066 272.921 126.346 272.412 126.906Z" fill="white"/>
<path d="M295.185 150.854C296.204 150.854 297.147 150.624 298.013 150.166L300 156.79C297.809 157.656 295.618 158.089 293.478 158.089C290.345 158.089 288.001 157.223 286.421 155.439C284.842 153.656 284.078 151.21 284.078 148.077V138.371L277.495 138.37L279.682 131.084L284.078 131.085V122.729H292.434V131.085H299.592V138.371H292.434V148.077C292.434 149.937 293.351 150.854 295.185 150.854Z" fill="white"/>
</svg>
