<svg width="1920" height="3002" viewBox="0 0 1920 3002" fill="none" xmlns="http://www.w3.org/2000/svg">
<g clip-path="url(#clip0_919_1644)">
<mask id="mask0_919_1644" style="mask-type:luminance" maskUnits="userSpaceOnUse" x="0" y="0" width="1920" height="3002">
<path d="M1920 0H0V3002H1920V0Z" fill="white"/>
</mask>
<g mask="url(#mask0_919_1644)">
<mask id="mask1_919_1644" style="mask-type:luminance" maskUnits="userSpaceOnUse" x="0" y="263" width="1922" height="650">
<path d="M1922 263H0V913H1922V263Z" fill="white"/>
</mask>
<g mask="url(#mask1_919_1644)">
<mask id="mask2_919_1644" style="mask-type:luminance" maskUnits="userSpaceOnUse" x="-247" y="-308" width="3078" height="1801">
<path d="M-247 1492.9H2831V-308H-247V1492.9Z" fill="white"/>
</mask>
<g mask="url(#mask2_919_1644)">
<path d="M-706.281 -179.116H14.6885L63.7485 -128.056V154.769L3.74854 217.228V356.22L91.4086 447.462H604.799L605.239 447.91L700.699 547.282H885.479V550.353H699.469L699.039 549.905L603.579 450.533H90.1885L89.7485 450.085L0.798523 357.49V215.958L60.7986 153.499V-126.776L13.4686 -176.045H-706.281V-179.116Z" fill="url(#paint0_linear_919_1644)"/>
<path d="M215.695 106.53H619.555L687.785 177.557V317.309L747.655 379.632H966.125V382.703H746.435L684.835 318.589V178.837L618.325 109.601H215.695V106.53Z" fill="url(#paint1_linear_919_1644)"/>
<path d="M112.807 162.837H607.747L641.067 197.522V326.136H638.117V198.793L606.527 165.908H114.027L63.7469 218.249V344.572H60.7969V216.978L112.807 162.837Z" fill="url(#paint2_linear_919_1644)"/>
<path d="M132.848 204.299H541.248V210.451H135.288L109.478 237.319V390.396L130.378 412.142H600.258V418.283H127.928L103.578 392.936V234.768L132.848 204.299Z" fill="url(#paint3_linear_919_1644)"/>
<path d="M-706.281 -143.796H-9.28149L22.4385 -110.766V134.927L21.5784 135.833L-41.7316 201.738V461.286H-47.6315V199.187L-46.7714 198.292L16.5386 132.387V-108.226L-11.7316 -137.654H-706.281V-143.796Z" fill="#021F38" fill-opacity="0.6"/>
<path d="M171.819 252.934H544.199V256.005H173.039L149.319 280.707V371.189H146.359V279.427L171.819 252.934Z" fill="url(#paint4_linear_919_1644)"/>
<path d="M544.2 301.059H194.07V304.13H544.2V301.059Z" fill="#020F1C"/>
<path d="M543.7 348.152H193.57V351.223H543.7V348.152Z" fill="#021425"/>
<path d="M743.418 310.209L774.948 343.031H1121.52V346.102H773.728L741.328 312.385L743.418 310.209Z" fill="url(#paint5_linear_919_1644)"/>
<path d="M673.162 347.518L741.142 418.284H909.322L954.562 465.378H1121.52V471.519H952.122L906.882 424.425H738.702L737.832 423.53L668.992 351.858L673.162 347.518Z" fill="url(#paint6_linear_919_1644)"/>
<path d="M576.648 486.885H92.7578V493.027H576.648V486.885Z" fill="#021526"/>
<path d="M-71.8614 563.032L58.3387 698.558V1199.3H52.4386V701.108L-76.0312 567.373L-71.8614 563.032Z" fill="#021F38" fill-opacity="0.6"/>
<path d="M1322.41 436.97L1326.58 441.321L1152.74 622.286H611.582L542.482 550.354H276.922L138.502 694.457V1199.3H132.602V691.907L133.462 691.011L274.482 544.212H544.932L614.022 616.133H1150.3L1322.41 436.97Z" fill="url(#paint7_linear_919_1644)"/>
<path d="M1602.71 61.4766H2923.81V67.6288H1605.16L1459.36 219.394V620.485H1453.46V216.854L1602.71 61.4766Z" fill="url(#paint8_linear_919_1644)"/>
<path d="M1658.77 120.864H2923.81V127.006H1661.22L1553.78 238.849V620.484H1547.88V236.309L1658.77 120.864Z" fill="url(#paint9_linear_919_1644)"/>
<path d="M1397.89 215.053H1400.84V439.905L1400.41 440.363L1173.28 676.802H884.992V673.731H1172.05L1397.89 438.635V215.053Z" fill="url(#paint10_linear_919_1644)"/>
<path d="M79.49 474.08C88.17 474.08 95.23 481.429 95.23 490.465C95.23 499.501 88.17 506.85 79.49 506.85C70.81 506.85 63.75 499.501 63.75 490.465C63.75 481.429 70.81 474.08 79.49 474.08ZM79.49 500.698C84.91 500.698 89.33 496.107 89.33 490.455C89.33 484.802 84.92 480.222 79.49 480.222C74.06 480.222 69.65 484.813 69.65 490.455C69.65 496.097 74.06 500.698 79.49 500.698Z" fill="#061A2D"/>
<path d="M61.7744 357.366C68.8381 357.366 74.5643 351.405 74.5643 344.051C74.5643 336.698 68.8381 330.737 61.7744 330.737C54.7106 330.737 48.9844 336.698 48.9844 344.051C48.9844 351.405 54.7106 357.366 61.7744 357.366Z" fill="#03101D"/>
<path d="M148.329 385.014C155.393 385.014 161.119 379.053 161.119 371.7C161.119 364.347 155.393 358.386 148.329 358.386C141.265 358.386 135.539 364.347 135.539 371.7C135.539 379.053 141.265 385.014 148.329 385.014Z" fill="#01101E"/>
<path d="M600.743 429.038C607.807 429.038 613.533 423.077 613.533 415.723C613.533 408.37 607.807 402.409 600.743 402.409C593.679 402.409 587.953 408.37 587.953 415.723C587.953 423.077 593.679 429.038 600.743 429.038Z" fill="#021222"/>
<path d="M684.237 351.366C685.369 344.107 680.634 337.268 673.662 336.09C666.689 334.912 660.12 339.841 658.988 347.099C657.856 354.357 662.591 361.196 669.563 362.374C676.536 363.553 683.106 358.624 684.237 351.366Z" fill="#02101E"/>
<path d="M1121.02 482.273C1128.09 482.273 1133.81 476.312 1133.81 468.959C1133.81 461.606 1128.09 455.645 1121.02 455.645C1113.96 455.645 1108.23 461.606 1108.23 468.959C1108.23 476.312 1113.96 482.273 1121.02 482.273Z" fill="#021425"/>
<path d="M1324.62 452.584C1331.68 452.584 1337.41 446.623 1337.41 439.27C1337.41 431.917 1331.68 425.956 1324.62 425.956C1317.55 425.956 1311.83 431.917 1311.83 439.27C1311.83 446.623 1317.55 452.584 1324.62 452.584Z" fill="#021323"/>
<path d="M1563.36 623.658C1564.99 616.504 1560.74 609.327 1553.87 607.628C1547 605.929 1540.1 610.351 1538.47 617.505C1536.84 624.659 1541.09 631.836 1547.96 633.535C1554.83 635.235 1561.73 630.812 1563.36 623.658Z" fill="#02182C"/>
<path d="M1464.4 630.884C1469.92 626.287 1470.81 617.908 1466.39 612.169C1461.98 606.429 1453.93 605.503 1448.41 610.099C1442.9 614.696 1442.01 623.075 1446.42 628.814C1450.84 634.554 1458.89 635.48 1464.4 630.884Z" fill="#061625"/>
<path d="M189.146 356.345C193.221 356.345 196.526 352.906 196.526 348.663C196.526 344.42 193.221 340.98 189.146 340.98C185.07 340.98 181.766 344.42 181.766 348.663C181.766 352.906 185.07 356.345 189.146 356.345Z" fill="#021425"/>
<path d="M196.299 304.3C197.235 300.171 194.778 296.033 190.811 295.059C186.844 294.084 182.87 296.642 181.933 300.771C180.997 304.9 183.454 309.038 187.421 310.013C191.388 310.987 195.362 308.43 196.299 304.3Z" fill="#020F1C"/>
<path d="M546.153 356.345C550.229 356.345 553.533 352.906 553.533 348.663C553.533 344.42 550.229 340.98 546.153 340.98C542.077 340.98 538.773 344.42 538.773 348.663C538.773 352.906 542.077 356.345 546.153 356.345Z" fill="#02182C"/>
<path d="M892.786 550.616C893.455 546.431 890.737 542.474 886.717 541.778C882.696 541.082 878.895 543.911 878.226 548.096C877.558 552.282 880.275 556.239 884.296 556.935C888.316 557.631 892.118 554.802 892.786 550.616Z" fill="#021F38" fill-opacity="0.6"/>
<path d="M553.299 304.307C554.235 300.178 551.778 296.04 547.811 295.066C543.844 294.091 539.87 296.649 538.933 300.778C537.997 304.907 540.454 309.045 544.421 310.02C548.388 310.994 552.362 308.437 553.299 304.307Z" fill="#020F1C"/>
<path d="M639.599 331.778C643.675 331.778 646.979 328.338 646.979 324.096C646.979 319.853 643.675 316.413 639.599 316.413C635.523 316.413 632.219 319.853 632.219 324.096C632.219 328.338 635.523 331.778 639.599 331.778Z" fill="#02101C"/>
<path d="M973.414 383.303C974.354 379.175 971.901 375.035 967.935 374.057C963.969 373.078 959.992 375.632 959.052 379.761C958.112 383.889 960.566 388.029 964.532 389.008C968.498 389.986 972.475 387.432 973.414 383.303Z" fill="#021222"/>
<path d="M1126.39 350.378C1129.46 347.586 1129.77 342.732 1127.09 339.537C1124.41 336.343 1119.74 336.016 1116.67 338.808C1113.61 341.6 1113.29 346.453 1115.97 349.648C1118.66 352.843 1123.32 353.17 1126.39 350.378Z" fill="#01101E"/>
<path d="M878.1 665.538C882.98 665.538 886.95 669.671 886.95 674.751C886.95 679.831 882.98 683.964 878.1 683.964C873.22 683.964 869.25 679.831 869.25 674.751C869.25 669.671 873.22 665.538 878.1 665.538ZM878.1 680.893C881.35 680.893 884 678.134 884 674.751C884 671.368 881.35 668.609 878.1 668.609C874.85 668.609 872.2 671.368 872.2 674.751C872.2 678.134 874.85 680.893 878.1 680.893Z" fill="#01182C"/>
<path d="M734.508 309.762C734.508 305.525 737.808 302.079 741.888 302.079C745.968 302.079 749.268 305.514 749.268 309.762C749.268 314.009 745.968 317.444 741.888 317.444C737.808 317.444 734.508 314.009 734.508 309.762Z" fill="#01101D"/>
<path d="M590.904 474.08C599.584 474.08 606.644 481.429 606.644 490.465C606.644 499.501 599.584 506.85 590.904 506.85C582.224 506.85 575.164 499.501 575.164 490.465C575.164 481.429 582.224 474.08 590.904 474.08ZM590.904 500.698C596.324 500.698 600.744 496.107 600.744 490.455C600.744 484.802 596.334 480.222 590.904 480.222C585.474 480.222 581.074 484.813 581.074 490.455C581.074 496.097 585.484 500.698 590.904 500.698Z" fill="#051627"/>
</g>
</g>
<mask id="mask3_919_1644" style="mask-type:luminance" maskUnits="userSpaceOnUse" x="0" y="913" width="1922" height="650">
<path d="M1922 913H0V1563H1922V913Z" fill="white"/>
</mask>
<g mask="url(#mask3_919_1644)">
<mask id="mask4_919_1644" style="mask-type:luminance" maskUnits="userSpaceOnUse" x="-247" y="482" width="3078" height="1801">
<path d="M-247 482.001H2831V2282.9H-247V482.001Z" fill="white"/>
</mask>
<g mask="url(#mask4_919_1644)">
<path d="M-706.281 2154.02H14.6885L63.7485 2102.96V1820.13L3.74854 1757.67V1618.68L91.4086 1527.44H604.799L605.239 1526.99L700.699 1427.62H885.479V1424.55H699.469L699.039 1425L603.579 1524.37H90.1885L89.7485 1524.82L0.798523 1617.41V1758.94L60.7986 1821.4V2101.68L13.4686 2150.95H-706.281V2154.02Z" fill="#021F38" fill-opacity="0.6"/>
<path d="M132.848 1770.6H541.248V1764.45H135.288L109.478 1737.58V1584.51L130.378 1562.76H600.258V1556.62H127.928L103.578 1581.97V1740.13L132.848 1770.6Z" fill="#021F38" fill-opacity="0.6"/>
<path d="M-706.281 2118.7H-9.28149L22.4385 2085.67V1839.97L21.5784 1839.07L-41.7316 1773.16V1513.62H-47.6315V1775.71L-46.7714 1776.61L16.5386 1842.51V2083.13L-11.7316 2112.56H-706.281V2118.7Z" fill="#021F38" fill-opacity="0.6"/>
<path d="M673.162 1627.38L741.142 1556.62H909.322L954.562 1509.52H1121.52V1503.38H952.122L906.882 1550.48H738.702L737.832 1551.37L668.992 1623.04L673.162 1627.38Z" fill="#021F38" fill-opacity="0.6"/>
<path d="M576.648 1488.02H92.7578V1481.88H576.648V1488.02Z" fill="#021F38" fill-opacity="0.6"/>
<path d="M-71.8614 1411.87L58.3387 1276.34V775.6H52.4386V1273.79L-76.0312 1407.53L-71.8614 1411.87Z" fill="#021F38" fill-opacity="0.6"/>
<path d="M1322.41 1537.93L1326.58 1533.58L1152.74 1352.62H611.582L542.482 1424.55H276.922L138.502 1280.45V775.6H132.602V1283L133.462 1283.89L274.482 1430.69H544.932L614.022 1358.77H1150.3L1322.41 1537.93Z" fill="#021F38" fill-opacity="0.6"/>
<path d="M1602.71 1913.43H2923.81V1907.27H1605.16L1459.36 1755.51V1354.42H1453.46V1758.05L1602.71 1913.43Z" fill="#021F38" fill-opacity="0.6"/>
<path d="M1658.77 1854.04H2923.81V1847.9H1661.22L1553.78 1736.05V1354.42H1547.88V1738.59L1658.77 1854.04Z" fill="#021F38" fill-opacity="0.6"/>
<path d="M1397.89 1759.85H1400.84V1535L1400.41 1534.54L1173.28 1298.1H884.992V1301.17H1172.05L1397.89 1536.27V1759.85Z" fill="#021F38" fill-opacity="0.6"/>
<path d="M79.49 1500.82C88.17 1500.82 95.23 1493.47 95.23 1484.44C95.23 1475.4 88.17 1468.05 79.49 1468.05C70.81 1468.05 63.75 1475.4 63.75 1484.44C63.75 1493.47 70.81 1500.82 79.49 1500.82ZM79.49 1474.2C84.91 1474.2 89.33 1478.8 89.33 1484.45C89.33 1490.1 84.92 1494.68 79.49 1494.68C74.06 1494.68 69.65 1490.09 69.65 1484.45C69.65 1478.81 74.06 1474.2 79.49 1474.2Z" fill="#061A2D"/>
<path d="M600.743 1545.86C607.807 1545.86 613.533 1551.83 613.533 1559.18C613.533 1566.53 607.807 1572.49 600.743 1572.49C593.679 1572.49 587.953 1566.53 587.953 1559.18C587.953 1551.83 593.679 1545.86 600.743 1545.86Z" fill="#02182C"/>
<path d="M1121.02 1492.63C1128.09 1492.63 1133.81 1498.59 1133.81 1505.94C1133.81 1513.3 1128.09 1519.26 1121.02 1519.26C1113.96 1519.26 1108.23 1513.3 1108.23 1505.94C1108.23 1498.59 1113.96 1492.63 1121.02 1492.63Z" fill="#02182C"/>
<path d="M1324.62 1522.32C1331.68 1522.32 1337.41 1528.28 1337.41 1535.63C1337.41 1542.99 1331.68 1548.95 1324.62 1548.95C1317.55 1548.95 1311.83 1542.99 1311.83 1535.63C1311.83 1528.28 1317.55 1522.32 1324.62 1522.32Z" fill="#02182C"/>
<path d="M1563.36 1351.24C1564.99 1358.4 1560.74 1365.58 1553.87 1367.27C1547 1368.97 1540.1 1364.55 1538.47 1357.4C1536.84 1350.24 1541.09 1343.07 1547.96 1341.37C1554.83 1339.67 1561.73 1344.09 1563.36 1351.24Z" fill="#02182C"/>
<path d="M1464.4 1344.02C1469.92 1348.62 1470.81 1356.99 1466.39 1362.73C1461.98 1368.47 1453.93 1369.4 1448.41 1364.8C1442.9 1360.21 1442.01 1351.83 1446.42 1346.09C1450.84 1340.35 1458.89 1339.42 1464.4 1344.02Z" fill="#061625"/>
<path d="M892.786 1424.29C893.455 1428.47 890.737 1432.43 886.717 1433.12C882.696 1433.82 878.895 1430.99 878.226 1426.81C877.558 1422.62 880.275 1418.66 884.296 1417.97C888.316 1417.27 892.118 1420.1 892.786 1424.29Z" fill="#021F38" fill-opacity="0.6"/>
<path d="M878.1 1309.36C882.98 1309.36 886.95 1305.23 886.95 1300.15C886.95 1295.07 882.98 1290.94 878.1 1290.94C873.22 1290.94 869.25 1295.07 869.25 1300.15C869.25 1305.23 873.22 1309.36 878.1 1309.36ZM878.1 1294.01C881.35 1294.01 884 1296.77 884 1300.15C884 1303.53 881.35 1306.29 878.1 1306.29C874.85 1306.29 872.2 1303.53 872.2 1300.15C872.2 1296.77 874.85 1294.01 878.1 1294.01Z" fill="#021F38" fill-opacity="0.6"/>
<path d="M590.904 1500.82C599.584 1500.82 606.644 1493.47 606.644 1484.44C606.644 1475.4 599.584 1468.05 590.904 1468.05C582.224 1468.05 575.164 1475.4 575.164 1484.44C575.164 1493.47 582.224 1500.82 590.904 1500.82ZM590.904 1474.2C596.324 1474.2 600.744 1478.8 600.744 1484.45C600.744 1490.1 596.334 1494.68 590.904 1494.68C585.474 1494.68 581.074 1490.09 581.074 1484.45C581.074 1478.81 585.484 1474.2 590.904 1474.2Z" fill="#02182C"/>
</g>
</g>
<mask id="mask5_919_1644" style="mask-type:luminance" maskUnits="userSpaceOnUse" x="0" y="1563" width="1922" height="650">
<path d="M1922 1563H0V2213H1922V1563Z" fill="white"/>
</mask>
<g mask="url(#mask5_919_1644)">
<mask id="mask6_919_1644" style="mask-type:luminance" maskUnits="userSpaceOnUse" x="-1229" y="1102" width="3078" height="1801">
<path d="M1849 1102H-1229V2902.9H1849V1102Z" fill="white"/>
</mask>
<g mask="url(#mask6_919_1644)">
<path d="M2308.27 2791.02H1587.3L1538.24 2739.96V2457.13L1598.24 2394.67V2255.68L1510.58 2164.44H997.196L996.756 2163.99L901.296 2064.62H716.516V2061.55H902.526L902.956 2062L998.416 2161.37H1511.8L1512.24 2161.82L1601.19 2254.41V2395.94L1541.19 2458.4V2738.68L1588.52 2787.95H2308.27V2791.02Z" fill="#021F38" fill-opacity="0.6"/>
<path d="M1469.14 2407.6H1060.74V2401.45H1466.7L1492.51 2374.58V2221.51L1471.61 2199.76H1001.73V2193.62H1474.06L1498.41 2218.97V2377.13L1469.14 2407.6Z" fill="#021F38" fill-opacity="0.6"/>
<path d="M2308.27 2755.7H1611.27L1579.55 2722.67V2476.97L1580.41 2476.07L1643.72 2410.16V2150.62H1649.62V2412.71L1648.76 2413.61L1585.45 2479.51V2720.13L1613.72 2749.56H2308.27V2755.7Z" fill="#021F38" fill-opacity="0.6"/>
<path d="M928.837 2264.38L860.857 2193.62H692.677L647.437 2146.52H480.477V2140.38H649.877L695.117 2187.48H863.297L864.167 2188.37L933.007 2260.04L928.837 2264.38Z" fill="#021F38" fill-opacity="0.6"/>
<path d="M1025.34 2125.02H1509.23V2118.88H1025.34V2125.02Z" fill="#021F38" fill-opacity="0.6"/>
<path d="M1717.74 2659.46H1711.84V2000.36L1635.01 1920.38L1639.18 1916.04L1717.74 1997.82V2659.46Z" fill="#021F38" fill-opacity="0.6"/>
<path d="M1673 2049L1548 1913.53V1413H1553.66V1910.98L1677 2044.66L1673 2049Z" fill="#021F38" fill-opacity="0.6"/>
<path d="M279.135 2175L275 2170.65L447.387 1989.77H984.024L1052.55 2061.67H1315.89L1453.15 1917.63V1413H1459V1920.17L1458.15 1921.07L1318.31 2067.8H1050.12L981.604 1995.91H449.807L279.135 2175Z" fill="#021F38" fill-opacity="0.6"/>
<path d="M-0.713379 2550.43H-1321.81V2544.27H-3.16333L142.637 2392.51V1991.42H148.537V2395.05L-0.713379 2550.43Z" fill="#021F38" fill-opacity="0.6"/>
<path d="M-56.7676 2491.04H-1321.81V2484.9H-59.2175L48.2224 2373.05V1991.42H54.1226V2375.59L-56.7676 2491.04Z" fill="#021F38" fill-opacity="0.6"/>
<path d="M1637.09 1897.22C1625.96 1897.22 1616.93 1906.61 1616.93 1918.21C1616.93 1929.8 1625.96 1939.19 1637.09 1939.19C1648.22 1939.19 1657.25 1929.8 1657.25 1918.21C1657.25 1906.61 1648.22 1897.22 1637.09 1897.22Z" fill="#021F38" fill-opacity="0.6"/>
<path d="M1676.43 2026.23C1665.3 2026.23 1656.27 2035.62 1656.27 2047.22C1656.27 2058.81 1665.3 2068.2 1676.43 2068.2C1687.57 2068.2 1696.59 2058.81 1696.59 2047.22C1696.59 2035.62 1687.57 2026.23 1676.43 2026.23Z" fill="#021F38" fill-opacity="0.6"/>
<path d="M1645.95 2134.74C1638.89 2134.74 1633.16 2140.7 1633.16 2148.06C1633.16 2155.41 1638.89 2161.37 1645.95 2161.37C1653.02 2161.37 1658.74 2155.41 1658.74 2148.06C1658.74 2140.7 1653.02 2134.74 1645.95 2134.74Z" fill="#021F38" fill-opacity="0.6"/>
<path d="M1522.51 2137.82C1513.83 2137.82 1506.77 2130.47 1506.77 2121.44C1506.77 2112.4 1513.83 2105.05 1522.51 2105.05C1531.19 2105.05 1538.25 2112.4 1538.25 2121.44C1538.25 2130.47 1531.19 2137.82 1522.51 2137.82ZM1522.51 2111.2C1517.09 2111.2 1512.67 2115.8 1512.67 2121.45C1512.67 2127.1 1517.08 2131.68 1522.51 2131.68C1527.94 2131.68 1532.35 2127.09 1532.35 2121.45C1532.35 2115.81 1527.94 2111.2 1522.51 2111.2Z" fill="#061A2D"/>
<path d="M1001.25 2182.86C994.187 2182.86 988.461 2188.83 988.461 2196.18C988.461 2203.53 994.187 2209.49 1001.25 2209.49C1008.31 2209.49 1014.04 2203.53 1014.04 2196.18C1014.04 2188.83 1008.31 2182.86 1001.25 2182.86Z" fill="#02182C"/>
<path d="M480.978 2129.63C473.914 2129.63 468.188 2135.59 468.188 2142.94C468.188 2150.3 473.914 2156.26 480.978 2156.26C488.041 2156.26 493.767 2150.3 493.767 2142.94C493.767 2135.59 488.041 2129.63 480.978 2129.63Z" fill="#02182C"/>
<path d="M277.376 2159.32C270.312 2159.32 264.586 2165.28 264.586 2172.63C264.586 2179.99 270.312 2185.95 277.376 2185.95C284.44 2185.95 290.166 2179.99 290.166 2172.63C290.166 2165.28 284.44 2159.32 277.376 2159.32Z" fill="#02182C"/>
<path d="M38.6381 1988.24C37.0059 1995.4 41.254 2002.58 48.1266 2004.27C54.9991 2005.97 61.8936 2001.55 63.5258 1994.4C65.158 1987.24 60.9098 1980.07 54.0373 1978.37C47.1647 1976.67 40.2703 1981.09 38.6381 1988.24Z" fill="#02182C"/>
<path d="M137.593 1981.02C132.079 1985.62 131.189 1993.99 135.605 1999.73C140.02 2005.47 148.07 2006.4 153.583 2001.8C159.097 1997.21 159.987 1988.83 155.571 1983.09C151.156 1977.35 143.106 1976.42 137.593 1981.02Z" fill="#02182C"/>
<path d="M709.211 2061.29C708.542 2065.47 711.26 2069.43 715.28 2070.12C719.301 2070.82 723.102 2067.99 723.771 2063.81C724.439 2059.62 721.722 2055.66 717.701 2054.97C713.681 2054.27 709.879 2057.1 709.211 2061.29Z" fill="#021F38" fill-opacity="0.6"/>
<path d="M723.897 1946.36C719.017 1946.36 715.047 1942.23 715.047 1937.15C715.047 1932.07 719.017 1927.94 723.897 1927.94C728.777 1927.94 732.747 1932.07 732.747 1937.15C732.747 1942.23 728.777 1946.36 723.897 1946.36ZM723.897 1931.01C720.647 1931.01 717.997 1933.77 717.997 1937.15C717.997 1940.53 720.647 1943.29 723.897 1943.29C727.147 1943.29 729.797 1940.53 729.797 1937.15C729.797 1933.77 727.147 1931.01 723.897 1931.01Z" fill="#021F38" fill-opacity="0.6"/>
<path d="M1011.1 2137.82C1002.42 2137.82 995.352 2130.47 995.352 2121.44C995.352 2112.4 1002.42 2105.05 1011.1 2105.05C1019.78 2105.05 1026.84 2112.4 1026.84 2121.44C1026.84 2130.47 1019.78 2137.82 1011.1 2137.82ZM1011.1 2111.2C1005.68 2111.2 1001.26 2115.8 1001.26 2121.45C1001.26 2127.1 1005.67 2131.68 1011.1 2131.68C1016.53 2131.68 1020.93 2127.09 1020.93 2121.45C1020.93 2115.81 1016.52 2111.2 1011.1 2111.2Z" fill="#02182C"/>
</g>
</g>
<mask id="mask7_919_1644" style="mask-type:luminance" maskUnits="userSpaceOnUse" x="0" y="2213" width="1922" height="650">
<path d="M1922 2213H0V2863H1922V2213Z" fill="white"/>
</mask>
<g mask="url(#mask7_919_1644)">
<mask id="mask8_919_1644" style="mask-type:luminance" maskUnits="userSpaceOnUse" x="-247" y="1679" width="3078" height="1800">
<path d="M-247 1679H2831V3479H-247V1679Z" fill="white"/>
</mask>
<g mask="url(#mask8_919_1644)">
<path d="M-706.281 3350.18H14.6885L63.7485 3299.15V3016.46L3.74854 2954.04V2815.11L91.4086 2723.92H604.799L605.239 2723.47L700.699 2624.15H885.479V2621.08H699.469L699.039 2621.53L603.579 2720.85H90.1885L89.7485 2721.3L0.798523 2813.84V2955.31L60.7986 3017.73V3297.87L13.4686 3347.11H-706.281V3350.18Z" fill="url(#paint11_linear_919_1644)"/>
<path d="M215.703 3064.68H619.563L687.793 2993.69V2854.01L747.663 2791.72H966.133V2788.65H746.443L684.843 2852.73V2992.41L618.333 3061.61H215.703V3064.68Z" fill="url(#paint12_linear_919_1644)"/>
<path d="M112.807 3008.4H607.747L641.067 2973.73V2845.18H638.117V2972.46L606.527 3005.33H114.027L63.7469 2953.02V2826.76H60.7969V2954.29L112.807 3008.4Z" fill="url(#paint13_linear_919_1644)"/>
<path d="M132.848 2966.96H541.248V2960.81H135.288L109.478 2933.96V2780.96L130.378 2759.22H600.258V2753.08H127.928L103.578 2778.42V2936.51L132.848 2966.96Z" fill="url(#paint14_linear_919_1644)"/>
<path d="M-706.281 3314.88H-9.28149L22.4385 3281.87V3036.3L21.5784 3035.39L-41.7316 2969.52V2710.1H-47.6315V2972.07L-46.7714 2972.96L16.5386 3038.83V3279.33L-11.7316 3308.74H-706.281V3314.88Z" fill="#021F38" fill-opacity="0.6"/>
<path d="M171.819 2918.35H544.199V2915.28H173.039L149.319 2890.59V2800.15H146.359V2891.87L171.819 2918.35Z" fill="url(#paint15_linear_919_1644)"/>
<path d="M543.7 2823.18H193.57V2820.11H543.7V2823.18Z" fill="#03101C"/>
<path d="M743.418 2861.1L774.948 2828.3H1121.52V2825.23H773.728L741.328 2858.93L743.418 2861.1Z" fill="#010F1C"/>
<path d="M673.154 2823.81L741.134 2753.08H909.314L954.554 2706.01H1121.51V2699.87H952.114L906.874 2746.94H738.694L737.824 2747.84L668.984 2819.47L673.154 2823.81Z" fill="url(#paint16_linear_919_1644)"/>
<path d="M576.648 2684.52H92.7578V2678.38H576.648V2684.52Z" fill="#021F38" fill-opacity="0.6"/>
<path d="M-70.9967 2608.54L54 2473.14V1972.85H48.3358V2470.59L-75 2604.2L-70.9967 2608.54Z" fill="#021F38" fill-opacity="0.6"/>
<path d="M1322.86 2734.47L1327 2730.13L1154.61 2549.33H617.976L549.454 2621.19H286.114L148.851 2477.23V1972.85H143V2479.77L143.853 2480.67L283.694 2627.33H551.883L620.396 2555.48H1152.19L1322.86 2734.47Z" fill="#021F38" fill-opacity="0.6"/>
<path d="M1602.7 3109.71H2923.8V3103.56H1605.15L1459.35 2951.87V2550.98H1453.45V2954.41L1602.7 3109.71Z" fill="url(#paint17_linear_919_1644)"/>
<path d="M1658.77 3050.35H2923.81V3044.21H1661.22L1553.78 2932.43V2550.98H1547.88V2934.97L1658.77 3050.35Z" fill="url(#paint18_linear_919_1644)"/>
<path d="M1397.88 2956.21H1400.83V2731.47L1400.4 2731.01L1173.27 2494.69H884.984V2497.76H1172.04L1397.88 2732.74V2956.21Z" fill="url(#paint19_linear_919_1644)"/>
<path d="M79.49 2697.31C88.17 2697.31 95.23 2689.97 95.23 2680.94C95.23 2671.9 88.17 2664.56 79.49 2664.56C70.81 2664.56 63.75 2671.9 63.75 2680.94C63.75 2689.97 70.81 2697.31 79.49 2697.31ZM79.49 2670.71C84.91 2670.71 89.33 2675.3 89.33 2680.95C89.33 2686.6 84.92 2691.17 79.49 2691.17C74.06 2691.17 69.65 2686.59 69.65 2680.95C69.65 2675.31 74.06 2670.71 79.49 2670.71Z" fill="#061A2D"/>
<path d="M61.7744 2813.97C68.8381 2813.97 74.5643 2819.93 74.5643 2827.28C74.5643 2834.63 68.8381 2840.58 61.7744 2840.58C54.7106 2840.58 48.9844 2834.63 48.9844 2827.28C48.9844 2819.93 54.7106 2813.97 61.7744 2813.97Z" fill="#03101D"/>
<path d="M148.321 2786.34C155.385 2786.34 161.111 2792.29 161.111 2799.64C161.111 2806.99 155.385 2812.95 148.321 2812.95C141.258 2812.95 135.531 2806.99 135.531 2799.64C135.531 2792.29 141.258 2786.34 148.321 2786.34Z" fill="#03101D"/>
<path d="M600.743 2742.33C607.807 2742.33 613.533 2748.29 613.533 2755.64C613.533 2762.99 607.807 2768.95 600.743 2768.95C593.679 2768.95 587.953 2762.99 587.953 2755.64C587.953 2748.29 593.679 2742.33 600.743 2742.33Z" fill="#02182C"/>
<path d="M684.237 2819.96C685.369 2827.22 680.634 2834.06 673.662 2835.23C666.689 2836.41 660.12 2831.48 658.988 2824.23C657.856 2816.97 662.591 2810.14 669.563 2808.96C676.536 2807.78 683.106 2812.71 684.237 2819.96Z" fill="#01111F"/>
<path d="M1121.02 2689.12C1128.09 2689.12 1133.81 2695.08 1133.81 2702.43C1133.81 2709.78 1128.09 2715.74 1121.02 2715.74C1113.96 2715.74 1108.23 2709.78 1108.23 2702.43C1108.23 2695.08 1113.96 2689.12 1121.02 2689.12Z" fill="#021425"/>
<path d="M1324.62 2718.8C1331.68 2718.8 1337.41 2724.76 1337.41 2732.11C1337.41 2739.46 1331.68 2745.41 1324.62 2745.41C1317.55 2745.41 1311.83 2739.46 1311.83 2732.11C1311.83 2724.76 1317.55 2718.8 1324.62 2718.8Z" fill="#02182C"/>
<path d="M1563.36 2547.81C1564.99 2554.96 1560.74 2562.13 1553.87 2563.83C1547 2565.53 1540.1 2561.11 1538.47 2553.96C1536.84 2546.81 1541.09 2539.64 1547.96 2537.94C1554.83 2536.24 1561.73 2540.66 1563.36 2547.81Z" fill="#02182C"/>
<path d="M1464.4 2540.59C1469.92 2545.18 1470.81 2553.56 1466.39 2559.29C1461.98 2565.03 1453.93 2565.96 1448.41 2561.36C1442.9 2556.77 1442.01 2548.39 1446.42 2542.66C1450.84 2536.92 1458.89 2535.99 1464.4 2540.59Z" fill="#02182C"/>
<path d="M189.146 2814.99C193.221 2814.99 196.526 2818.43 196.526 2822.67C196.526 2826.91 193.221 2830.35 189.146 2830.35C185.07 2830.35 181.766 2826.91 181.766 2822.67C181.766 2818.43 185.07 2814.99 189.146 2814.99Z" fill="#03101C"/>
<path d="M546.161 2814.99C550.237 2814.99 553.541 2818.43 553.541 2822.67C553.541 2826.91 550.237 2830.35 546.161 2830.35C542.085 2830.35 538.781 2826.91 538.781 2822.67C538.781 2818.43 542.085 2814.99 546.161 2814.99Z" fill="#03101C"/>
<path d="M892.786 2620.82C893.455 2625 890.737 2628.95 886.717 2629.65C882.696 2630.35 878.895 2627.52 878.226 2623.33C877.558 2619.15 880.275 2615.2 884.296 2614.5C888.316 2613.8 892.118 2616.63 892.786 2620.82Z" fill="#021F38" fill-opacity="0.6"/>
<path d="M973.414 2788.04C974.354 2792.17 971.901 2796.31 967.935 2797.29C963.969 2798.26 959.992 2795.71 959.052 2791.59C958.112 2787.46 960.566 2783.32 964.532 2782.34C968.498 2781.37 972.475 2783.92 973.414 2788.04Z" fill="#02111F"/>
<path d="M1126.38 2820.95C1129.45 2823.74 1129.76 2828.6 1127.08 2831.79C1124.4 2834.98 1119.74 2835.31 1116.67 2832.52C1113.6 2829.73 1113.28 2824.88 1115.97 2821.68C1118.65 2818.49 1123.31 2818.16 1126.38 2820.95Z" fill="#010F1C"/>
<path d="M878.1 2505.95C882.98 2505.95 886.95 2501.82 886.95 2496.74C886.95 2491.66 882.98 2487.53 878.1 2487.53C873.22 2487.53 869.25 2491.66 869.25 2496.74C869.25 2501.82 873.22 2505.95 878.1 2505.95ZM878.1 2490.6C881.35 2490.6 884 2493.36 884 2496.74C884 2500.12 881.35 2502.88 878.1 2502.88C874.85 2502.88 872.2 2500.12 872.2 2496.74C872.2 2493.36 874.85 2490.6 878.1 2490.6Z" fill="#021F38" fill-opacity="0.6"/>
<path d="M734.508 2861.55C734.508 2865.78 737.808 2869.23 741.888 2869.23C745.968 2869.23 749.268 2865.79 749.268 2861.55C749.268 2857.3 745.968 2853.87 741.888 2853.87C737.808 2853.87 734.508 2857.3 734.508 2861.55Z" fill="#010E1A"/>
<path d="M590.912 2697.31C599.592 2697.31 606.652 2689.97 606.652 2680.94C606.652 2671.9 599.592 2664.56 590.912 2664.56C582.232 2664.56 575.172 2671.9 575.172 2680.94C575.172 2689.97 582.232 2697.31 590.912 2697.31ZM590.912 2670.71C596.332 2670.71 600.752 2675.3 600.752 2680.95C600.752 2686.6 596.342 2691.17 590.912 2691.17C585.482 2691.17 581.082 2686.59 581.082 2680.95C581.082 2675.31 585.492 2670.71 590.912 2670.71Z" fill="#02182C"/>
</g>
</g>
</g>
</g>
<defs>
<linearGradient id="paint0_linear_919_1644" x1="90" y1="274.501" x2="89.5987" y2="550.353" gradientUnits="userSpaceOnUse">
<stop offset="0.383876" stop-color="#010D19"/>
<stop offset="1" stop-color="#021A2F"/>
</linearGradient>
<linearGradient id="paint1_linear_919_1644" x1="590.91" y1="264.001" x2="590.91" y2="382.703" gradientUnits="userSpaceOnUse">
<stop stop-color="#010D19"/>
<stop offset="1" stop-color="#021222"/>
</linearGradient>
<linearGradient id="paint2_linear_919_1644" x1="351" y1="276.501" x2="350.932" y2="344.572" gradientUnits="userSpaceOnUse">
<stop stop-color="#010D19"/>
<stop offset="1" stop-color="#03111E"/>
</linearGradient>
<linearGradient id="paint3_linear_919_1644" x1="352" y1="277" x2="351.918" y2="418.283" gradientUnits="userSpaceOnUse">
<stop stop-color="#010D19"/>
<stop offset="1" stop-color="#021222"/>
</linearGradient>
<linearGradient id="paint4_linear_919_1644" x1="343" y1="266.5" x2="345" y2="371" gradientUnits="userSpaceOnUse">
<stop stop-color="#010D19"/>
<stop offset="1" stop-color="#01101F"/>
</linearGradient>
<linearGradient id="paint5_linear_919_1644" x1="931.424" y1="310.209" x2="931" y2="352" gradientUnits="userSpaceOnUse">
<stop stop-color="#010F1C"/>
<stop offset="1" stop-color="#01101E"/>
</linearGradient>
<linearGradient id="paint6_linear_919_1644" x1="895.256" y1="347.518" x2="895.256" y2="471.519" gradientUnits="userSpaceOnUse">
<stop stop-color="#02101E"/>
<stop offset="1" stop-color="#021425"/>
</linearGradient>
<linearGradient id="paint7_linear_919_1644" x1="729.591" y1="436.97" x2="729.591" y2="1199.3" gradientUnits="userSpaceOnUse">
<stop stop-color="#021323"/>
<stop offset="1" stop-color="#01182C"/>
</linearGradient>
<linearGradient id="paint8_linear_919_1644" x1="2188.64" y1="61.4766" x2="2188.64" y2="620.485" gradientUnits="userSpaceOnUse">
<stop offset="0.322947" stop-color="#010D19"/>
<stop offset="1" stop-color="#071624"/>
</linearGradient>
<linearGradient id="paint9_linear_919_1644" x1="2235.85" y1="120.864" x2="2235.85" y2="620.484" gradientUnits="userSpaceOnUse">
<stop offset="0.328125" stop-color="#010D19"/>
<stop offset="1" stop-color="#02182C"/>
</linearGradient>
<linearGradient id="paint10_linear_919_1644" x1="1142.92" y1="215.053" x2="1142.92" y2="676.802" gradientUnits="userSpaceOnUse">
<stop offset="0.133218" stop-color="#010D19"/>
<stop offset="1" stop-color="#01182C"/>
</linearGradient>
<linearGradient id="paint11_linear_919_1644" x1="89.5988" y1="2621.08" x2="89.5988" y2="3350.18" gradientUnits="userSpaceOnUse">
<stop stop-color="#021F38"/>
<stop offset="0.26372" stop-color="#021F38" stop-opacity="0"/>
</linearGradient>
<linearGradient id="paint12_linear_919_1644" x1="590.918" y1="2788.65" x2="590.918" y2="3064.68" gradientUnits="userSpaceOnUse">
<stop stop-color="#02111F"/>
<stop offset="0.276652" stop-color="#010E1B"/>
</linearGradient>
<linearGradient id="paint13_linear_919_1644" x1="350.932" y1="2826.76" x2="350.932" y2="3008.4" gradientUnits="userSpaceOnUse">
<stop stop-color="#03101D"/>
<stop offset="0.197917" stop-color="#010D19"/>
</linearGradient>
<linearGradient id="paint14_linear_919_1644" x1="351.918" y1="2753.08" x2="351.918" y2="2966.96" gradientUnits="userSpaceOnUse">
<stop stop-color="#011221"/>
<stop offset="0.398588" stop-color="#010D19"/>
</linearGradient>
<linearGradient id="paint15_linear_919_1644" x1="345.279" y1="2800.15" x2="345.279" y2="2918.35" gradientUnits="userSpaceOnUse">
<stop stop-color="#03111E"/>
<stop offset="0.474312" stop-color="#010D19"/>
</linearGradient>
<linearGradient id="paint16_linear_919_1644" x1="895.247" y1="2699.87" x2="895.247" y2="2823.81" gradientUnits="userSpaceOnUse">
<stop stop-color="#021425"/>
<stop offset="1" stop-color="#01101D"/>
</linearGradient>
<linearGradient id="paint17_linear_919_1644" x1="2188.63" y1="2550.98" x2="2188.63" y2="3109.71" gradientUnits="userSpaceOnUse">
<stop stop-color="#02182C"/>
<stop offset="0.48694" stop-color="#010D19"/>
</linearGradient>
<linearGradient id="paint18_linear_919_1644" x1="2235.85" y1="2550.98" x2="2235.85" y2="3050.35" gradientUnits="userSpaceOnUse">
<stop stop-color="#02182C"/>
<stop offset="0.557328" stop-color="#010D19"/>
</linearGradient>
<linearGradient id="paint19_linear_919_1644" x1="1142.91" y1="2494.69" x2="1142.91" y2="2956.21" gradientUnits="userSpaceOnUse">
<stop stop-color="#021F38"/>
<stop offset="0.578125" stop-color="#010D19"/>
</linearGradient>
<clipPath id="clip0_919_1644">
<rect width="1920" height="3002" fill="white"/>
</clipPath>
</defs>
</svg>
