<svg width="33" height="33" viewBox="0 0 33 33" fill="none" xmlns="http://www.w3.org/2000/svg">
<circle cx="16" cy="16" r="15" transform="matrix(1 0 0 -1 0.71875 32.6133)" fill="#2B80D3" stroke="#191A1B" stroke-width="2"/>
<path d="M13.236 16.0239C13.7826 16.0722 14.2298 16.2773 14.5776 16.6393C14.9255 17.0013 15.0994 17.4598 15.0994 18.0148C15.0994 18.6182 14.913 19.1129 14.5404 19.499C14.1677 19.861 13.6957 20.042 13.1242 20.042C12.4783 20.042 11.9565 19.8127 11.559 19.3542C11.1863 18.8957 11 18.1838 11 17.2185C11 15.3602 11.6335 13.7554 12.9006 12.404C13.1491 12.1627 13.4348 12.042 13.7578 12.042C14.0311 12.042 14.2671 12.1385 14.4658 12.3316C14.6646 12.5005 14.764 12.7056 14.764 12.947C14.764 13.2124 14.6646 13.4417 14.4658 13.6348C13.8199 14.2863 13.4099 15.0827 13.236 16.0239ZM19.4224 16.0239C19.9689 16.0722 20.4161 16.2773 20.764 16.6393C21.1118 17.0013 21.2857 17.4598 21.2857 18.0148C21.2857 18.6182 21.0994 19.1129 20.7267 19.499C20.354 19.861 19.882 20.042 19.3106 20.042C18.6646 20.042 18.1429 19.8127 17.7453 19.3542C17.3727 18.8957 17.1863 18.1838 17.1863 17.2185C17.1863 15.3602 17.8199 13.7554 19.087 12.404C19.3354 12.1627 19.6211 12.042 19.9441 12.042C20.2174 12.042 20.4534 12.1385 20.6522 12.3316C20.8509 12.5005 20.9503 12.7056 20.9503 12.947C20.9503 13.2124 20.8509 13.4417 20.6522 13.6348C20.0062 14.2863 19.5963 15.0827 19.4224 16.0239Z" fill="white"/>
</svg>
