<svg width="557" height="494" viewBox="0 0 557 494" fill="none" xmlns="http://www.w3.org/2000/svg">
<path fill-rule="evenodd" clip-rule="evenodd" d="M252.836 0.730937C134.852 9.28594 34.3074 91.405 3.23838 204.586C-0.691617 218.905 -0.849619 221.041 1.71438 225.246C7.54638 234.808 19.2604 230.647 21.8224 218.103C29.8794 178.664 57.6194 129.248 90.2034 96.2899C165.409 20.2209 285.185 -1.13007 383.147 44.0699C390.965 47.6779 390.965 47.6779 388.897 50.3069C385.942 54.0629 386.122 60.0499 389.284 63.2109C394.031 67.9589 402.837 65.2749 404.579 58.5499C405.354 55.5589 405.354 55.5589 413.842 60.8929C500.421 115.296 544.955 210.719 534.2 318.784C533.252 328.313 538.136 333.769 546.252 332.246C550.365 331.475 554.778 326.698 554.943 322.839C555.006 321.369 555.305 318.816 555.609 317.166C557.12 308.95 556.306 256.042 554.502 245.166C546.205 195.156 529.862 154.302 503.208 116.946C447.249 38.5149 350.578 -6.35606 252.836 0.730937ZM276.244 50.0869C271.179 52.2929 268.829 56.1519 268.829 62.2679C268.829 78.6139 293.104 79.4049 294.513 63.1039C295.418 52.6379 285.924 45.8729 276.244 50.0869ZM333.247 105.581C324.566 109.316 323.187 123.781 331.028 128.859C342.224 136.111 355.67 124.794 350.515 112.458C348.015 106.473 339.269 102.991 333.247 105.581ZM435.052 110.223C430.048 113.727 434.045 123.002 439.774 121.183C445.225 119.454 446.465 114.098 442.194 110.739C439.038 108.256 437.969 108.179 435.052 110.223ZM103.752 119.589C97.4724 125.869 101.455 136.666 110.051 136.666C115.166 136.666 118.568 134.269 119.937 129.699C122.935 119.695 111.062 112.279 103.752 119.589ZM215.908 138.333C215.961 139.566 216.164 139.72 216.529 138.803C216.987 137.652 217.22 137.652 218.026 138.803C218.816 139.93 218.914 139.917 218.593 138.729C218.006 136.558 215.818 136.235 215.908 138.333ZM165.752 171.589C162.42 174.922 161.938 179.043 164.339 183.686C169.087 192.867 182.829 189.136 182.829 178.666C182.829 169.414 172.293 165.048 165.752 171.589ZM382.829 170.166C382.829 170.991 383.279 171.666 383.829 171.666C384.379 171.666 384.829 170.991 384.829 170.166C384.829 169.341 384.379 168.666 383.829 168.666C383.279 168.666 382.829 169.341 382.829 170.166ZM294.191 174.166C293.246 176.628 294.605 178.666 297.191 178.666C298.524 178.666 299.874 177.991 300.191 177.166C301.135 174.704 299.776 172.666 297.191 172.666C295.857 172.666 294.507 173.341 294.191 174.166ZM484.752 175.589C477.545 182.796 484.994 194.131 494.365 190.215C499.297 188.155 501.445 183.076 499.427 178.246C496.781 171.914 489.708 170.633 484.752 175.589ZM431.186 227.611C423.398 230.923 424.229 244.2 432.37 246.534C442.404 249.412 449.945 236.821 442.421 229.752C439.804 227.294 434.368 226.258 431.186 227.611ZM333.244 232.087C323.777 236.209 322.959 250.579 331.928 255.217C339.021 258.885 348.232 255.42 350.616 248.187C354.175 237.387 343.594 227.581 333.244 232.087ZM228.592 238.231C224.938 240.214 222.829 244.569 222.829 250.131C222.829 264.863 243.989 266.927 247.854 252.571C250.787 241.68 238.75 232.719 228.592 238.231ZM388.717 284.166C387.28 284.946 385.551 286.924 384.873 288.56C380.876 298.211 392.538 306.111 399.906 298.743C407.57 291.079 398.276 278.97 388.717 284.166ZM466.829 285.249C466.829 286.12 467.363 286.655 468.017 286.437C469.871 285.819 470.178 283.666 468.412 283.666C467.541 283.666 466.829 284.378 466.829 285.249ZM165.139 296.743C154.459 303.584 159.526 320.68 172.227 320.659C182.428 320.643 188.29 310.259 183.417 300.837C180.354 294.913 171.197 292.862 165.139 296.743ZM286.029 297.866C285.369 298.526 284.829 300.011 284.829 301.166C284.829 302.321 285.369 303.806 286.029 304.466C286.689 305.126 288.174 305.666 289.329 305.666C290.484 305.666 291.969 305.126 292.629 304.466C293.289 303.806 293.829 302.321 293.829 301.166C293.829 300.011 293.289 298.526 292.629 297.866C291.969 297.206 290.484 296.666 289.329 296.666C288.174 296.666 286.689 297.206 286.029 297.866ZM76.8804 308.424C73.8324 310.892 73.7814 316.399 76.7834 318.83C79.8624 321.323 82.4494 321.137 85.3744 318.211C91.3014 312.285 83.3814 303.16 76.8804 308.424ZM481.218 327.571C471.546 333.468 470.309 346.35 478.687 353.918C493.18 367.012 514.126 347.543 502.269 331.998C497.391 325.604 487.764 323.579 481.218 327.571ZM223.536 357.682C213.475 365.596 222.146 381.687 234.309 377.673C243.011 374.801 244.48 362.941 236.875 356.948C234.337 354.948 226.461 355.381 223.536 357.682ZM380.886 372.631C379.195 373.676 380.241 376.666 382.298 376.666C383.147 376.666 383.829 375.801 383.829 374.725C383.829 372.343 382.677 371.524 380.886 372.631ZM335.083 411.748C324.631 413.886 322.373 429.276 331.796 434.149C344.781 440.864 357.04 425.031 346.792 414.783C343.651 411.642 340.1 410.722 335.083 411.748ZM274.829 420.666C274.829 421.216 275.252 421.666 275.77 421.666C276.288 421.666 276.989 421.216 277.329 420.666C277.669 420.116 277.245 419.666 276.388 419.666C275.531 419.666 274.829 420.116 274.829 420.666ZM164.209 448.118C163.434 450.139 164.587 451.666 166.888 451.666C168.292 451.666 168.829 450.974 168.829 449.166C168.829 446.35 165.203 445.528 164.209 448.118ZM428.4 449.237C426.394 451.244 426.425 451.946 428.646 454.688C431.741 458.51 437.158 454.018 434.79 449.594C433.542 447.262 430.543 447.094 428.4 449.237ZM233.079 484.729C230.565 485.704 229.932 490.369 232.029 492.466C233.671 494.108 237.327 493.976 238.783 492.221C241.761 488.633 237.488 483.019 233.079 484.729Z" fill="#FAFAFA"/>
</svg>
