<svg width="246" height="246" viewBox="0 0 246 246" fill="none" xmlns="http://www.w3.org/2000/svg">
<path d="M148.872 203.251C168.307 203.251 184.65 198.249 197.901 188.243C211.152 178.238 219.398 166.614 222.931 153.518L185.828 143.219C184.061 149.987 179.644 155.725 172.871 160.434C165.951 165.289 157.854 167.644 148.431 167.644C136.21 167.644 126.198 163.229 118.542 154.254C110.739 145.426 106.91 134.832 106.91 122.472C106.91 110.112 110.739 99.5183 118.395 90.69C126.051 82.0088 136.063 77.5946 148.431 77.5946C157.854 77.5946 166.099 80.096 172.871 85.0987C179.644 90.1014 184.061 96.1341 185.828 102.902L222.931 92.3085C219.545 79.5074 211.152 68.0306 197.754 57.7308C184.356 47.4311 167.865 42.2812 148.431 42.2812C125.315 42.2812 106.027 49.9325 90.7147 65.2349C75.4023 80.5374 67.7461 99.5183 67.7461 122.472C67.7461 145.426 75.4023 164.554 90.7147 180.003C106.027 195.6 125.462 203.251 148.872 203.251Z" fill="white"/>
<rect x="23.0625" y="176.422" width="125.199" height="26.8283" fill="white"/>
<rect x="23.0625" y="131.724" width="26.8283" height="26.8283" fill="white"/>
<rect x="23.0625" y="42.2812" width="125.199" height="26.8283" fill="white"/>
<rect x="23.0625" y="87.0098" width="26.8283" height="26.8283" fill="white"/>
</svg>
